%TF.GenerationSoftware,KiCad,Pcbnew,8.0.1*%
%TF.CreationDate,2024-06-10T11:26:11+05:30*%
%TF.ProjectId,GPIO HAT 2,4750494f-2048-4415-9420-322e6b696361,rev?*%
%TF.SameCoordinates,Original*%
%TF.FileFunction,Copper,L1,Top*%
%TF.FilePolarity,Positive*%
%FSLAX46Y46*%
G04 Gerber Fmt 4.6, Leading zero omitted, Abs format (unit mm)*
G04 Created by KiCad (PCBNEW 8.0.1) date 2024-06-10 11:26:11*
%MOMM*%
%LPD*%
G01*
G04 APERTURE LIST*
G04 Aperture macros list*
%AMRoundRect*
0 Rectangle with rounded corners*
0 $1 Rounding radius*
0 $2 $3 $4 $5 $6 $7 $8 $9 X,Y pos of 4 corners*
0 Add a 4 corners polygon primitive as box body*
4,1,4,$2,$3,$4,$5,$6,$7,$8,$9,$2,$3,0*
0 Add four circle primitives for the rounded corners*
1,1,$1+$1,$2,$3*
1,1,$1+$1,$4,$5*
1,1,$1+$1,$6,$7*
1,1,$1+$1,$8,$9*
0 Add four rect primitives between the rounded corners*
20,1,$1+$1,$2,$3,$4,$5,0*
20,1,$1+$1,$4,$5,$6,$7,0*
20,1,$1+$1,$6,$7,$8,$9,0*
20,1,$1+$1,$8,$9,$2,$3,0*%
G04 Aperture macros list end*
%TA.AperFunction,SMDPad,CuDef*%
%ADD10R,0.600000X0.500000*%
%TD*%
%TA.AperFunction,SMDPad,CuDef*%
%ADD11R,0.762000X0.762000*%
%TD*%
%TA.AperFunction,SMDPad,CuDef*%
%ADD12R,0.500000X0.600000*%
%TD*%
%TA.AperFunction,SMDPad,CuDef*%
%ADD13R,0.200000X1.000000*%
%TD*%
%TA.AperFunction,ComponentPad*%
%ADD14C,1.524000*%
%TD*%
%TA.AperFunction,SMDPad,CuDef*%
%ADD15R,1.600000X3.499990*%
%TD*%
%TA.AperFunction,ComponentPad*%
%ADD16C,1.500000*%
%TD*%
%TA.AperFunction,SMDPad,CuDef*%
%ADD17R,0.660000X0.320000*%
%TD*%
%TA.AperFunction,SMDPad,CuDef*%
%ADD18R,1.000000X1.270000*%
%TD*%
%TA.AperFunction,SMDPad,CuDef*%
%ADD19R,0.250000X1.500000*%
%TD*%
%TA.AperFunction,SMDPad,CuDef*%
%ADD20R,0.700000X0.250000*%
%TD*%
%TA.AperFunction,SMDPad,CuDef*%
%ADD21R,0.250000X0.700000*%
%TD*%
%TA.AperFunction,ComponentPad*%
%ADD22C,3.810000*%
%TD*%
%TA.AperFunction,SMDPad,CuDef*%
%ADD23R,1.924000X2.200000*%
%TD*%
%TA.AperFunction,SMDPad,CuDef*%
%ADD24RoundRect,0.147500X-0.147500X0.457500X-0.147500X-0.457500X0.147500X-0.457500X0.147500X0.457500X0*%
%TD*%
%TA.AperFunction,ComponentPad*%
%ADD25O,2.000000X4.000000*%
%TD*%
%TA.AperFunction,ComponentPad*%
%ADD26O,4.000000X2.000000*%
%TD*%
%TA.AperFunction,ViaPad*%
%ADD27C,0.456997*%
%TD*%
%TA.AperFunction,ViaPad*%
%ADD28C,0.457000*%
%TD*%
%TA.AperFunction,Conductor*%
%ADD29C,0.254000*%
%TD*%
%TA.AperFunction,Conductor*%
%ADD30C,0.171958*%
%TD*%
%TA.AperFunction,Conductor*%
%ADD31C,0.203200*%
%TD*%
%TA.AperFunction,Conductor*%
%ADD32C,0.127000*%
%TD*%
%TA.AperFunction,Conductor*%
%ADD33C,0.152400*%
%TD*%
%TA.AperFunction,Conductor*%
%ADD34C,0.508000*%
%TD*%
G04 APERTURE END LIST*
D10*
%TO.P,R10,1*%
%TO.N,3.3V*%
X235313800Y-112674400D03*
%TO.P,R10,2*%
%TO.N,/NetR10_2*%
X235313800Y-113674400D03*
%TD*%
D11*
%TO.P,C7,1*%
%TO.N,3.3V*%
X172282240Y-127308200D03*
%TO.P,C7,2*%
%TO.N,GND*%
X172282240Y-128642210D03*
%TD*%
D12*
%TO.P,R19,1*%
%TO.N,/NETR18_1*%
X179029240Y-134077810D03*
%TO.P,R19,2*%
%TO.N,GND*%
X180029240Y-134077810D03*
%TD*%
D13*
%TO.P,U4,1,A1*%
%TO.N,/GPIOT__RXP17*%
X183079800Y-88293800D03*
%TO.P,U4,2,A2*%
%TO.N,/GPIOT__RXN17*%
X182679800Y-88293800D03*
%TO.P,U4,3,A3*%
%TO.N,/GPIOT__RXN09*%
X182279800Y-88293800D03*
%TO.P,U4,4,A4*%
%TO.N,/GPIOT__RXP09*%
X181879800Y-88293800D03*
%TO.P,U4,5,VCCA*%
%TO.N,VCCB_2*%
X181479800Y-88293800D03*
%TO.P,U4,6,OE*%
%TO.N,/NetR4_2*%
X181079800Y-88293800D03*
%TO.P,U4,7,A5*%
%TO.N,/GPIOT__RXN16*%
X180679800Y-88293800D03*
%TO.P,U4,8,A6*%
%TO.N,/GPIOT__RXP16*%
X180279800Y-88293800D03*
%TO.P,U4,9,A7*%
%TO.N,/GPIOT__RXN15*%
X179879800Y-88293800D03*
%TO.P,U4,10,A8*%
%TO.N,/GPIOT__RXP15*%
X179479800Y-88293800D03*
%TO.P,U4,11,B8*%
%TO.N,/GPIOT_RXP15*%
X179479800Y-90093800D03*
%TO.P,U4,12,B7*%
%TO.N,/GPIOT_RXN15*%
X179879800Y-90093800D03*
%TO.P,U4,13,B6*%
%TO.N,/GPIOT_RXP16*%
X180279800Y-90093800D03*
%TO.P,U4,14,B5*%
%TO.N,/GPIOT_RXN16*%
X180679800Y-90093800D03*
%TO.P,U4,15,GND*%
%TO.N,GND*%
X181079800Y-90093800D03*
%TO.P,U4,16,VCCB*%
%TO.N,3.3V*%
X181479800Y-90093800D03*
%TO.P,U4,17,B4*%
%TO.N,/GPIOT_RXP09*%
X181879800Y-90093800D03*
%TO.P,U4,18,B3*%
%TO.N,/GPIOT_RXN09*%
X182279800Y-90093800D03*
%TO.P,U4,19,B2*%
%TO.N,/GPIOT_RXN17*%
X182679800Y-90093800D03*
%TO.P,U4,20,B1*%
%TO.N,/GPIOT_RXP17*%
X183079800Y-90093800D03*
%TD*%
D12*
%TO.P,R16,1*%
%TO.N,3.3V*%
X173262800Y-132588000D03*
%TO.P,R16,2*%
%TO.N,/NETR16_1*%
X172262800Y-132588000D03*
%TD*%
D13*
%TO.P,U8,1,A1*%
%TO.N,/GPIOB__TXN15*%
X213779000Y-111966600D03*
%TO.P,U8,2,A2*%
%TO.N,/GPIOB__TXP15*%
X213379000Y-111966600D03*
%TO.P,U8,3,A3*%
%TO.N,/GPIOB__TXP11*%
X212979000Y-111966600D03*
%TO.P,U8,4,A4*%
%TO.N,/GPIOB__TXN11*%
X212579000Y-111966600D03*
%TO.P,U8,5,VCCA*%
%TO.N,VCCB_3*%
X212179000Y-111966600D03*
%TO.P,U8,6,OE*%
%TO.N,/Net8_2*%
X211779000Y-111966600D03*
%TO.P,U8,7,A5*%
%TO.N,/GPIOB__TXN07*%
X211379000Y-111966600D03*
%TO.P,U8,8,A6*%
%TO.N,/GPIOB__TXP07*%
X210979000Y-111966600D03*
%TO.P,U8,9,A7*%
%TO.N,/GPIOB__TXP08*%
X210579000Y-111966600D03*
%TO.P,U8,10,A8*%
%TO.N,/GPIOB__TXN08*%
X210179000Y-111966600D03*
%TO.P,U8,11,B8*%
%TO.N,/GPIOB_TXN08*%
X210179000Y-113766600D03*
%TO.P,U8,12,B7*%
%TO.N,/GPIOB_TXP08*%
X210579000Y-113766600D03*
%TO.P,U8,13,B6*%
%TO.N,/GPIOB_TXP07*%
X210979000Y-113766600D03*
%TO.P,U8,14,B5*%
%TO.N,/GPIOB_TXN07*%
X211379000Y-113766600D03*
%TO.P,U8,15,GND*%
%TO.N,GND*%
X211779000Y-113766600D03*
%TO.P,U8,16,VCCB*%
%TO.N,3.3V*%
X212179000Y-113766600D03*
%TO.P,U8,17,B4*%
%TO.N,/GPIOB_TXN11*%
X212579000Y-113766600D03*
%TO.P,U8,18,B3*%
%TO.N,/GPIOB_TXP11*%
X212979000Y-113766600D03*
%TO.P,U8,19,B2*%
%TO.N,/GPIOB_TXP15*%
X213379000Y-113766600D03*
%TO.P,U8,20,B1*%
%TO.N,/GPIOB_TXN15*%
X213779000Y-113766600D03*
%TD*%
D14*
%TO.P,J17,1,1*%
%TO.N,VCCB_5*%
X227380304Y-70256400D03*
%TO.P,J17,2,2*%
%TO.N,GND*%
X227380304Y-72796400D03*
%TO.P,J17,3,3*%
%TO.N,/GPIOB__TXP09*%
X227380304Y-75336400D03*
%TO.P,J17,4,4*%
%TO.N,/GPIOB__TXN09*%
X227380304Y-77876400D03*
%TO.P,J17,5,4*%
%TO.N,/GPIOB__TXN10*%
X227380304Y-80416400D03*
%TO.P,J17,6,6*%
%TO.N,/GPIOB__TXP10*%
X227380304Y-82956400D03*
%TD*%
D15*
%TO.P,J25,1*%
%TO.N,VCC12V_DCIN*%
X159183650Y-132924113D03*
%TO.P,J25,2*%
%TO.N,GND*%
X162786750Y-132924113D03*
%TD*%
D10*
%TO.P,R4,1*%
%TO.N,3.3V*%
X185178700Y-89585800D03*
%TO.P,R4,2*%
%TO.N,/NetR4_2*%
X185178700Y-88585800D03*
%TD*%
D16*
%TO.P,JM2,1,1*%
%TO.N,3.3V*%
X171094400Y-88595200D03*
%TO.P,JM2,2,2*%
%TO.N,VCCB_2*%
X173634400Y-88595200D03*
%TO.P,JM2,3,3*%
%TO.N,1.8V*%
X176174400Y-88595200D03*
%TD*%
D10*
%TO.P,R12,1*%
%TO.N,/NETR12_1*%
X157302200Y-120599200D03*
%TO.P,R12,2*%
%TO.N,/NETC15_1*%
X157302200Y-121599200D03*
%TD*%
D14*
%TO.P,J7,1,1*%
%TO.N,VCCB_2*%
X177325376Y-70256400D03*
%TO.P,J7,2,2*%
%TO.N,GND*%
X177325376Y-72796400D03*
%TO.P,J7,3,3*%
%TO.N,/GPIOT__RXP15*%
X177325376Y-75336400D03*
%TO.P,J7,4,4*%
%TO.N,/GPIOT__RXN15*%
X177325376Y-77876400D03*
%TO.P,J7,5,4*%
%TO.N,/GPIOT__RXP16*%
X177325376Y-80416400D03*
%TO.P,J7,6,6*%
%TO.N,/GPIOT__RXN16*%
X177325376Y-82956400D03*
%TD*%
%TO.P,J1,1,1*%
%TO.N,VCCB_1*%
X160640400Y-93929200D03*
%TO.P,J1,2,2*%
%TO.N,GND*%
X160640400Y-96469200D03*
%TO.P,J1,3,3*%
%TO.N,/GPIOT__RXP03*%
X160640400Y-99009200D03*
%TO.P,J1,4,4*%
%TO.N,/GPIOT__RXN03*%
X160640400Y-101549200D03*
%TO.P,J1,5,4*%
%TO.N,/GPIOT__RXP08*%
X160640400Y-104089200D03*
%TO.P,J1,6,6*%
%TO.N,/GPIOT__RXN08*%
X160640400Y-106629200D03*
%TD*%
D11*
%TO.P,C22,1*%
%TO.N,1.8V*%
X181011110Y-124309385D03*
%TO.P,C22,2*%
%TO.N,GND*%
X182345120Y-124309385D03*
%TD*%
%TO.P,C15,1,1*%
%TO.N,/NETC15_1*%
X157280980Y-123181490D03*
%TO.P,C15,2,2*%
%TO.N,GND*%
X157280980Y-124515500D03*
%TD*%
%TO.P,C21,1*%
%TO.N,1.8V*%
X179625350Y-127308200D03*
%TO.P,C21,2*%
%TO.N,GND*%
X179625350Y-128642210D03*
%TD*%
D17*
%TO.P,U14,1,GND*%
%TO.N,GND*%
X166597000Y-133388800D03*
%TO.P,U14,2,VOUT*%
%TO.N,5V*%
X166597000Y-132888800D03*
%TO.P,U14,3,VIN1*%
%TO.N,5V_1*%
X166597000Y-132388800D03*
%TO.P,U14,4,PR*%
%TO.N,/NETR20_2*%
X166597000Y-131888800D03*
%TO.P,U14,5,MODE*%
%TO.N,5V_1*%
X165127000Y-131888800D03*
%TO.P,U14,6,VIN2*%
%TO.N,VCC5V*%
X165127000Y-132388800D03*
%TO.P,U14,7,VOUT*%
%TO.N,5V*%
X165127000Y-132888800D03*
%TO.P,U14,8,ST*%
%TO.N,Net-(U14-ST)*%
X165127000Y-133388800D03*
%TD*%
D18*
%TO.P,C14,1*%
%TO.N,5V_1*%
X165273000Y-130067196D03*
%TO.P,C14,2*%
%TO.N,GND*%
X163403000Y-130067196D03*
%TD*%
D11*
%TO.P,C4,1,1*%
%TO.N,5V*%
X168596910Y-131197570D03*
%TO.P,C4,2,2*%
%TO.N,GND*%
X169930920Y-131197570D03*
%TD*%
D10*
%TO.P,R15,1*%
%TO.N,/NETR14_1*%
X157302200Y-127322715D03*
%TO.P,R15,2*%
%TO.N,GND*%
X157302200Y-126322715D03*
%TD*%
D14*
%TO.P,J19,1,1*%
%TO.N,VCCB_5*%
X227380304Y-93929200D03*
%TO.P,J19,2,2*%
%TO.N,GND*%
X227380304Y-96469200D03*
%TO.P,J19,3,3*%
%TO.N,/GPIOB__TXN17*%
X227380304Y-99009200D03*
%TO.P,J19,4,4*%
%TO.N,/GPIOB__TXP17*%
X227380304Y-101549200D03*
%TO.P,J19,5,4*%
%TO.N,/GPIOB__TXN16*%
X227380304Y-104089200D03*
%TO.P,J19,6,6*%
%TO.N,/GPIOB__TXP16*%
X227380304Y-106629200D03*
%TD*%
D13*
%TO.P,U5,1,A1*%
%TO.N,/GPIOT__RXP13*%
X197478400Y-111966600D03*
%TO.P,U5,2,A2*%
%TO.N,/GPIOT__RXN13*%
X197078400Y-111966600D03*
%TO.P,U5,3,A3*%
%TO.N,/GPIOT__RXN11*%
X196678400Y-111966600D03*
%TO.P,U5,4,A4*%
%TO.N,/GPIOT__RXP11*%
X196278400Y-111966600D03*
%TO.P,U5,5,VCCA*%
%TO.N,VCCB_3*%
X195878400Y-111966600D03*
%TO.P,U5,6,OE*%
%TO.N,/NetR5_2*%
X195478400Y-111966600D03*
%TO.P,U5,7,A5*%
%TO.N,/GPIOT__RXN14*%
X195078400Y-111966600D03*
%TO.P,U5,8,A6*%
%TO.N,/GPIOT__RXP14*%
X194678400Y-111966600D03*
%TO.P,U5,9,A7*%
%TO.N,/GPIOT__RXN12*%
X194278400Y-111966600D03*
%TO.P,U5,10,A8*%
%TO.N,/GPIOT__RXP12*%
X193878400Y-111966600D03*
%TO.P,U5,11,B8*%
%TO.N,/GPIOT_RXP12*%
X193878400Y-113766600D03*
%TO.P,U5,12,B7*%
%TO.N,/GPIOT_RXN12*%
X194278400Y-113766600D03*
%TO.P,U5,13,B6*%
%TO.N,/GPIOT_RXP14*%
X194678400Y-113766600D03*
%TO.P,U5,14,B5*%
%TO.N,/GPIOT_RXN14*%
X195078400Y-113766600D03*
%TO.P,U5,15,GND*%
%TO.N,GND*%
X195478400Y-113766600D03*
%TO.P,U5,16,VCCB*%
%TO.N,3.3V*%
X195878400Y-113766600D03*
%TO.P,U5,17,B4*%
%TO.N,/GPIOT_RXP11*%
X196278400Y-113766600D03*
%TO.P,U5,18,B3*%
%TO.N,/GPIOT_RXN11*%
X196678400Y-113766600D03*
%TO.P,U5,19,B2*%
%TO.N,/GPIOT_RXN13*%
X197078400Y-113766600D03*
%TO.P,U5,20,B1*%
%TO.N,/GPIOT_RXP13*%
X197478400Y-113766600D03*
%TD*%
D10*
%TO.P,R1,1*%
%TO.N,3.3V*%
X167970200Y-112674400D03*
%TO.P,R1,2*%
%TO.N,/NetR1_2*%
X167970200Y-113674400D03*
%TD*%
D19*
%TO.P,U11,1,VIN*%
%TO.N,VCC12V_DCIN*%
X159469500Y-124982895D03*
%TO.P,U11,2,PGND*%
%TO.N,GND*%
X160469500Y-124982895D03*
D20*
%TO.P,U11,3,PG*%
%TO.N,/NETR12_1*%
X161419500Y-125182905D03*
%TO.P,U11,4,FSEL*%
%TO.N,unconnected-(U11-FSEL-Pad4)*%
X161419500Y-124682895D03*
%TO.P,U11,5,VOUT*%
%TO.N,5V_1*%
X161419500Y-124182905D03*
%TO.P,U11,6,MODE*%
%TO.N,unconnected-(U11-MODE-Pad6)*%
X161419500Y-123682895D03*
D19*
%TO.P,U11,7,SW*%
%TO.N,/NETL2_1*%
X159969500Y-123882905D03*
D21*
%TO.P,U11,8,BST*%
%TO.N,/NETR13_1*%
X159469500Y-123482895D03*
D20*
%TO.P,U11,9,VCC*%
%TO.N,/NETC15_1*%
X158519500Y-123682895D03*
%TO.P,U11,10,AGND*%
%TO.N,GND*%
X158519500Y-124182905D03*
%TO.P,U11,11,FB*%
%TO.N,/NETR14_1*%
X158519500Y-124682895D03*
%TO.P,U11,12,EN*%
%TO.N,/NETR11_2*%
X158519500Y-125182905D03*
%TD*%
D12*
%TO.P,C5,1*%
%TO.N,3.3V*%
X173262800Y-131165600D03*
%TO.P,C5,2*%
%TO.N,/NETR16_1*%
X172262800Y-131165600D03*
%TD*%
%TO.P,C44,1*%
%TO.N,5V*%
X165862000Y-135890000D03*
%TO.P,C44,2*%
%TO.N,GND*%
X164862000Y-135890000D03*
%TD*%
D22*
%TO.P,REF\u002A\u002A,*%
%TO.N,*%
X217347800Y-65176400D03*
%TD*%
%TO.P,REF\u002A\u002A,*%
%TO.N,*%
X159385000Y-114198400D03*
%TD*%
D10*
%TO.P,R11,1*%
%TO.N,VCC12V_DCIN*%
X157302200Y-118313200D03*
%TO.P,R11,2*%
%TO.N,/NETR11_2*%
X157302200Y-119313200D03*
%TD*%
D14*
%TO.P,J14,1,1*%
%TO.N,VCCB_4*%
X219037816Y-70256400D03*
%TO.P,J14,2,2*%
%TO.N,GND*%
X219037816Y-72796400D03*
%TO.P,J14,3,3*%
%TO.N,/GPIOB__TXP04*%
X219037816Y-75336400D03*
%TO.P,J14,4,4*%
%TO.N,/GPIOB__TXN04*%
X219037816Y-77876400D03*
%TO.P,J14,5,4*%
%TO.N,/GPIOB__TXN06*%
X219037816Y-80416400D03*
%TO.P,J14,6,6*%
%TO.N,/GPIOB__TXP06*%
X219037816Y-82956400D03*
%TD*%
D13*
%TO.P,U9,1,A1*%
%TO.N,/GPIOB__TXN12*%
X233176400Y-88293800D03*
%TO.P,U9,2,A2*%
%TO.N,/GPIOB__TXP12*%
X232776400Y-88293800D03*
%TO.P,U9,3,A3*%
%TO.N,/GPIOB__TXP18*%
X232376400Y-88293800D03*
%TO.P,U9,4,A4*%
%TO.N,/GPIOB__TXN18*%
X231976400Y-88293800D03*
%TO.P,U9,5,VCCA*%
%TO.N,VCCB_5*%
X231576400Y-88293800D03*
%TO.P,U9,6,OE*%
%TO.N,/NetR9_2*%
X231176400Y-88293800D03*
%TO.P,U9,7,A5*%
%TO.N,/GPIOB__TXP10*%
X230776400Y-88293800D03*
%TO.P,U9,8,A6*%
%TO.N,/GPIOB__TXN10*%
X230376400Y-88293800D03*
%TO.P,U9,9,A7*%
%TO.N,/GPIOB__TXN09*%
X229976400Y-88293800D03*
%TO.P,U9,10,A8*%
%TO.N,/GPIOB__TXP09*%
X229576400Y-88293800D03*
%TO.P,U9,11,B8*%
%TO.N,/GPIOB_TXP09*%
X229576400Y-90093800D03*
%TO.P,U9,12,B7*%
%TO.N,/GPIOB_TXN09*%
X229976400Y-90093800D03*
%TO.P,U9,13,B6*%
%TO.N,/GPIOB_TXN10*%
X230376400Y-90093800D03*
%TO.P,U9,14,B5*%
%TO.N,/GPIOB_TXP10*%
X230776400Y-90093800D03*
%TO.P,U9,15,GND*%
%TO.N,GND*%
X231176400Y-90093800D03*
%TO.P,U9,16,VCCB*%
%TO.N,3.3V*%
X231576400Y-90093800D03*
%TO.P,U9,17,B4*%
%TO.N,/GPIOB_TXN18*%
X231976400Y-90093800D03*
%TO.P,U9,18,B3*%
%TO.N,/GPIOB_TXP18*%
X232376400Y-90093800D03*
%TO.P,U9,19,B2*%
%TO.N,/GPIOB_TXP12*%
X232776400Y-90093800D03*
%TO.P,U9,20,B1*%
%TO.N,/GPIOB_TXN12*%
X233176400Y-90093800D03*
%TD*%
D14*
%TO.P,J4,1,1*%
%TO.N,VCCB_2*%
X168982888Y-70256400D03*
%TO.P,J4,2,2*%
%TO.N,GND*%
X168982888Y-72796400D03*
%TO.P,J4,3,3*%
%TO.N,/GPIOT__RXP05*%
X168982888Y-75336400D03*
%TO.P,J4,4,4*%
%TO.N,/GPIOT__RXN05*%
X168982888Y-77876400D03*
%TO.P,J4,5,4*%
%TO.N,/GPIOT__RXN20*%
X168982888Y-80416400D03*
%TO.P,J4,6,6*%
%TO.N,/GPIOT__RXP20*%
X168982888Y-82956400D03*
%TD*%
D12*
%TO.P,C19,1*%
%TO.N,1.8V*%
X180029240Y-131165600D03*
%TO.P,C19,2*%
%TO.N,/NETR18_1*%
X179029240Y-131165600D03*
%TD*%
D10*
%TO.P,R9,1*%
%TO.N,3.3V*%
X235313800Y-89585800D03*
%TO.P,R9,2*%
%TO.N,/NetR9_2*%
X235313800Y-88585800D03*
%TD*%
D14*
%TO.P,J11,1,1*%
%TO.N,VCCB_4*%
X194010352Y-70256400D03*
%TO.P,J11,2,2*%
%TO.N,GND*%
X194010352Y-72796400D03*
%TO.P,J11,3,3*%
%TO.N,/GPIOB__TXN13*%
X194010352Y-75336400D03*
%TO.P,J11,4,4*%
%TO.N,/GPIOB__TXP13*%
X194010352Y-77876400D03*
%TO.P,J11,5,4*%
%TO.N,/GPIOB__TXN02*%
X194010352Y-80416400D03*
%TO.P,J11,6,6*%
%TO.N,/GPIOB__TXP02*%
X194010352Y-82956400D03*
%TD*%
D10*
%TO.P,R7,1*%
%TO.N,3.3V*%
X218516200Y-89585800D03*
%TO.P,R7,2*%
%TO.N,/NetR7_2*%
X218516200Y-88585800D03*
%TD*%
D22*
%TO.P,REF\u002A\u002A,*%
%TO.N,*%
X217347800Y-114198400D03*
%TD*%
D11*
%TO.P,C2,1,1*%
%TO.N,5V*%
X168596910Y-134194685D03*
%TO.P,C2,2,2*%
%TO.N,GND*%
X169930920Y-134194685D03*
%TD*%
D14*
%TO.P,J18,1,1*%
%TO.N,VCCB_5*%
X235722800Y-70256400D03*
%TO.P,J18,2,2*%
%TO.N,GND*%
X235722800Y-72796400D03*
%TO.P,J18,3,3*%
%TO.N,/GPIOB__TXN18*%
X235722800Y-75336400D03*
%TO.P,J18,4,4*%
%TO.N,/GPIOB__TXP18*%
X235722800Y-77876400D03*
%TO.P,J18,5,4*%
%TO.N,/GPIOB__TXP12*%
X235722800Y-80416400D03*
%TO.P,J18,6,6*%
%TO.N,/GPIOB__TXN12*%
X235722800Y-82956400D03*
%TD*%
D23*
%TO.P,L2,1,1*%
%TO.N,/NETL2_1*%
X160593395Y-120483298D03*
%TO.P,L2,2,2*%
%TO.N,5V_1*%
X163865795Y-120483298D03*
%TD*%
D15*
%TO.P,L1,1,1*%
%TO.N,/NETL1_1*%
X169434440Y-123366015D03*
%TO.P,L1,2,2*%
%TO.N,3.3V*%
X172234440Y-123366015D03*
%TD*%
D16*
%TO.P,J23,1,1*%
%TO.N,VCC5V*%
X157683200Y-87833200D03*
%TO.P,J23,2,2*%
%TO.N,GND*%
X160223200Y-87833200D03*
%TO.P,J23,3,3*%
%TO.N,VCC5V*%
X157683200Y-90373200D03*
%TO.P,J23,4,3*%
%TO.N,GND*%
X160223200Y-90373200D03*
%TD*%
D11*
%TO.P,C6,1*%
%TO.N,3.3V*%
X173780840Y-127309985D03*
%TO.P,C6,2*%
%TO.N,GND*%
X173780840Y-128643995D03*
%TD*%
D13*
%TO.P,U6,1,A1*%
%TO.N,/GPIOB__TXP01*%
X197478400Y-88293800D03*
%TO.P,U6,2,A2*%
%TO.N,/GPIOB__TXN01*%
X197078400Y-88293800D03*
%TO.P,U6,3,A3*%
%TO.N,/GPIOB__TXP00*%
X196678400Y-88293800D03*
%TO.P,U6,4,A4*%
%TO.N,/GPIOB__TXN00*%
X196278400Y-88293800D03*
%TO.P,U6,5,VCCA*%
%TO.N,VCCB_4*%
X195878400Y-88293800D03*
%TO.P,U6,6,OE*%
%TO.N,/NetR6_2*%
X195478400Y-88293800D03*
%TO.P,U6,7,A5*%
%TO.N,/GPIOB__TXP02*%
X195078400Y-88293800D03*
%TO.P,U6,8,A6*%
%TO.N,/GPIOB__TXN02*%
X194678400Y-88293800D03*
%TO.P,U6,9,A7*%
%TO.N,/GPIOB__TXP13*%
X194278400Y-88293800D03*
%TO.P,U6,10,A8*%
%TO.N,/GPIOB__TXN13*%
X193878400Y-88293800D03*
%TO.P,U6,11,B8*%
%TO.N,/GPIOB_TXN13*%
X193878400Y-90093800D03*
%TO.P,U6,12,B7*%
%TO.N,/GPIOB_TXP13*%
X194278400Y-90093800D03*
%TO.P,U6,13,B6*%
%TO.N,/GPIOB_TXN02*%
X194678400Y-90093800D03*
%TO.P,U6,14,B5*%
%TO.N,/GPIOB_TXP02*%
X195078400Y-90093800D03*
%TO.P,U6,15,GND*%
%TO.N,GND*%
X195478400Y-90093800D03*
%TO.P,U6,16,VCCB*%
%TO.N,3.3V*%
X195878400Y-90093800D03*
%TO.P,U6,17,B4*%
%TO.N,/GPIOB_TXN00*%
X196278400Y-90093800D03*
%TO.P,U6,18,B3*%
%TO.N,/GPIOB_TXP00*%
X196678400Y-90093800D03*
%TO.P,U6,19,B2*%
%TO.N,/GPIOB_TXN01*%
X197078400Y-90093800D03*
%TO.P,U6,20,B1*%
%TO.N,/GPIOB_TXP01*%
X197478400Y-90093800D03*
%TD*%
D11*
%TO.P,C20,1*%
%TO.N,1.8V*%
X181113910Y-127309985D03*
%TO.P,C20,2*%
%TO.N,GND*%
X181113910Y-128643995D03*
%TD*%
D12*
%TO.P,R17,1*%
%TO.N,/NETR16_1*%
X172262800Y-134077810D03*
%TO.P,R17,2*%
%TO.N,GND*%
X173262800Y-134077810D03*
%TD*%
D18*
%TO.P,C12,1*%
%TO.N,5V_1*%
X165273000Y-126066406D03*
%TO.P,C12,2*%
%TO.N,GND*%
X163403000Y-126066406D03*
%TD*%
%TO.P,C9,1*%
%TO.N,VCC12V_DCIN*%
X159135800Y-129507115D03*
%TO.P,C9,2*%
%TO.N,GND*%
X161005800Y-129507115D03*
%TD*%
D24*
%TO.P,U12,1,EN*%
%TO.N,5V*%
X170799160Y-127037595D03*
%TO.P,U12,2,GND*%
%TO.N,GND*%
X169849160Y-127037595D03*
%TO.P,U12,3,LX*%
%TO.N,/NETL1_1*%
X168899160Y-127037595D03*
%TO.P,U12,4,VIN*%
%TO.N,5V*%
X168899160Y-129547595D03*
%TO.P,U12,5,FB*%
%TO.N,/NETR16_1*%
X170799160Y-129547595D03*
%TD*%
D11*
%TO.P,C17,1,1*%
%TO.N,5V*%
X175524930Y-132697955D03*
%TO.P,C17,2,2*%
%TO.N,GND*%
X176858940Y-132697955D03*
%TD*%
D10*
%TO.P,R14,1*%
%TO.N,5V_1*%
X157302200Y-129557915D03*
%TO.P,R14,2*%
%TO.N,/NETR14_1*%
X157302200Y-128557915D03*
%TD*%
D13*
%TO.P,U10,1,A1*%
%TO.N,/GPIOB__TXP19*%
X233176400Y-111966600D03*
%TO.P,U10,2,A2*%
%TO.N,/GPIOB__TXN19*%
X232776400Y-111966600D03*
%TO.P,U10,3,A3*%
%TO.N,/GPIOB__TXP14*%
X232376400Y-111966600D03*
%TO.P,U10,4,A4*%
%TO.N,/GPIOB__TXN14*%
X231976400Y-111966600D03*
%TO.P,U10,5,VCCA*%
%TO.N,VCCB_5*%
X231576400Y-111966600D03*
%TO.P,U10,6,OE*%
%TO.N,/NetR10_2*%
X231176400Y-111966600D03*
%TO.P,U10,7,A5*%
%TO.N,/GPIOB__TXP16*%
X230776400Y-111966600D03*
%TO.P,U10,8,A6*%
%TO.N,/GPIOB__TXN16*%
X230376400Y-111966600D03*
%TO.P,U10,9,A7*%
%TO.N,/GPIOB__TXP17*%
X229976400Y-111966600D03*
%TO.P,U10,10,A8*%
%TO.N,/GPIOB__TXN17*%
X229576400Y-111966600D03*
%TO.P,U10,11,B8*%
%TO.N,/GPIOB_TXN17*%
X229576400Y-113766600D03*
%TO.P,U10,12,B7*%
%TO.N,/GPIOB_TXP17*%
X229976400Y-113766600D03*
%TO.P,U10,13,B6*%
%TO.N,/GPIOB_TXN16*%
X230376400Y-113766600D03*
%TO.P,U10,14,B5*%
%TO.N,/GPIOB_TXP16*%
X230776400Y-113766600D03*
%TO.P,U10,15,GND*%
%TO.N,GND*%
X231176400Y-113766600D03*
%TO.P,U10,16,VCCB*%
%TO.N,3.3V*%
X231576400Y-113766600D03*
%TO.P,U10,17,B4*%
%TO.N,/GPIOB_TXN14*%
X231976400Y-113766600D03*
%TO.P,U10,18,B3*%
%TO.N,/GPIOB_TXP14*%
X232376400Y-113766600D03*
%TO.P,U10,19,B2*%
%TO.N,/GPIOB_TXN19*%
X232776400Y-113766600D03*
%TO.P,U10,20,B1*%
%TO.N,/GPIOB_TXP19*%
X233176400Y-113766600D03*
%TD*%
%TO.P,U7,1,A1*%
%TO.N,/GPIOB__TXP06*%
X216522200Y-88293800D03*
%TO.P,U7,2,A2*%
%TO.N,/GPIOB__TXN06*%
X216122200Y-88293800D03*
%TO.P,U7,3,A3*%
%TO.N,/GPIOB__TXN04*%
X215722200Y-88293800D03*
%TO.P,U7,4,A4*%
%TO.N,/GPIOB__TXP04*%
X215322200Y-88293800D03*
%TO.P,U7,5,VCCA*%
%TO.N,VCCB_4*%
X214922200Y-88293800D03*
%TO.P,U7,6,OE*%
%TO.N,/NetR7_2*%
X214522200Y-88293800D03*
%TO.P,U7,7,A5*%
%TO.N,/GPIOB__TXN03*%
X214122200Y-88293800D03*
%TO.P,U7,8,A6*%
%TO.N,/GPIOB__TXP03*%
X213722200Y-88293800D03*
%TO.P,U7,9,A7*%
%TO.N,/GPIOB__TXP05*%
X213322200Y-88293800D03*
%TO.P,U7,10,A8*%
%TO.N,/GPIOB__TXN05*%
X212922200Y-88293800D03*
%TO.P,U7,11,B8*%
%TO.N,/GPIOB_TXN05*%
X212922200Y-90093800D03*
%TO.P,U7,12,B7*%
%TO.N,/GPIOB_TXP05*%
X213322200Y-90093800D03*
%TO.P,U7,13,B6*%
%TO.N,/GPIOB_TXP03*%
X213722200Y-90093800D03*
%TO.P,U7,14,B5*%
%TO.N,/GPIOB_TXN03*%
X214122200Y-90093800D03*
%TO.P,U7,15,GND*%
%TO.N,GND*%
X214522200Y-90093800D03*
%TO.P,U7,16,VCCB*%
%TO.N,3.3V*%
X214922200Y-90093800D03*
%TO.P,U7,17,B4*%
%TO.N,/GPIOB_TXP04*%
X215322200Y-90093800D03*
%TO.P,U7,18,B3*%
%TO.N,/GPIOB_TXN04*%
X215722200Y-90093800D03*
%TO.P,U7,19,B2*%
%TO.N,/GPIOB_TXN06*%
X216122200Y-90093800D03*
%TO.P,U7,20,B1*%
%TO.N,/GPIOB_TXP06*%
X216522200Y-90093800D03*
%TD*%
D16*
%TO.P,JM5,1,1*%
%TO.N,3.3V*%
X230555800Y-121234200D03*
%TO.P,JM5,2,2*%
%TO.N,VCCB_5*%
X233095800Y-121234200D03*
%TO.P,JM5,3,3*%
%TO.N,1.8V*%
X235635800Y-121234200D03*
%TD*%
D14*
%TO.P,J10,1,1*%
%TO.N,VCCB_3*%
X202352840Y-93929200D03*
%TO.P,J10,2,2*%
%TO.N,GND*%
X202352840Y-96469200D03*
%TO.P,J10,3,3*%
%TO.N,/GPIOT__RXP11*%
X202352840Y-99009200D03*
%TO.P,J10,4,4*%
%TO.N,/GPIOT__RXN11*%
X202352840Y-101549200D03*
%TO.P,J10,5,4*%
%TO.N,/GPIOT__RXN13*%
X202352840Y-104089200D03*
%TO.P,J10,6,6*%
%TO.N,/GPIOT__RXP13*%
X202352840Y-106629200D03*
%TD*%
%TO.P,J6,1,1*%
%TO.N,VCCB_1*%
X185667864Y-93929200D03*
%TO.P,J6,2,2*%
%TO.N,GND*%
X185667864Y-96469200D03*
%TO.P,J6,3,3*%
%TO.N,/GPIOT__RXP04*%
X185667864Y-99009200D03*
%TO.P,J6,4,4*%
%TO.N,/GPIOT__RXN04*%
X185667864Y-101549200D03*
%TO.P,J6,5,4*%
%TO.N,/GPIOT__RXP07*%
X185667864Y-104089200D03*
%TO.P,J6,6,6*%
%TO.N,/GPIOT__RXN07*%
X185667864Y-106629200D03*
%TD*%
%TO.P,J20,1,1*%
%TO.N,VCCB_5*%
X235722800Y-93929200D03*
%TO.P,J20,2,2*%
%TO.N,GND*%
X235722800Y-96469200D03*
%TO.P,J20,3,3*%
%TO.N,/GPIOB__TXN14*%
X235722800Y-99009200D03*
%TO.P,J20,4,4*%
%TO.N,/GPIOB__TXP14*%
X235722800Y-101549200D03*
%TO.P,J20,5,4*%
%TO.N,/GPIOB__TXN19*%
X235722800Y-104089200D03*
%TO.P,J20,6,6*%
%TO.N,/GPIOB__TXP19*%
X235722800Y-106629200D03*
%TD*%
D10*
%TO.P,R5,1*%
%TO.N,3.3V*%
X190042800Y-112674400D03*
%TO.P,R5,2*%
%TO.N,/NetR5_2*%
X190042800Y-113674400D03*
%TD*%
D22*
%TO.P,REF\u002A\u002A,*%
%TO.N,*%
X159385000Y-65176400D03*
%TD*%
D10*
%TO.P,R2,1*%
%TO.N,3.3V*%
X167970200Y-89585800D03*
%TO.P,R2,2*%
%TO.N,/NetR2_2*%
X167970200Y-88585800D03*
%TD*%
D18*
%TO.P,C13,1*%
%TO.N,5V_1*%
X165273000Y-128066800D03*
%TO.P,C13,2*%
%TO.N,GND*%
X163403000Y-128066800D03*
%TD*%
D14*
%TO.P,J8,1,1*%
%TO.N,VCCB_2*%
X185667864Y-70256400D03*
%TO.P,J8,2,2*%
%TO.N,GND*%
X185667864Y-72796400D03*
%TO.P,J8,3,3*%
%TO.N,/GPIOT__RXP09*%
X185667864Y-75336400D03*
%TO.P,J8,4,4*%
%TO.N,/GPIOT__RXN09*%
X185667864Y-77876400D03*
%TO.P,J8,5,4*%
%TO.N,/GPIOT__RXN17*%
X185667864Y-80416400D03*
%TO.P,J8,6,6*%
%TO.N,/GPIOT__RXP17*%
X185667864Y-82956400D03*
%TD*%
D10*
%TO.P,R6,1*%
%TO.N,3.3V*%
X190042800Y-89585800D03*
%TO.P,R6,2*%
%TO.N,/NetR6_2*%
X190042800Y-88585800D03*
%TD*%
%TO.P,R3,1*%
%TO.N,3.3V*%
X185178700Y-112674400D03*
%TO.P,R3,2*%
%TO.N,/NetR3_2*%
X185178700Y-113674400D03*
%TD*%
D16*
%TO.P,JM1,1,1*%
%TO.N,3.3V*%
X171094400Y-111836200D03*
%TO.P,JM1,2,2*%
%TO.N,VCCB_1*%
X173634400Y-111836200D03*
%TO.P,JM1,3,3*%
%TO.N,1.8V*%
X176174400Y-111836200D03*
%TD*%
D10*
%TO.P,R13,1*%
%TO.N,/NETR13_1*%
X158753600Y-122174365D03*
%TO.P,R13,2*%
%TO.N,/NETR13_2*%
X158753600Y-121174365D03*
%TD*%
D13*
%TO.P,U2,1,A1*%
%TO.N,/GPIOT__RXP20*%
X166402800Y-88293800D03*
%TO.P,U2,2,A2*%
%TO.N,/GPIOT__RXN20*%
X166002800Y-88293800D03*
%TO.P,U2,3,A3*%
%TO.N,/GPIOT__RXN05*%
X165602800Y-88293800D03*
%TO.P,U2,4,A4*%
%TO.N,/GPIOT__RXP05*%
X165202800Y-88293800D03*
%TO.P,U2,5,VCCA*%
%TO.N,VCCB_2*%
X164802800Y-88293800D03*
%TO.P,U2,6,OE*%
%TO.N,/NetR2_2*%
X164402800Y-88293800D03*
%TO.P,U2,7,A5*%
%TO.N,/GPIOT__RXP01*%
X164002800Y-88293800D03*
%TO.P,U2,8,A6*%
%TO.N,/GPIOT__RXN01*%
X163602800Y-88293800D03*
%TO.P,U2,9,A7*%
%TO.N,/GPIOT__RXN06*%
X163202800Y-88293800D03*
%TO.P,U2,10,A8*%
%TO.N,/GPIOT__RXP06*%
X162802800Y-88293800D03*
%TO.P,U2,11,B8*%
%TO.N,/GPIOT_RXP06*%
X162802800Y-90093800D03*
%TO.P,U2,12,B7*%
%TO.N,/GPIOT_RXN06*%
X163202800Y-90093800D03*
%TO.P,U2,13,B6*%
%TO.N,/GPIOT_RXN01*%
X163602800Y-90093800D03*
%TO.P,U2,14,B5*%
%TO.N,/GPIOT_RXP01*%
X164002800Y-90093800D03*
%TO.P,U2,15,GND*%
%TO.N,GND*%
X164402800Y-90093800D03*
%TO.P,U2,16,VCCB*%
%TO.N,3.3V*%
X164802800Y-90093800D03*
%TO.P,U2,17,B4*%
%TO.N,/GPIOT_RXP05*%
X165202800Y-90093800D03*
%TO.P,U2,18,B3*%
%TO.N,/GPIOT_RXN05*%
X165602800Y-90093800D03*
%TO.P,U2,19,B2*%
%TO.N,/GPIOT_RXN20*%
X166002800Y-90093800D03*
%TO.P,U2,20,B1*%
%TO.N,/GPIOT_RXP20*%
X166402800Y-90093800D03*
%TD*%
D11*
%TO.P,C1,1,1*%
%TO.N,/NETR13_2*%
X158765360Y-119787425D03*
%TO.P,C1,2,2*%
%TO.N,/NETL2_1*%
X158765360Y-118453415D03*
%TD*%
D14*
%TO.P,J13,1,1*%
%TO.N,VCCB_4*%
X210695328Y-70256400D03*
%TO.P,J13,2,2*%
%TO.N,GND*%
X210695328Y-72796400D03*
%TO.P,J13,3,3*%
%TO.N,/GPIOB__TXN05*%
X210695328Y-75336400D03*
%TO.P,J13,4,4*%
%TO.N,/GPIOB__TXP05*%
X210695328Y-77876400D03*
%TO.P,J13,5,4*%
%TO.N,/GPIOB__TXP03*%
X210695328Y-80416400D03*
%TO.P,J13,6,6*%
%TO.N,/GPIOB__TXN03*%
X210695328Y-82956400D03*
%TD*%
%TO.P,J16,1,1*%
%TO.N,VCCB_3*%
X219037816Y-93929200D03*
%TO.P,J16,2,2*%
%TO.N,GND*%
X219037816Y-96469200D03*
%TO.P,J16,3,3*%
%TO.N,/GPIOB__TXN11*%
X219037816Y-99009200D03*
%TO.P,J16,4,4*%
%TO.N,/GPIOB__TXP11*%
X219037816Y-101549200D03*
%TO.P,J16,5,4*%
%TO.N,/GPIOB__TXP15*%
X219037816Y-104089200D03*
%TO.P,J16,6,6*%
%TO.N,/GPIOB__TXN15*%
X219037816Y-106629200D03*
%TD*%
%TO.P,J2,1,1*%
%TO.N,VCCB_1*%
X168982888Y-93929200D03*
%TO.P,J2,2,2*%
%TO.N,GND*%
X168982888Y-96469200D03*
%TO.P,J2,3,3*%
%TO.N,/GPIOT__RXN21*%
X168982888Y-99009200D03*
%TO.P,J2,4,4*%
%TO.N,/GPIOT__RXP21*%
X168982888Y-101549200D03*
%TO.P,J2,5,4*%
%TO.N,/GPIOT__RXP18*%
X168982888Y-104089200D03*
%TO.P,J2,6,6*%
%TO.N,/GPIOT__RXN18*%
X168982888Y-106629200D03*
%TD*%
D25*
%TO.P,J23,1*%
%TO.N,VCC12V_DCIN*%
X226568000Y-130063800D03*
%TO.P,J23,2*%
%TO.N,GND*%
X232768000Y-130063800D03*
D26*
%TO.P,J23,3*%
X229568000Y-125263800D03*
%TD*%
D12*
%TO.P,R18,1*%
%TO.N,1.8V*%
X180029240Y-132588000D03*
%TO.P,R18,2*%
%TO.N,/NETR18_1*%
X179029240Y-132588000D03*
%TD*%
D10*
%TO.P,R8,1*%
%TO.N,3.3V*%
X217678000Y-110134400D03*
%TO.P,R8,2*%
%TO.N,/Net8_2*%
X217678000Y-111134400D03*
%TD*%
D14*
%TO.P,J3,1,1*%
%TO.N,VCCB_2*%
X160640400Y-70256400D03*
%TO.P,J3,2,2*%
%TO.N,GND*%
X160640400Y-72796400D03*
%TO.P,J3,3,3*%
%TO.N,/GPIOT__RXP06*%
X160640400Y-75336400D03*
%TO.P,J3,4,4*%
%TO.N,/GPIOT__RXN06*%
X160640400Y-77876400D03*
%TO.P,J3,5,4*%
%TO.N,/GPIOT__RXN01*%
X160640400Y-80416400D03*
%TO.P,J3,6,6*%
%TO.N,/GPIOT__RXP01*%
X160640400Y-82956400D03*
%TD*%
D24*
%TO.P,U13,1,EN*%
%TO.N,5V*%
X177886400Y-127037595D03*
%TO.P,U13,2,GND*%
%TO.N,GND*%
X176936400Y-127037595D03*
%TO.P,U13,3,LX*%
%TO.N,/NETL3_1*%
X175986400Y-127037595D03*
%TO.P,U13,4,VIN*%
%TO.N,5V*%
X175986400Y-129547595D03*
%TO.P,U13,5,FB*%
%TO.N,/NETR18_1*%
X177886400Y-129547595D03*
%TD*%
D13*
%TO.P,U3,1,A1*%
%TO.N,/GPIOT__RXN07*%
X183096200Y-111966600D03*
%TO.P,U3,2,A2*%
%TO.N,/GPIOT__RXP07*%
X182696200Y-111966600D03*
%TO.P,U3,3,A3*%
%TO.N,/GPIOT__RXN04*%
X182296200Y-111966600D03*
%TO.P,U3,4,A4*%
%TO.N,/GPIOT__RXP04*%
X181896200Y-111966600D03*
%TO.P,U3,5,VCCA*%
%TO.N,VCCB_1*%
X181496200Y-111966600D03*
%TO.P,U3,6,OE*%
%TO.N,/NetR3_2*%
X181096200Y-111966600D03*
%TO.P,U3,7,A5*%
%TO.N,/GPIOT__RXN02*%
X180696200Y-111966600D03*
%TO.P,U3,8,A6*%
%TO.N,/GPIOT__RXP02*%
X180296200Y-111966600D03*
%TO.P,U3,9,A7*%
%TO.N,/GPIOT__RXN19*%
X179896200Y-111966600D03*
%TO.P,U3,10,A8*%
%TO.N,/GPIOT__RXP19*%
X179496200Y-111966600D03*
%TO.P,U3,11,B8*%
%TO.N,/GPIOT_RXP19*%
X179496200Y-113766600D03*
%TO.P,U3,12,B7*%
%TO.N,/GPIOT_RXN19*%
X179896200Y-113766600D03*
%TO.P,U3,13,B6*%
%TO.N,/GPIOT_RXP02*%
X180296200Y-113766600D03*
%TO.P,U3,14,B5*%
%TO.N,/GPIOT_RXN02*%
X180696200Y-113766600D03*
%TO.P,U3,15,GND*%
%TO.N,GND*%
X181096200Y-113766600D03*
%TO.P,U3,16,VCCB*%
%TO.N,3.3V*%
X181496200Y-113766600D03*
%TO.P,U3,17,B4*%
%TO.N,/GPIOT_RXP04*%
X181896200Y-113766600D03*
%TO.P,U3,18,B3*%
%TO.N,/GPIOT_RXN04*%
X182296200Y-113766600D03*
%TO.P,U3,19,B2*%
%TO.N,/GPIOT_RXP07*%
X182696200Y-113766600D03*
%TO.P,U3,20,B1*%
%TO.N,/GPIOT_RXN07*%
X183096200Y-113766600D03*
%TD*%
D11*
%TO.P,C16,1,1*%
%TO.N,5V*%
X175524930Y-134194685D03*
%TO.P,C16,2,2*%
%TO.N,GND*%
X176858940Y-134194685D03*
%TD*%
D14*
%TO.P,J9,1,1*%
%TO.N,VCCB_3*%
X194010352Y-93929200D03*
%TO.P,J9,2,2*%
%TO.N,GND*%
X194010352Y-96469200D03*
%TO.P,J9,3,3*%
%TO.N,/GPIOT__RXP12*%
X194010352Y-99009200D03*
%TO.P,J9,4,4*%
%TO.N,/GPIOT__RXN12*%
X194010352Y-101549200D03*
%TO.P,J9,5,4*%
%TO.N,/GPIOT__RXP14*%
X194010352Y-104089200D03*
%TO.P,J9,6,6*%
%TO.N,/GPIOT__RXN14*%
X194010352Y-106629200D03*
%TD*%
D15*
%TO.P,L3,1,1*%
%TO.N,/NETL3_1*%
X176044400Y-123367800D03*
%TO.P,L3,2,2*%
%TO.N,1.8V*%
X178844400Y-123367800D03*
%TD*%
D18*
%TO.P,C10,1*%
%TO.N,VCC12V_DCIN*%
X159135800Y-127043315D03*
%TO.P,C10,2*%
%TO.N,GND*%
X161005800Y-127043315D03*
%TD*%
D14*
%TO.P,J15,1,1*%
%TO.N,VCCB_3*%
X210695328Y-93929200D03*
%TO.P,J15,2,2*%
%TO.N,GND*%
X210695328Y-96469200D03*
%TO.P,J15,3,3*%
%TO.N,/GPIOB__TXN08*%
X210695328Y-99009200D03*
%TO.P,J15,4,4*%
%TO.N,/GPIOB__TXP08*%
X210695328Y-101549200D03*
%TO.P,J15,5,4*%
%TO.N,/GPIOB__TXP07*%
X210695328Y-104089200D03*
%TO.P,J15,6,6*%
%TO.N,/GPIOB__TXN07*%
X210695328Y-106629200D03*
%TD*%
D11*
%TO.P,C8,1*%
%TO.N,3.3V*%
X174167160Y-123808285D03*
%TO.P,C8,2*%
%TO.N,GND*%
X174167160Y-122474275D03*
%TD*%
D14*
%TO.P,J5,1,1*%
%TO.N,VCCB_1*%
X177325376Y-93929200D03*
%TO.P,J5,2,2*%
%TO.N,GND*%
X177325376Y-96469200D03*
%TO.P,J5,3,3*%
%TO.N,/GPIOT__RXP19*%
X177325376Y-99009200D03*
%TO.P,J5,4,4*%
%TO.N,/GPIOT__RXN19*%
X177325376Y-101549200D03*
%TO.P,J5,5,4*%
%TO.N,/GPIOT__RXP02*%
X177325376Y-104089200D03*
%TO.P,J5,6,6*%
%TO.N,/GPIOT__RXN02*%
X177325376Y-106629200D03*
%TD*%
D13*
%TO.P,U1,1,A1*%
%TO.N,/GPIOT__RXN18*%
X166402800Y-111966600D03*
%TO.P,U1,2,A2*%
%TO.N,/GPIOT__RXP18*%
X166002800Y-111966600D03*
%TO.P,U1,3,A3*%
%TO.N,/GPIOT__RXP21*%
X165602800Y-111966600D03*
%TO.P,U1,4,A4*%
%TO.N,/GPIOT__RXN21*%
X165202800Y-111966600D03*
%TO.P,U1,5,VCCA*%
%TO.N,VCCB_1*%
X164802800Y-111966600D03*
%TO.P,U1,6,OE*%
%TO.N,/NetR1_2*%
X164402800Y-111966600D03*
%TO.P,U1,7,A5*%
%TO.N,/GPIOT__RXN08*%
X164002800Y-111966600D03*
%TO.P,U1,8,A6*%
%TO.N,/GPIOT__RXP08*%
X163602800Y-111966600D03*
%TO.P,U1,9,A7*%
%TO.N,/GPIOT__RXN03*%
X163202800Y-111966600D03*
%TO.P,U1,10,A8*%
%TO.N,/GPIOT__RXP03*%
X162802800Y-111966600D03*
%TO.P,U1,11,B8*%
%TO.N,/GPIOT_RXP03*%
X162802800Y-113766600D03*
%TO.P,U1,12,B7*%
%TO.N,/GPIOT_RXN03*%
X163202800Y-113766600D03*
%TO.P,U1,13,B6*%
%TO.N,/GPIOT_RXP08*%
X163602800Y-113766600D03*
%TO.P,U1,14,B5*%
%TO.N,/GPIOT_RXN08*%
X164002800Y-113766600D03*
%TO.P,U1,15,GND*%
%TO.N,GND*%
X164402800Y-113766600D03*
%TO.P,U1,16,VCCB*%
%TO.N,3.3V*%
X164802800Y-113766600D03*
%TO.P,U1,17,B4*%
%TO.N,/GPIOT_RXN21*%
X165202800Y-113766600D03*
%TO.P,U1,18,B3*%
%TO.N,/GPIOT_RXP21*%
X165602800Y-113766600D03*
%TO.P,U1,19,B2*%
%TO.N,/GPIOT_RXP18*%
X166002800Y-113766600D03*
%TO.P,U1,20,B1*%
%TO.N,/GPIOT_RXN18*%
X166402800Y-113766600D03*
%TD*%
D11*
%TO.P,C3,1,1*%
%TO.N,5V*%
X168596910Y-132697955D03*
%TO.P,C3,2,2*%
%TO.N,GND*%
X169930920Y-132697955D03*
%TD*%
%TO.P,C18,1,1*%
%TO.N,5V*%
X175524930Y-131197570D03*
%TO.P,C18,2,2*%
%TO.N,GND*%
X176858940Y-131197570D03*
%TD*%
D16*
%TO.P,JM3,1,1*%
%TO.N,3.3V*%
X201015600Y-111836200D03*
%TO.P,JM3,2,2*%
%TO.N,VCCB_3*%
X203555600Y-111836200D03*
%TO.P,JM3,3,3*%
%TO.N,1.8V*%
X206095600Y-111836200D03*
%TD*%
%TO.P,JM4,1,1*%
%TO.N,3.3V*%
X201015600Y-88595200D03*
%TO.P,JM4,2,2*%
%TO.N,VCCB_4*%
X203555600Y-88595200D03*
%TO.P,JM4,3,3*%
%TO.N,1.8V*%
X206095600Y-88595200D03*
%TD*%
D12*
%TO.P,R22,1*%
%TO.N,Net-(U14-ST)*%
X164871400Y-134467600D03*
%TO.P,R22,2*%
%TO.N,5V*%
X165871400Y-134467600D03*
%TD*%
D14*
%TO.P,J12,1,1*%
%TO.N,VCCB_4*%
X202352840Y-70256400D03*
%TO.P,J12,2,2*%
%TO.N,GND*%
X202352840Y-72796400D03*
%TO.P,J12,3,3*%
%TO.N,/GPIOB__TXN00*%
X202352840Y-75336400D03*
%TO.P,J12,4,4*%
%TO.N,/GPIOB__TXP00*%
X202352840Y-77876400D03*
%TO.P,J12,5,4*%
%TO.N,/GPIOB__TXN01*%
X202352840Y-80416400D03*
%TO.P,J12,6,6*%
%TO.N,/GPIOB__TXP01*%
X202352840Y-82956400D03*
%TD*%
D18*
%TO.P,C11,1*%
%TO.N,5V_1*%
X165273000Y-124123596D03*
%TO.P,C11,2*%
%TO.N,GND*%
X163403000Y-124123596D03*
%TD*%
D27*
%TO.N,5V*%
X170809040Y-128312010D03*
X172161200Y-136169400D03*
X175437800Y-133477000D03*
X177850800Y-128270000D03*
X172161200Y-135153400D03*
X175437800Y-130479800D03*
X173177200Y-136169400D03*
X171145200Y-135153400D03*
X173177200Y-135153400D03*
X175463200Y-131978400D03*
X171145200Y-136169400D03*
%TO.N,3.3V*%
X190042800Y-111607600D03*
X168300400Y-111353600D03*
X231495600Y-115824000D03*
X164769800Y-91313000D03*
X173770800Y-125495395D03*
X235331000Y-90576400D03*
X218643200Y-110134400D03*
X185166000Y-111709200D03*
X173770800Y-124479395D03*
X235313800Y-111755300D03*
X196672200Y-115722400D03*
X182549800Y-115570000D03*
X185191400Y-90627200D03*
X214884000Y-91059000D03*
X172754800Y-125495395D03*
X218541600Y-90601800D03*
X181406800Y-91236800D03*
X171738800Y-125495395D03*
X165100000Y-115468400D03*
X212928200Y-115925600D03*
X167970200Y-90297000D03*
X195935600Y-91236800D03*
X172754800Y-126511395D03*
X173770800Y-126511395D03*
X231546400Y-91084400D03*
X190042800Y-90500200D03*
X171738800Y-126511395D03*
%TO.N,VCC12V_DCIN*%
X158089600Y-131216400D03*
X156438600Y-118364000D03*
X158089600Y-134264400D03*
X157073600Y-133248400D03*
X159135800Y-128313315D03*
X157073600Y-134264400D03*
X157073600Y-131216400D03*
X157073600Y-132232400D03*
X158089600Y-132232400D03*
X158089600Y-133248400D03*
%TO.N,1.8V*%
X178866800Y-125497180D03*
X178866800Y-126513180D03*
X180187600Y-126513180D03*
X181457600Y-125497180D03*
X180187600Y-125497180D03*
X181457600Y-126513180D03*
%TO.N,VCCB_1*%
X181330600Y-110769400D03*
X164566600Y-110566200D03*
%TO.N,GND*%
X217347800Y-132232400D03*
X162204400Y-127355600D03*
X194360800Y-132232400D03*
X178612800Y-112852200D03*
X212547200Y-132232400D03*
X161620200Y-134264400D03*
X180365400Y-128621380D03*
X191566800Y-136347200D03*
X174142400Y-121513600D03*
X214223600Y-89179400D03*
X181305200Y-107899200D03*
X171027600Y-131337395D03*
X163830000Y-89154000D03*
X195173600Y-136347200D03*
X161620200Y-131216400D03*
X161620200Y-132232400D03*
X176834800Y-136169400D03*
X211353400Y-132232400D03*
X215747600Y-136347200D03*
X195808600Y-89230200D03*
X173755440Y-129658210D03*
X171027600Y-134385395D03*
X169951400Y-133426200D03*
X230568500Y-115887500D03*
X163423600Y-127050800D03*
X162229800Y-126136400D03*
X209753200Y-136347200D03*
X182499000Y-125450600D03*
X196342000Y-136347200D03*
X164566600Y-107899200D03*
X181305200Y-93497400D03*
X230860600Y-112877600D03*
X210540600Y-112877600D03*
X171027600Y-132353395D03*
X172231440Y-129632810D03*
X190754000Y-132232400D03*
X164490400Y-93370400D03*
X177850800Y-133371180D03*
X193954400Y-136347200D03*
X163449000Y-125095000D03*
X198780400Y-136347200D03*
X218541600Y-132232400D03*
X162636200Y-136144000D03*
X161620200Y-135280400D03*
X162636200Y-135280400D03*
X220573600Y-136347200D03*
X214934800Y-132232400D03*
X191973200Y-132232400D03*
X214528400Y-136347200D03*
X173024800Y-128651000D03*
X189153800Y-136347200D03*
X173262800Y-133420195D03*
X208127600Y-133070600D03*
X193167000Y-132232400D03*
X197586600Y-136347200D03*
X210947000Y-136347200D03*
X213360000Y-136347200D03*
X190373000Y-136347200D03*
X169824400Y-129768600D03*
X216941400Y-136347200D03*
X219329000Y-136347200D03*
X164211000Y-112903000D03*
X231292400Y-93268800D03*
X218135200Y-136347200D03*
X187960000Y-136347200D03*
X180136800Y-133396580D03*
X162204400Y-128574800D03*
X213741000Y-132232400D03*
X216154000Y-132232400D03*
X167513000Y-133477000D03*
X197154800Y-84734400D03*
X162204400Y-129794000D03*
X231292400Y-84048600D03*
X156565600Y-126314200D03*
X180517800Y-89179400D03*
X196545200Y-93065600D03*
X177850800Y-134387180D03*
X219735400Y-132232400D03*
X176885600Y-128346200D03*
X231292400Y-107899200D03*
X181610000Y-115646200D03*
X176885600Y-130352800D03*
X181305200Y-83972400D03*
X161620200Y-136144000D03*
X195910200Y-112903000D03*
X166700200Y-134213600D03*
X196773800Y-132232400D03*
X177850800Y-131339180D03*
X179578000Y-129659995D03*
X210134200Y-132232400D03*
X214655400Y-84099400D03*
X188366400Y-132232400D03*
X213410800Y-108305600D03*
X181127400Y-129659995D03*
X230809800Y-89204800D03*
X197154800Y-108305600D03*
X156565600Y-124282200D03*
X214655400Y-92964000D03*
X189560200Y-132232400D03*
X169799000Y-125806200D03*
X186436000Y-133121400D03*
X163449000Y-129057400D03*
X192760600Y-136347200D03*
X177850800Y-132355180D03*
X197967600Y-132232400D03*
X195681600Y-115646200D03*
X156565600Y-125298200D03*
X211988400Y-115824000D03*
X171027600Y-133369395D03*
X164465000Y-84074000D03*
X176834800Y-135153400D03*
X164134800Y-135890000D03*
X164477700Y-115735100D03*
X212166200Y-136347200D03*
X195554600Y-132232400D03*
X161620200Y-133248400D03*
%TO.N,VCCB_2*%
X164592000Y-87172800D03*
X181279800Y-87274400D03*
%TO.N,VCCB_3*%
X211988400Y-110744000D03*
X195656200Y-110769400D03*
%TO.N,VCCB_4*%
X214630000Y-87172800D03*
X195732400Y-87172800D03*
%TO.N,VCCB_5*%
X231292400Y-110794800D03*
X231495600Y-87071200D03*
D28*
%TO.N,/GPIOT_RXP05*%
X165303200Y-95504000D03*
D27*
%TO.N,/GPIOT_RXP03*%
X187166400Y-134970102D03*
%TO.N,/GPIOT_RXP21*%
X189992000Y-133832600D03*
%TO.N,/GPIOT_RXP02*%
X193167000Y-134970102D03*
%TO.N,/GPIOT_RXP08*%
X188366400Y-134970102D03*
%TO.N,/GPIOT_RXN04*%
X194818000Y-133832600D03*
%TO.N,/GPIOT_RXN18*%
X191211200Y-133832600D03*
D28*
%TO.N,/GPIOT_RXP06*%
X162775900Y-92163900D03*
%TO.N,/GPIOT_RXN17*%
X182716766Y-93591335D03*
D27*
%TO.N,/GPIOT_RXN03*%
X187604400Y-133832600D03*
D28*
%TO.N,/GPIOT_RXN01*%
X163550600Y-94513400D03*
D27*
%TO.N,/GPIOT_RXP14*%
X198348600Y-131241800D03*
%TO.N,/GPIOT_RXN21*%
X189560200Y-134970102D03*
%TO.N,/GPIOT_RXP18*%
X190767844Y-134970102D03*
%TO.N,/GPIOT_RXN12*%
X197561200Y-130175000D03*
%TO.N,/GPIOT_RXN08*%
X188798200Y-133832600D03*
D28*
%TO.N,/GPIOT_RXP17*%
X183152745Y-92259455D03*
%TO.N,/GPIOT_RXP20*%
X166446200Y-92329000D03*
%TO.N,/GPIOT_RXN06*%
X163144200Y-93446600D03*
D27*
%TO.N,/GPIOT_RXN14*%
X198780400Y-130225800D03*
D28*
%TO.N,/GPIOT_RXP09*%
X181885366Y-95681800D03*
D27*
%TO.N,/GPIOT_RXP13*%
X197967600Y-134970102D03*
D28*
%TO.N,/GPIOT_RXN05*%
X165633400Y-94437200D03*
D27*
%TO.N,/GPIOT_RXN02*%
X193598800Y-133832600D03*
D28*
%TO.N,/GPIOT_RXN09*%
X182316766Y-94607335D03*
%TO.N,/GPIOT_RXN16*%
X180767766Y-95681800D03*
D27*
%TO.N,/GPIOT_RXP07*%
X195554600Y-134970102D03*
%TO.N,/GPIOT_RXN19*%
X192405000Y-133832600D03*
D28*
%TO.N,/GPIOT_RXP16*%
X180316096Y-94607335D03*
%TO.N,/GPIOT_RXP15*%
X179496200Y-92176600D03*
%TO.N,/GPIOT_RXN20*%
X166116000Y-93395800D03*
%TO.N,/GPIOT_RXN15*%
X179916096Y-93319600D03*
D27*
%TO.N,/GPIOT_RXN11*%
X197205600Y-133832600D03*
%TO.N,/GPIOT_RXP12*%
X197154800Y-131241800D03*
%TO.N,/GPIOT_RXP19*%
X191947800Y-134970102D03*
%TO.N,/GPIOT_RXN07*%
X196062600Y-133832600D03*
%TO.N,/GPIOT_RXN13*%
X198424800Y-133832600D03*
%TO.N,/GPIOT_RXP04*%
X194360800Y-134970102D03*
D28*
%TO.N,/GPIOT_RXP01*%
X163957000Y-95580200D03*
D27*
%TO.N,/GPIOT_RXP11*%
X196766400Y-134970102D03*
D28*
%TO.N,/GPIOB_TXN06*%
X216160670Y-93615000D03*
D27*
%TO.N,/GPIOB_TXP01*%
X212979000Y-133832600D03*
%TO.N,/GPIOB_TXP19*%
X219735400Y-134970102D03*
D28*
%TO.N,/GPIOB_TXP06*%
X216636600Y-92303600D03*
%TO.N,/GPIOB_TXP09*%
X229590600Y-92684600D03*
%TO.N,/GPIOB_TXP05*%
X213360000Y-93615000D03*
D27*
%TO.N,/GPIOB_TXN13*%
X208940400Y-134970102D03*
%TO.N,/GPIOB_TXP17*%
X219300000Y-130200000D03*
D28*
%TO.N,/GPIOB_TXP03*%
X213769870Y-94631000D03*
D27*
%TO.N,/GPIOB_TXN16*%
X220141800Y-131241800D03*
%TO.N,/GPIOB_TXP13*%
X209397600Y-133832600D03*
%TO.N,/GPIOB_TXN00*%
X211328000Y-134970102D03*
%TO.N,/GPIOB_TXN15*%
X217779600Y-133832600D03*
D28*
%TO.N,/GPIOB_TXN03*%
X214223600Y-95732600D03*
%TO.N,/GPIOB_TXN04*%
X215760670Y-94631000D03*
D27*
%TO.N,/GPIOB_TXN02*%
X210134200Y-134970102D03*
%TO.N,/GPIOB_TXP16*%
X220599000Y-130251200D03*
%TO.N,/GPIOB_TXP11*%
X216687400Y-133832600D03*
%TO.N,/GPIOB_TXN11*%
X216140234Y-134970102D03*
%TO.N,/GPIOB_TXP00*%
X211886800Y-133832600D03*
%TO.N,/GPIOB_TXN08*%
X213715600Y-134970102D03*
D28*
%TO.N,/GPIOB_TXP04*%
X215341200Y-95732600D03*
%TO.N,/GPIOB_TXP10*%
X230886000Y-96113600D03*
D27*
%TO.N,/GPIOB_TXN17*%
X218900000Y-131241800D03*
%TO.N,/GPIOB_TXP02*%
X210566000Y-133832600D03*
D28*
%TO.N,/GPIOB_TXN05*%
X212922200Y-92532200D03*
D27*
%TO.N,/GPIOB_TXP15*%
X217347800Y-134970102D03*
%TO.N,/GPIOB_TXP14*%
X218973400Y-133832600D03*
%TO.N,/GPIOB_TXN19*%
X220167200Y-133832600D03*
%TO.N,/GPIOB_TXP07*%
X214934800Y-134970102D03*
D28*
%TO.N,/GPIOB_TXN12*%
X233197400Y-92659200D03*
D27*
%TO.N,/GPIOB_TXP08*%
X214172800Y-133832600D03*
D28*
%TO.N,/GPIOB_TXN18*%
X231978200Y-96088200D03*
%TO.N,/GPIOB_TXP18*%
X232435400Y-94869000D03*
%TO.N,/GPIOB_TXP12*%
X232816400Y-93751400D03*
%TO.N,/GPIOB_TXN09*%
X230022400Y-93853000D03*
D27*
%TO.N,/GPIOB_TXN14*%
X218535872Y-134970102D03*
D28*
%TO.N,/GPIOB_TXN10*%
X230454200Y-94919800D03*
D27*
%TO.N,/GPIOB_TXN01*%
X212547200Y-134970102D03*
%TO.N,/GPIOB_TXN07*%
X215493600Y-133832600D03*
%TO.N,VCC5V*%
X157607000Y-107716320D03*
X157607000Y-110998000D03*
X157607000Y-94589600D03*
X157607000Y-101152960D03*
X164185600Y-131343400D03*
X157607000Y-104434640D03*
X157607000Y-97871280D03*
X164185600Y-133375400D03*
X164185600Y-132359400D03*
%TO.N,/NETR20_2*%
X167563800Y-131927600D03*
%TO.N,/NETR12_1*%
X162035717Y-125224898D03*
X158013400Y-120599200D03*
%TO.N,/NETR11_2*%
X156591000Y-119278400D03*
X158573600Y-125595515D03*
%TO.N,5V_1*%
X157331200Y-130073400D03*
X167360600Y-132486400D03*
X166446200Y-131089400D03*
%TD*%
D29*
%TO.N,5V*%
X177850800Y-128270000D02*
X177850800Y-127073195D01*
X170809040Y-127056490D02*
X170809040Y-128312010D01*
X177850800Y-127073195D02*
X177886400Y-127037595D01*
D30*
%TO.N,3.3V*%
X164802800Y-91280000D02*
X164802800Y-90093800D01*
D31*
X231576400Y-91054400D02*
X231576400Y-90093800D01*
D29*
X174574200Y-127721195D02*
X174161205Y-127308200D01*
X167970200Y-89585800D02*
X167970200Y-90297000D01*
D31*
X195878400Y-91179600D02*
X195878400Y-90093800D01*
D29*
X174161205Y-127308200D02*
X173780840Y-127308200D01*
X235313800Y-112674400D02*
X235313800Y-111755300D01*
X173294205Y-131134195D02*
X173913800Y-131134195D01*
D30*
X164769800Y-91313000D02*
X164802800Y-91280000D01*
D31*
X196672200Y-115722400D02*
X195878400Y-114928600D01*
X231546400Y-91084400D02*
X231576400Y-91054400D01*
X181496200Y-91147400D02*
X181496200Y-90093800D01*
D29*
X173262800Y-132588000D02*
X173262800Y-131165600D01*
X173913800Y-131134195D02*
X174574200Y-130473795D01*
X185178700Y-90614500D02*
X185178700Y-89611200D01*
D31*
X212928200Y-115925600D02*
X212179000Y-115176400D01*
D29*
X190042800Y-90500200D02*
X190042800Y-89585800D01*
D31*
X212179000Y-115176400D02*
X212179000Y-113766600D01*
X181496200Y-114516400D02*
X181496200Y-113766600D01*
D29*
X185178700Y-111721900D02*
X185166000Y-111709200D01*
D31*
X182549800Y-115570000D02*
X181496200Y-114516400D01*
X164802800Y-113766600D02*
X164802800Y-115171200D01*
D29*
X173262800Y-131165600D02*
X173294205Y-131134195D01*
D31*
X195935600Y-91236800D02*
X195878400Y-91179600D01*
D29*
X218516200Y-90576400D02*
X218541600Y-90601800D01*
X185178700Y-112649000D02*
X185178700Y-111721900D01*
X190042800Y-111607600D02*
X190042800Y-112674400D01*
D31*
X214922200Y-91020800D02*
X214922200Y-90093800D01*
D29*
X218516200Y-89611200D02*
X218516200Y-90576400D01*
D31*
X231576400Y-113766600D02*
X231576400Y-115743200D01*
D29*
X235313800Y-90559200D02*
X235331000Y-90576400D01*
D31*
X195878400Y-114928600D02*
X195878400Y-113766600D01*
X231576400Y-115743200D02*
X231495600Y-115824000D01*
D29*
X217678000Y-110134400D02*
X218643200Y-110134400D01*
X174574200Y-130473795D02*
X174574200Y-127721195D01*
X235313800Y-89611200D02*
X235313800Y-90559200D01*
X168300400Y-111353600D02*
X167970200Y-111683800D01*
D31*
X214884000Y-91059000D02*
X214922200Y-91020800D01*
D29*
X185191400Y-90627200D02*
X185178700Y-90614500D01*
X167970200Y-111683800D02*
X167970200Y-112674400D01*
D31*
X181406800Y-91236800D02*
X181496200Y-91147400D01*
X164802800Y-115171200D02*
X165100000Y-115468400D01*
D29*
%TO.N,VCC12V_DCIN*%
X156438600Y-118364000D02*
X156489400Y-118313200D01*
X159135800Y-128313315D02*
X159135800Y-129405515D01*
X156489400Y-118313200D02*
X157302200Y-118313200D01*
%TO.N,1.8V*%
X182143400Y-127732380D02*
X181721005Y-127309985D01*
X181191590Y-127309985D02*
X181113910Y-127232305D01*
X181721005Y-127309985D02*
X181191590Y-127309985D01*
X180029240Y-132530195D02*
X180029240Y-131167385D01*
X181578595Y-131167385D02*
X182143400Y-130602580D01*
X182143400Y-130602580D02*
X182143400Y-127732380D01*
X180029240Y-131167385D02*
X181578595Y-131167385D01*
D32*
%TO.N,/GPIOT__RXP03*%
X158838905Y-100810695D02*
X160640400Y-99009200D01*
X162802800Y-111966600D02*
X162802800Y-111428327D01*
X158838905Y-107464432D02*
X158838905Y-100810695D01*
X162802800Y-111428327D02*
X158838905Y-107464432D01*
D31*
%TO.N,VCCB_1*%
X181496200Y-111966600D02*
X181496200Y-110935000D01*
X164802800Y-110802400D02*
X164802800Y-111966600D01*
X164566600Y-110566200D02*
X164802800Y-110802400D01*
X181496200Y-110935000D02*
X181330600Y-110769400D01*
D32*
%TO.N,/GPIOT__RXP08*%
X159589221Y-105140379D02*
X160640400Y-104089200D01*
X163602800Y-111078192D02*
X159589221Y-107064613D01*
X163602800Y-111966600D02*
X163602800Y-111078192D01*
X159589221Y-107064613D02*
X159589221Y-105140379D01*
D31*
%TO.N,GND*%
X181096200Y-115132400D02*
X181096200Y-113766600D01*
X195478400Y-89560400D02*
X195808600Y-89230200D01*
X195478400Y-113063400D02*
X195638800Y-112903000D01*
X180517800Y-89179400D02*
X180788200Y-89179400D01*
X181610000Y-115646200D02*
X181096200Y-115132400D01*
X231176400Y-113766600D02*
X231176400Y-113193400D01*
X195478400Y-113766600D02*
X195478400Y-113063400D01*
X195478400Y-113766600D02*
X195478400Y-115443000D01*
X214522200Y-89478000D02*
X214223600Y-89179400D01*
X211593200Y-112877600D02*
X210540600Y-112877600D01*
X231176400Y-89571400D02*
X230809800Y-89204800D01*
X164477700Y-115735100D02*
X164402800Y-115660200D01*
X230568500Y-115887500D02*
X231176400Y-115279600D01*
D33*
X178612800Y-112852200D02*
X180834200Y-112852200D01*
D31*
X195478400Y-90093800D02*
X195478400Y-89560400D01*
X164402800Y-115660200D02*
X164402800Y-113766600D01*
X231176400Y-113193400D02*
X230860600Y-112877600D01*
X231176400Y-115279600D02*
X231176400Y-113766600D01*
X164166200Y-89154000D02*
X164402800Y-89390600D01*
X211779000Y-113063400D02*
X211593200Y-112877600D01*
X180788200Y-89179400D02*
X181096200Y-89487400D01*
X164211000Y-112903000D02*
X164402800Y-113094800D01*
X195638800Y-112903000D02*
X195910200Y-112903000D01*
D33*
X181096200Y-113114200D02*
X181096200Y-113766600D01*
D31*
X164862000Y-135890000D02*
X164134800Y-135890000D01*
X211779000Y-115614600D02*
X211988400Y-115824000D01*
X231176400Y-90093800D02*
X231176400Y-89571400D01*
X214522200Y-90093800D02*
X214522200Y-89478000D01*
D33*
X180834200Y-112852200D02*
X181096200Y-113114200D01*
D31*
X195478400Y-115443000D02*
X195681600Y-115646200D01*
X211779000Y-113766600D02*
X211779000Y-115614600D01*
X163830000Y-89154000D02*
X164166200Y-89154000D01*
X211779000Y-113766600D02*
X211779000Y-113063400D01*
X164402800Y-89390600D02*
X164402800Y-90093800D01*
X181096200Y-89487400D02*
X181096200Y-90093800D01*
X164402800Y-113094800D02*
X164402800Y-113766600D01*
D32*
%TO.N,/GPIOT__RXN03*%
X163202800Y-111966600D02*
X163202800Y-111297773D01*
X159214063Y-107309036D02*
X159214063Y-102975537D01*
X163202800Y-111297773D02*
X159214063Y-107309036D01*
X159214063Y-102975537D02*
X160640400Y-101549200D01*
%TO.N,/GPIOT__RXN08*%
X164002800Y-111966600D02*
X164002800Y-110840600D01*
X160640400Y-107478200D02*
X160640400Y-106629200D01*
X164002800Y-110840600D02*
X160640400Y-107478200D01*
%TO.N,/GPIOT__RXP21*%
X165602800Y-104929288D02*
X168982888Y-101549200D01*
X165602800Y-111966600D02*
X165602800Y-104929288D01*
%TO.N,/GPIOT__RXP18*%
X166002800Y-107069288D02*
X168982888Y-104089200D01*
X166002800Y-111966600D02*
X166002800Y-107069288D01*
%TO.N,/GPIOT__RXN18*%
X166402800Y-111966600D02*
X166402800Y-109209288D01*
X166402800Y-109209288D02*
X168982888Y-106629200D01*
%TO.N,/GPIOT__RXN21*%
X165202800Y-111966600D02*
X165202800Y-102789288D01*
X165202800Y-102789288D02*
X168982888Y-99009200D01*
%TO.N,/GPIOT__RXN06*%
X159137863Y-83547209D02*
X159137863Y-79378937D01*
X159137863Y-79378937D02*
X160640400Y-77876400D01*
X163202800Y-88293800D02*
X163202800Y-87612146D01*
X163202800Y-87612146D02*
X159137863Y-83547209D01*
D31*
%TO.N,VCCB_2*%
X181479800Y-88293800D02*
X181479800Y-87474400D01*
X164802800Y-87383600D02*
X164592000Y-87172800D01*
X181479800Y-87474400D02*
X181279800Y-87274400D01*
X164802800Y-88293800D02*
X164802800Y-87383600D01*
D32*
%TO.N,/GPIOT__RXN01*%
X159512000Y-81544800D02*
X160640400Y-80416400D01*
X163602800Y-88293800D02*
X163602800Y-87481592D01*
X163602800Y-87481592D02*
X159512000Y-83390792D01*
X159512000Y-83390792D02*
X159512000Y-81544800D01*
%TO.N,/GPIOT__RXP06*%
X158762705Y-77137895D02*
X160564200Y-75336400D01*
X162802800Y-87742700D02*
X158762705Y-83702605D01*
X162802800Y-88293800D02*
X162802800Y-87742700D01*
X158762705Y-83702605D02*
X158762705Y-77137895D01*
%TO.N,/GPIOT__RXP01*%
X160564200Y-83729200D02*
X160564200Y-82956400D01*
X164002800Y-88293800D02*
X164002800Y-87167800D01*
X164002800Y-87167800D02*
X160564200Y-83729200D01*
%TO.N,/GPIOT__RXP05*%
X165202800Y-79116488D02*
X168982888Y-75336400D01*
X165202800Y-88293800D02*
X165202800Y-79116488D01*
%TO.N,/GPIOT__RXN20*%
X166002800Y-83396488D02*
X168982888Y-80416400D01*
X166002800Y-88293800D02*
X166002800Y-83396488D01*
%TO.N,/GPIOT__RXP20*%
X166402800Y-88293800D02*
X166402800Y-85536488D01*
X166402800Y-85536488D02*
X168982888Y-82956400D01*
%TO.N,/GPIOT__RXN05*%
X165602800Y-88293800D02*
X165602800Y-81256488D01*
X165602800Y-81256488D02*
X168982888Y-77876400D01*
%TO.N,/GPIOT__RXP02*%
X176274197Y-107064613D02*
X176274197Y-105140379D01*
X180296200Y-111966600D02*
X180296200Y-111086616D01*
X176274197Y-105140379D02*
X177325376Y-104089200D01*
X180296200Y-111086616D02*
X176274197Y-107064613D01*
%TO.N,/GPIOT__RXN02*%
X180696200Y-111966600D02*
X180696200Y-110871600D01*
X177325376Y-107500776D02*
X177325376Y-106629200D01*
X180696200Y-110871600D02*
X177325376Y-107500776D01*
%TO.N,/GPIOT__RXN19*%
X179896200Y-111966600D02*
X179896200Y-111217170D01*
X175899039Y-107220009D02*
X175899039Y-102975537D01*
X175899039Y-102975537D02*
X177325376Y-101549200D01*
X179896200Y-111217170D02*
X175899039Y-107220009D01*
%TO.N,/GPIOT__RXP19*%
X175523881Y-107375405D02*
X175523881Y-100810695D01*
X179496200Y-111966600D02*
X179496200Y-111347724D01*
X175523881Y-100810695D02*
X177325376Y-99009200D01*
X179496200Y-111347724D02*
X175523881Y-107375405D01*
%TO.N,/GPIOT__RXP07*%
X182696200Y-111966600D02*
X182696200Y-107060864D01*
X182696200Y-107060864D02*
X185667864Y-104089200D01*
%TO.N,/GPIOT__RXN04*%
X182296200Y-111966600D02*
X182296200Y-104920864D01*
X182296200Y-104920864D02*
X185667864Y-101549200D01*
%TO.N,/GPIOT__RXN07*%
X183096200Y-111966600D02*
X183096200Y-109200864D01*
X183096200Y-109200864D02*
X185667864Y-106629200D01*
%TO.N,/GPIOT__RXP04*%
X181896200Y-111966600D02*
X181896200Y-102780864D01*
X181896200Y-102780864D02*
X185667864Y-99009200D01*
%TO.N,/GPIOT__RXP15*%
X179496200Y-87776800D02*
X175523881Y-83804481D01*
X175523881Y-77137895D02*
X177325376Y-75336400D01*
X179496200Y-88293800D02*
X179496200Y-87776800D01*
X175523881Y-83804481D02*
X175523881Y-77137895D01*
%TO.N,/GPIOT__RXN16*%
X177325376Y-83802576D02*
X177325376Y-82956400D01*
X180696200Y-87173400D02*
X177325376Y-83802576D01*
X180696200Y-88293800D02*
X180696200Y-87173400D01*
%TO.N,/GPIOT__RXN15*%
X175899039Y-79302737D02*
X177325376Y-77876400D01*
X175899039Y-83698324D02*
X175899039Y-79302737D01*
X179896200Y-88293800D02*
X179896200Y-87695485D01*
X179896200Y-87695485D02*
X175899039Y-83698324D01*
%TO.N,/GPIOT__RXP16*%
X176274197Y-83391813D02*
X176274197Y-81467579D01*
X180296200Y-87413816D02*
X176274197Y-83391813D01*
X176274197Y-81467579D02*
X177325376Y-80416400D01*
X180296200Y-88293800D02*
X180296200Y-87413816D01*
%TO.N,/GPIOT__RXP17*%
X183096200Y-85528064D02*
X185667864Y-82956400D01*
X183096200Y-88293800D02*
X183096200Y-85528064D01*
%TO.N,/GPIOT__RXN09*%
X182296200Y-81248064D02*
X185667864Y-77876400D01*
X182296200Y-88293800D02*
X182296200Y-81248064D01*
%TO.N,/GPIOT__RXP09*%
X181896200Y-88293800D02*
X181896200Y-79108064D01*
X181896200Y-79108064D02*
X185667864Y-75336400D01*
%TO.N,/GPIOT__RXN17*%
X182696200Y-88293800D02*
X182696200Y-83388064D01*
X182696200Y-83388064D02*
X185667864Y-80416400D01*
%TO.N,/GPIOT__RXN12*%
X192430400Y-103129152D02*
X194010352Y-101549200D01*
X194278400Y-111966600D02*
X194278400Y-109544000D01*
X194278400Y-109544000D02*
X192430400Y-107696000D01*
X192430400Y-107696000D02*
X192430400Y-103129152D01*
D31*
%TO.N,VCCB_3*%
X211988400Y-110744000D02*
X212179000Y-110934600D01*
X195878400Y-111966600D02*
X195878400Y-110991600D01*
X212179000Y-110934600D02*
X212179000Y-111966600D01*
X195878400Y-110991600D02*
X195656200Y-110769400D01*
D32*
%TO.N,/GPIOT__RXN14*%
X194589400Y-107208248D02*
X194010352Y-106629200D01*
X194589400Y-107873800D02*
X194589400Y-107208248D01*
X195078400Y-111966600D02*
X194943500Y-111831700D01*
X194943500Y-108227900D02*
X194589400Y-107873800D01*
X194943500Y-111831700D02*
X194943500Y-108227900D01*
%TO.N,/GPIOT__RXP14*%
X192836800Y-105262752D02*
X194010352Y-104089200D01*
X194678400Y-109334400D02*
X192836800Y-107492800D01*
X194678400Y-111966600D02*
X194678400Y-109334400D01*
X192836800Y-107492800D02*
X192836800Y-105262752D01*
%TO.N,/GPIOT__RXP12*%
X192055242Y-100964310D02*
X194010352Y-99009200D01*
X192055242Y-107930442D02*
X192055242Y-100964310D01*
X193878400Y-111966600D02*
X193878400Y-109753600D01*
X193878400Y-109753600D02*
X192055242Y-107930442D01*
%TO.N,/GPIOT__RXP11*%
X196278400Y-111966600D02*
X196278400Y-105083640D01*
X196278400Y-105083640D02*
X202352840Y-99009200D01*
%TO.N,/GPIOT__RXP13*%
X197478400Y-110826800D02*
X201676000Y-106629200D01*
X201676000Y-106629200D02*
X202352840Y-106629200D01*
X197478400Y-111966600D02*
X197478400Y-110826800D01*
%TO.N,/GPIOT__RXN13*%
X197078400Y-109363640D02*
X202352840Y-104089200D01*
X197078400Y-111966600D02*
X197078400Y-109363640D01*
%TO.N,/GPIOT__RXN11*%
X196678400Y-111966600D02*
X196678400Y-107223640D01*
X196678400Y-107223640D02*
X202352840Y-101549200D01*
%TO.N,/GPIOB__TXN13*%
X192024000Y-83921600D02*
X192024000Y-77322752D01*
X193878400Y-85776000D02*
X192024000Y-83921600D01*
X192024000Y-77322752D02*
X194010352Y-75336400D01*
X193878400Y-88293800D02*
X193878400Y-85776000D01*
D31*
%TO.N,VCCB_4*%
X195878400Y-87318800D02*
X195732400Y-87172800D01*
X214922200Y-87465000D02*
X214630000Y-87172800D01*
X195878400Y-88293800D02*
X195878400Y-87318800D01*
X214922200Y-88293800D02*
X214922200Y-87465000D01*
D32*
%TO.N,/GPIOB__TXN02*%
X194678400Y-88293800D02*
X194678400Y-85356800D01*
X192836800Y-81589952D02*
X194010352Y-80416400D01*
X194678400Y-85356800D02*
X192836800Y-83515200D01*
X192836800Y-83515200D02*
X192836800Y-81589952D01*
%TO.N,/GPIOB__TXP13*%
X194278400Y-85566400D02*
X192430400Y-83718400D01*
X192430400Y-79456352D02*
X194010352Y-77876400D01*
X192430400Y-83718400D02*
X192430400Y-79456352D01*
X194278400Y-88293800D02*
X194278400Y-85566400D01*
%TO.N,/GPIOB__TXP02*%
X195078400Y-88293800D02*
X195078400Y-84024448D01*
X195078400Y-84024448D02*
X194010352Y-82956400D01*
%TO.N,/GPIOB__TXN01*%
X197078400Y-85690840D02*
X202352840Y-80416400D01*
X197078400Y-88293800D02*
X197078400Y-85690840D01*
%TO.N,/GPIOB__TXP01*%
X197478400Y-88293800D02*
X197478400Y-87077800D01*
X197478400Y-87077800D02*
X201599800Y-82956400D01*
X201599800Y-82956400D02*
X202352840Y-82956400D01*
%TO.N,/GPIOB__TXN00*%
X196278400Y-88293800D02*
X196278400Y-81410840D01*
X196278400Y-81410840D02*
X202352840Y-75336400D01*
%TO.N,/GPIOB__TXP00*%
X196678400Y-83550840D02*
X202352840Y-77876400D01*
X196678400Y-88293800D02*
X196678400Y-83550840D01*
%TO.N,/GPIOB__TXN05*%
X208280000Y-77751728D02*
X210695328Y-75336400D01*
X212922200Y-87776400D02*
X208280000Y-83134200D01*
X212922200Y-88268400D02*
X212922200Y-87776400D01*
X208280000Y-83134200D02*
X208280000Y-77751728D01*
%TO.N,/GPIOB__TXN03*%
X214122200Y-86383272D02*
X210695328Y-82956400D01*
X214122200Y-88268400D02*
X214122200Y-86383272D01*
%TO.N,/GPIOB__TXP03*%
X213722200Y-87348271D02*
X209499200Y-83125271D01*
X209499200Y-81612528D02*
X210695328Y-80416400D01*
X213722200Y-88268400D02*
X213722200Y-87348271D01*
X209499200Y-83125271D02*
X209499200Y-81612528D01*
%TO.N,/GPIOB__TXP05*%
X208889600Y-79682128D02*
X210695328Y-77876400D01*
X208889600Y-83312000D02*
X208889600Y-79682128D01*
X213322200Y-87744600D02*
X208889600Y-83312000D01*
X213322200Y-88268400D02*
X213322200Y-87744600D01*
%TO.N,/GPIOB__TXN04*%
X215722200Y-81192016D02*
X219037816Y-77876400D01*
X215722200Y-88268400D02*
X215722200Y-81192016D01*
%TO.N,/GPIOB__TXN06*%
X216122200Y-88268400D02*
X216122200Y-83332016D01*
X216122200Y-83332016D02*
X219037816Y-80416400D01*
%TO.N,/GPIOB__TXP04*%
X215322200Y-79052016D02*
X219037816Y-75336400D01*
X215322200Y-88268400D02*
X215322200Y-79052016D01*
%TO.N,/GPIOB__TXP06*%
X216522200Y-85472016D02*
X219037816Y-82956400D01*
X216522200Y-88268400D02*
X216522200Y-85472016D01*
%TO.N,/GPIOB__TXP08*%
X210579000Y-111966600D02*
X210579000Y-108530018D01*
X209268991Y-102975537D02*
X210695328Y-101549200D01*
X210579000Y-108530018D02*
X209268991Y-107220009D01*
X209268991Y-107220009D02*
X209268991Y-102975537D01*
%TO.N,/GPIOB__TXP07*%
X210979000Y-108399464D02*
X209644149Y-107064613D01*
X209644149Y-105140379D02*
X210695328Y-104089200D01*
X209644149Y-107064613D02*
X209644149Y-105140379D01*
X210979000Y-111966600D02*
X210979000Y-108399464D01*
%TO.N,/GPIOB__TXN07*%
X210695328Y-106961728D02*
X210695328Y-106629200D01*
X211379000Y-107645400D02*
X210695328Y-106961728D01*
X211379000Y-111966600D02*
X211379000Y-107645400D01*
%TO.N,/GPIOB__TXN08*%
X210179000Y-108660572D02*
X208893833Y-107375405D01*
X210179000Y-111966600D02*
X210179000Y-108660572D01*
X208893833Y-100810695D02*
X210695328Y-99009200D01*
X208893833Y-107375405D02*
X208893833Y-100810695D01*
%TO.N,/GPIOB__TXN11*%
X212579000Y-111966600D02*
X212579000Y-105468016D01*
X212579000Y-105468016D02*
X219037816Y-99009200D01*
%TO.N,/GPIOB__TXN15*%
X218694000Y-106629200D02*
X219037816Y-106629200D01*
X213779000Y-111544200D02*
X218694000Y-106629200D01*
X213779000Y-111966600D02*
X213779000Y-111544200D01*
%TO.N,/GPIOB__TXP15*%
X213379000Y-111966600D02*
X213379000Y-109748016D01*
X213379000Y-109748016D02*
X219037816Y-104089200D01*
%TO.N,/GPIOB__TXP11*%
X212979000Y-107608016D02*
X219037816Y-101549200D01*
X212979000Y-111966600D02*
X212979000Y-107608016D01*
%TO.N,/GPIOB__TXN09*%
X225755200Y-83133642D02*
X225755200Y-79501504D01*
X229976400Y-87354842D02*
X225755200Y-83133642D01*
X229976400Y-88293800D02*
X229976400Y-87354842D01*
X225755200Y-79501504D02*
X227380304Y-77876400D01*
D31*
%TO.N,VCCB_5*%
X231495600Y-87071200D02*
X231576400Y-87152000D01*
X231576400Y-87152000D02*
X231576400Y-88293800D01*
X231576400Y-111966600D02*
X231576400Y-111078800D01*
X231576400Y-111078800D02*
X231292400Y-110794800D01*
D32*
%TO.N,/GPIOB__TXP10*%
X230776400Y-88293800D02*
X230776400Y-87114000D01*
X227380304Y-83717904D02*
X227380304Y-82956400D01*
X230776400Y-87114000D02*
X227380304Y-83717904D01*
%TO.N,/GPIOB__TXN10*%
X226161600Y-83080604D02*
X226161600Y-81635104D01*
X226161600Y-81635104D02*
X227380304Y-80416400D01*
X230376400Y-87295404D02*
X226161600Y-83080604D01*
X230376400Y-88293800D02*
X230376400Y-87295404D01*
%TO.N,/GPIOB__TXP09*%
X229576400Y-88293800D02*
X229576400Y-87539600D01*
X225348800Y-83312000D02*
X225348800Y-77367904D01*
X229576400Y-87539600D02*
X225348800Y-83312000D01*
X225348800Y-77367904D02*
X227380304Y-75336400D01*
%TO.N,/GPIOB__TXN12*%
X233176400Y-88293800D02*
X233172000Y-88289400D01*
X233172000Y-88289400D02*
X233172000Y-85507200D01*
X233172000Y-85507200D02*
X235722800Y-82956400D01*
%TO.N,/GPIOB__TXP12*%
X232776400Y-88293800D02*
X232776400Y-83362800D01*
X232776400Y-83362800D02*
X235722800Y-80416400D01*
%TO.N,/GPIOB__TXP18*%
X232376400Y-81222800D02*
X235722800Y-77876400D01*
X232376400Y-88293800D02*
X232376400Y-81222800D01*
%TO.N,/GPIOB__TXN18*%
X231976400Y-88293800D02*
X231976400Y-79082800D01*
X231976400Y-79082800D02*
X235722800Y-75336400D01*
%TO.N,/GPIOB__TXP17*%
X225755200Y-103174304D02*
X227380304Y-101549200D01*
X229976400Y-111242442D02*
X225755200Y-107021242D01*
X225755200Y-107021242D02*
X225755200Y-103174304D01*
X229976400Y-111966600D02*
X229976400Y-111242442D01*
%TO.N,/GPIOB__TXN16*%
X226161600Y-106897088D02*
X226161600Y-105307904D01*
X230376400Y-111111888D02*
X226161600Y-106897088D01*
X226161600Y-105307904D02*
X227380304Y-104089200D01*
X230376400Y-111966600D02*
X230376400Y-111111888D01*
%TO.N,/GPIOB__TXN17*%
X229576400Y-111966600D02*
X229576400Y-111372996D01*
X225380042Y-101009462D02*
X227380304Y-99009200D01*
X229576400Y-111372996D02*
X225380042Y-107176638D01*
X225380042Y-107176638D02*
X225380042Y-101009462D01*
%TO.N,/GPIOB__TXP16*%
X230776400Y-110981334D02*
X227380304Y-107585238D01*
X230776400Y-111966600D02*
X230776400Y-110981334D01*
X227380304Y-107585238D02*
X227380304Y-106629200D01*
%TO.N,/GPIOB__TXN14*%
X231976400Y-102755600D02*
X235722800Y-99009200D01*
X231976400Y-111966600D02*
X231976400Y-102755600D01*
%TO.N,/GPIOB__TXP14*%
X232376400Y-111966600D02*
X232376400Y-104895600D01*
X232376400Y-104895600D02*
X235722800Y-101549200D01*
%TO.N,/GPIOB__TXN19*%
X232776400Y-111966600D02*
X232776400Y-107035600D01*
X232776400Y-107035600D02*
X235722800Y-104089200D01*
%TO.N,/GPIOB__TXP19*%
X233176400Y-109175600D02*
X235722800Y-106629200D01*
X233176400Y-111966600D02*
X233176400Y-109175600D01*
%TO.N,/GPIOT_RXP05*%
X165201600Y-95402400D02*
X165201600Y-90095000D01*
X165303200Y-95504000D02*
X165201600Y-95402400D01*
X165201600Y-90095000D02*
X165202800Y-90093800D01*
%TO.N,/GPIOT_RXP03*%
X166878000Y-120904000D02*
X162802800Y-116828800D01*
X187166400Y-126968400D02*
X181102000Y-120904000D01*
X162802800Y-116828800D02*
X162802800Y-113766600D01*
X187166400Y-134970102D02*
X187166400Y-126968400D01*
X181102000Y-120904000D02*
X166878000Y-120904000D01*
%TO.N,/GPIOT_RXP21*%
X189992000Y-133832600D02*
X190017400Y-133807200D01*
X183134000Y-118872000D02*
X169722800Y-118872000D01*
X165602800Y-114752000D02*
X165602800Y-113766600D01*
X190017400Y-133807200D02*
X190017400Y-125755400D01*
X190017400Y-125755400D02*
X183134000Y-118872000D01*
X169722800Y-118872000D02*
X165602800Y-114752000D01*
%TO.N,/GPIOT_RXP02*%
X193167000Y-133883990D02*
X192709800Y-133426790D01*
X186410600Y-116865400D02*
X181711600Y-116865400D01*
X192709800Y-123164600D02*
X186410600Y-116865400D01*
X192709800Y-133426790D02*
X192709800Y-123164600D01*
X193167000Y-134970102D02*
X193167000Y-133883990D01*
X181711600Y-116865400D02*
X180296200Y-115450000D01*
X180296200Y-115450000D02*
X180296200Y-113766600D01*
%TO.N,/GPIOT_RXP08*%
X187909200Y-133553790D02*
X187909200Y-126085600D01*
X163602800Y-116409600D02*
X163602800Y-113766600D01*
X188366400Y-134010990D02*
X187909200Y-133553790D01*
X181914800Y-120091200D02*
X167284400Y-120091200D01*
X187909200Y-126085600D02*
X181914800Y-120091200D01*
X167284400Y-120091200D02*
X163602800Y-116409600D01*
X188366400Y-134970102D02*
X188366400Y-134010990D01*
%TO.N,/GPIOT_RXN04*%
X194818000Y-122834400D02*
X187198000Y-115214400D01*
X182296200Y-114325800D02*
X182296200Y-113766600D01*
X183184800Y-115214400D02*
X182296200Y-114325800D01*
X187198000Y-115214400D02*
X183184800Y-115214400D01*
X194818000Y-133832600D02*
X194818000Y-122834400D01*
%TO.N,/GPIOT_RXN18*%
X191211200Y-133832600D02*
X191211200Y-125323600D01*
X183946800Y-118059200D02*
X170129200Y-118059200D01*
X170129200Y-118059200D02*
X166402800Y-114332800D01*
X191211200Y-125323600D02*
X183946800Y-118059200D01*
X166402800Y-114332800D02*
X166402800Y-113766600D01*
%TO.N,/GPIOT_RXP06*%
X162804125Y-90095125D02*
X162802800Y-90093800D01*
X162804125Y-92135675D02*
X162804125Y-90095125D01*
X162775900Y-92163900D02*
X162804125Y-92135675D01*
%TO.N,/GPIOT_RXN17*%
X182696540Y-93571109D02*
X182696540Y-90094140D01*
X182716766Y-93591335D02*
X182696540Y-93571109D01*
X182696540Y-90094140D02*
X182696200Y-90093800D01*
%TO.N,/GPIOT_RXN03*%
X187604400Y-133832600D02*
X187502800Y-133731000D01*
X187502800Y-133731000D02*
X187502800Y-126492000D01*
X163202800Y-116619200D02*
X163202800Y-113766600D01*
X187502800Y-126492000D02*
X181508400Y-120497600D01*
X167081200Y-120497600D02*
X163202800Y-116619200D01*
X181508400Y-120497600D02*
X167081200Y-120497600D01*
%TO.N,/GPIOT_RXN01*%
X163604195Y-90095195D02*
X163602800Y-90093800D01*
X163550600Y-94513400D02*
X163604195Y-94459805D01*
X163604195Y-94459805D02*
X163604195Y-90095195D01*
%TO.N,/GPIOT_RXP14*%
X198297800Y-131191000D02*
X198297800Y-120218200D01*
X194678400Y-116598800D02*
X194678400Y-113766600D01*
X198348600Y-131292600D02*
X198348600Y-131241800D01*
X198297800Y-120218200D02*
X194678400Y-116598800D01*
X198348600Y-131241800D02*
X198297800Y-131191000D01*
%TO.N,/GPIOT_RXN21*%
X189113668Y-125664468D02*
X182727600Y-119278400D01*
X189560200Y-134975600D02*
X189560200Y-134010990D01*
X189560200Y-134010990D02*
X189113668Y-133564458D01*
X189113668Y-133564458D02*
X189113668Y-125664468D01*
X169519600Y-119278400D02*
X165202800Y-114961600D01*
X182727600Y-119278400D02*
X169519600Y-119278400D01*
X165202800Y-114961600D02*
X165202800Y-113766600D01*
%TO.N,/GPIOT_RXP18*%
X183540400Y-118465600D02*
X169926000Y-118465600D01*
X190767844Y-134024834D02*
X190296800Y-133553790D01*
X190296800Y-125222000D02*
X183540400Y-118465600D01*
X169926000Y-118465600D02*
X166002800Y-114542400D01*
X190296800Y-133553790D02*
X190296800Y-125222000D01*
X166002800Y-114542400D02*
X166002800Y-113766600D01*
X190767844Y-134970102D02*
X190767844Y-134024834D01*
%TO.N,/GPIOT_RXN12*%
X197561200Y-130175000D02*
X197561200Y-120497600D01*
X197561200Y-120497600D02*
X194278400Y-117214800D01*
X194278400Y-117214800D02*
X194278400Y-113766600D01*
%TO.N,/GPIOT_RXN08*%
X188798200Y-133832600D02*
X188798200Y-126161800D01*
X167690800Y-119684800D02*
X164002800Y-115996800D01*
X164002800Y-115996800D02*
X164002800Y-113766600D01*
X188798200Y-126161800D02*
X182321200Y-119684800D01*
X182321200Y-119684800D02*
X167690800Y-119684800D01*
%TO.N,/GPIOT_RXP17*%
X183092577Y-92199287D02*
X183092577Y-90097423D01*
X183092577Y-90097423D02*
X183096200Y-90093800D01*
X183152745Y-92259455D02*
X183092577Y-92199287D01*
%TO.N,/GPIOT_RXP20*%
X166446200Y-92329000D02*
X166402800Y-92285600D01*
X166402800Y-92285600D02*
X166402800Y-90093800D01*
%TO.N,/GPIOT_RXN06*%
X163195000Y-93395800D02*
X163195000Y-90101600D01*
X163195000Y-90101600D02*
X163202800Y-90093800D01*
%TO.N,/GPIOT_RXN14*%
X195078400Y-115982800D02*
X195078400Y-113766600D01*
X198755000Y-130200400D02*
X198755000Y-119659400D01*
X198780400Y-130225800D02*
X198755000Y-130200400D01*
X198755000Y-119659400D02*
X195078400Y-115982800D01*
%TO.N,/GPIOT_RXP09*%
X181895983Y-95671183D02*
X181895983Y-90094017D01*
X181895983Y-90094017D02*
X181896200Y-90093800D01*
X181885366Y-95681800D02*
X181895983Y-95671183D01*
%TO.N,/GPIOT_RXP13*%
X197967600Y-134970102D02*
X198552806Y-134970102D01*
X198552806Y-134970102D02*
X201396600Y-132126308D01*
X197478400Y-114090200D02*
X197478400Y-113766600D01*
X201396600Y-132126308D02*
X201396600Y-118008400D01*
X201396600Y-118008400D02*
X197478400Y-114090200D01*
%TO.N,/GPIOT_RXN05*%
X165633400Y-94437200D02*
X165595196Y-94398996D01*
X165595196Y-90101404D02*
X165602800Y-90093800D01*
X165595196Y-94398996D02*
X165595196Y-90101404D01*
%TO.N,/GPIOT_RXN02*%
X186715400Y-116357400D02*
X181737590Y-116357400D01*
X193624200Y-133807200D02*
X193624200Y-123266200D01*
X180696200Y-115316010D02*
X180696200Y-113766600D01*
X193624200Y-123266200D02*
X186715400Y-116357400D01*
X193598800Y-133832600D02*
X193624200Y-133807200D01*
X181737590Y-116357400D02*
X180696200Y-115316010D01*
%TO.N,/GPIOT_RXN09*%
X182295800Y-90094200D02*
X182296200Y-90093800D01*
X182295800Y-94586369D02*
X182295800Y-90094200D01*
X182316766Y-94607335D02*
X182295800Y-94586369D01*
%TO.N,/GPIOT_RXN16*%
X180767766Y-94442437D02*
X180695600Y-94370271D01*
X180695600Y-94370271D02*
X180695600Y-90094400D01*
X180767766Y-95681800D02*
X180767766Y-94442437D01*
X180695600Y-90094400D02*
X180696200Y-90093800D01*
%TO.N,/GPIOT_RXP07*%
X195097400Y-133528390D02*
X195097400Y-122301000D01*
X187629800Y-114833400D02*
X183286400Y-114833400D01*
X195554600Y-133985590D02*
X195097400Y-133528390D01*
X182696200Y-114243200D02*
X182696200Y-113766600D01*
X195554600Y-135026400D02*
X195554600Y-133985590D01*
X183286400Y-114833400D02*
X182696200Y-114243200D01*
X195097400Y-122301000D02*
X187629800Y-114833400D01*
%TO.N,/GPIOT_RXN19*%
X181508400Y-117246400D02*
X179896200Y-115634200D01*
X192385874Y-133686474D02*
X192385874Y-123653474D01*
X179896200Y-115634200D02*
X179896200Y-113766600D01*
X192385874Y-123653474D02*
X185978800Y-117246400D01*
X185978800Y-117246400D02*
X181508400Y-117246400D01*
X192506600Y-133807200D02*
X192385874Y-133686474D01*
%TO.N,/GPIOT_RXP16*%
X180300473Y-93088577D02*
X180300473Y-90098073D01*
X180351249Y-93139353D02*
X180300473Y-93088577D01*
X180351249Y-94572182D02*
X180351249Y-93139353D01*
X180316096Y-94607335D02*
X180351249Y-94572182D01*
X180300473Y-90098073D02*
X180296200Y-90093800D01*
%TO.N,/GPIOT_RXP15*%
X179496200Y-92176600D02*
X179496200Y-90093800D01*
%TO.N,/GPIOT_RXN20*%
X166116000Y-93395800D02*
X166004403Y-93284203D01*
X166004403Y-90095403D02*
X166002800Y-90093800D01*
X166004403Y-93284203D02*
X166004403Y-90095403D01*
%TO.N,/GPIOT_RXN15*%
X179895500Y-91960500D02*
X179895500Y-90094500D01*
X179931353Y-91996353D02*
X179895500Y-91960500D01*
X179916096Y-93319600D02*
X179931353Y-93304343D01*
X179895500Y-90094500D02*
X179896200Y-90093800D01*
X179931353Y-93304343D02*
X179931353Y-91996353D01*
%TO.N,/GPIOT_RXN11*%
X197205600Y-133832600D02*
X197231000Y-133832600D01*
X197231000Y-133832600D02*
X200253600Y-130810000D01*
X200253600Y-130810000D02*
X200253600Y-118008400D01*
X200253600Y-118008400D02*
X196678400Y-114433200D01*
X196678400Y-114433200D02*
X196678400Y-113766600D01*
%TO.N,/GPIOT_RXP12*%
X197043523Y-131130523D02*
X197043523Y-120995923D01*
X193878400Y-117830800D02*
X193878400Y-113766600D01*
X197154800Y-131241800D02*
X197043523Y-131130523D01*
X197043523Y-120995923D02*
X193878400Y-117830800D01*
%TO.N,/GPIOT_RXP19*%
X191516000Y-123698000D02*
X185470800Y-117652800D01*
X181356000Y-117652800D02*
X179496200Y-115793000D01*
X191947800Y-133985590D02*
X191516000Y-133553790D01*
X191516000Y-133553790D02*
X191516000Y-123698000D01*
X179496200Y-115793000D02*
X179496200Y-113766600D01*
X191947800Y-134970102D02*
X191947800Y-133985590D01*
X185470800Y-117652800D02*
X181356000Y-117652800D01*
%TO.N,/GPIOT_RXN07*%
X196062600Y-122453400D02*
X188010800Y-114401600D01*
X183273700Y-114401600D02*
X183096200Y-114224100D01*
X196062600Y-133781800D02*
X196062600Y-122453400D01*
X188010800Y-114401600D02*
X183273700Y-114401600D01*
X183096200Y-114224100D02*
X183096200Y-113766600D01*
%TO.N,/GPIOT_RXN13*%
X200761600Y-131495800D02*
X200761600Y-117980000D01*
X197078400Y-114296800D02*
X197078400Y-113766600D01*
X200761600Y-117980000D02*
X197078400Y-114296800D01*
X198424800Y-133832600D02*
X200761600Y-131495800D01*
%TO.N,/GPIOT_RXP04*%
X186766200Y-115595400D02*
X183159400Y-115595400D01*
X181896200Y-114332200D02*
X181896200Y-113766600D01*
X194360800Y-134010990D02*
X193903600Y-133553790D01*
X183159400Y-115595400D02*
X181896200Y-114332200D01*
X194360800Y-134970102D02*
X194360800Y-134010990D01*
X193903600Y-133553790D02*
X193903600Y-122732800D01*
X193903600Y-122732800D02*
X186766200Y-115595400D01*
%TO.N,/GPIOT_RXP01*%
X164002113Y-95535087D02*
X164002113Y-90094487D01*
X163957000Y-95580200D02*
X164002113Y-95535087D01*
X164002113Y-90094487D02*
X164002800Y-90093800D01*
%TO.N,/GPIOT_RXP11*%
X199745600Y-118135400D02*
X196278400Y-114668200D01*
X198519536Y-131705274D02*
X199745600Y-130479210D01*
X196766400Y-134988102D02*
X196766400Y-132849400D01*
X196766400Y-132849400D02*
X197910526Y-131705274D01*
X199745600Y-130479210D02*
X199745600Y-118135400D01*
X196278400Y-114668200D02*
X196278400Y-113766600D01*
X197910526Y-131705274D02*
X198519536Y-131705274D01*
%TO.N,/GPIOB_TXN06*%
X216122200Y-93576530D02*
X216122200Y-90068400D01*
X216160670Y-93615000D02*
X216122200Y-93576530D01*
%TO.N,/GPIOB_TXP01*%
X207039209Y-90758009D02*
X208518675Y-92237475D01*
X197478400Y-90595200D02*
X197641209Y-90758009D01*
X197478400Y-90093800D02*
X197478400Y-90595200D01*
X208940400Y-121513600D02*
X213004400Y-125577600D01*
X208940400Y-107952526D02*
X208940400Y-121513600D01*
X208518675Y-107530801D02*
X208940400Y-107952526D01*
X213004400Y-125577600D02*
X213004400Y-133807200D01*
X213004400Y-133807200D02*
X212979000Y-133832600D01*
X197641209Y-90758009D02*
X207039209Y-90758009D01*
X208518675Y-92237475D02*
X208518675Y-107530801D01*
%TO.N,/GPIOB_TXP19*%
X222504000Y-127254000D02*
X230073200Y-119684800D01*
X233176400Y-118004000D02*
X233176400Y-113766600D01*
X219735400Y-134970103D02*
X220320606Y-134970102D01*
X230073200Y-119684800D02*
X231495600Y-119684800D01*
X231495600Y-119684800D02*
X233176400Y-118004000D01*
X220320606Y-134970102D02*
X222504000Y-132786708D01*
X222504000Y-132786708D02*
X222504000Y-127254000D01*
%TO.N,/GPIOB_TXP06*%
X216522200Y-92189200D02*
X216522200Y-90068400D01*
X216636600Y-92303600D02*
X216522200Y-92189200D01*
%TO.N,/GPIOB_TXP09*%
X229590600Y-92684600D02*
X229576400Y-92670400D01*
X229576400Y-92670400D02*
X229576400Y-90093800D01*
%TO.N,/GPIOB_TXP05*%
X213360000Y-93615000D02*
X213360000Y-92386390D01*
X213319779Y-92346169D02*
X213319779Y-90070821D01*
X213319779Y-90070821D02*
X213322200Y-90068400D01*
X213360000Y-92386390D02*
X213319779Y-92346169D01*
%TO.N,/GPIOB_TXN13*%
X193878400Y-91922800D02*
X193878400Y-90093800D01*
X202031600Y-121920000D02*
X202031600Y-109118400D01*
X199720200Y-97764600D02*
X193878400Y-91922800D01*
X208940400Y-134970102D02*
X208940400Y-128828800D01*
X204063600Y-98145600D02*
X203682600Y-97764600D01*
X203682600Y-97764600D02*
X199720200Y-97764600D01*
X208940400Y-128828800D02*
X202031600Y-121920000D01*
X204063600Y-107086400D02*
X204063600Y-98145600D01*
X202031600Y-109118400D02*
X204063600Y-107086400D01*
%TO.N,/GPIOB_TXP17*%
X219405200Y-130094800D02*
X219405200Y-123850400D01*
X219300000Y-130200000D02*
X219405200Y-130094800D01*
X219405200Y-123850400D02*
X228244400Y-115011200D01*
X229976400Y-114650800D02*
X229976400Y-113766600D01*
X228244400Y-115011200D02*
X229616000Y-115011200D01*
X229616000Y-115011200D02*
X229976400Y-114650800D01*
%TO.N,/GPIOB_TXP03*%
X213772674Y-94628196D02*
X213772674Y-93444064D01*
X213772674Y-93444064D02*
X213715580Y-93386970D01*
X213715580Y-90075020D02*
X213722200Y-90068400D01*
X213769870Y-94631000D02*
X213772674Y-94628196D01*
X213715580Y-93386970D02*
X213715580Y-90075020D01*
%TO.N,/GPIOB_TXN16*%
X230376400Y-114860400D02*
X230376400Y-113766600D01*
X229819200Y-115417600D02*
X230376400Y-114860400D01*
X220141800Y-131267200D02*
X220141800Y-124129800D01*
X220141800Y-124129800D02*
X228854000Y-115417600D01*
X228854000Y-115417600D02*
X229819200Y-115417600D01*
%TO.N,/GPIOB_TXP13*%
X197659954Y-95173800D02*
X194278400Y-91792246D01*
X209397600Y-128270000D02*
X202615800Y-121488200D01*
X202615800Y-109347000D02*
X204673200Y-107289600D01*
X204673200Y-96113600D02*
X203733400Y-95173800D01*
X203733400Y-95173800D02*
X197659954Y-95173800D01*
X194278400Y-91792246D02*
X194278400Y-90093800D01*
X209397600Y-133832600D02*
X209397600Y-128270000D01*
X202615800Y-121488200D02*
X202615800Y-109347000D01*
X204673200Y-107289600D02*
X204673200Y-96113600D01*
%TO.N,/GPIOB_TXN00*%
X196278400Y-90986862D02*
X197175021Y-91883483D01*
X210870800Y-126288800D02*
X210870800Y-133553790D01*
X210870800Y-133553790D02*
X211328000Y-134010990D01*
X204913483Y-91883483D02*
X206502000Y-93472000D01*
X207111600Y-122529600D02*
X210870800Y-126288800D01*
X211328000Y-134010990D02*
X211328000Y-134950200D01*
X197175021Y-91883483D02*
X204913483Y-91883483D01*
X206502000Y-107668990D02*
X207111600Y-108278590D01*
X207111600Y-108278590D02*
X207111600Y-122529600D01*
X196278400Y-90093800D02*
X196278400Y-90986862D01*
X206502000Y-93472000D02*
X206502000Y-107668990D01*
%TO.N,/GPIOB_TXN15*%
X213779000Y-113766600D02*
X213779000Y-114363400D01*
X217779600Y-118364000D02*
X217779600Y-133832600D01*
X213779000Y-114363400D02*
X217779600Y-118364000D01*
%TO.N,/GPIOB_TXN03*%
X214117731Y-90072869D02*
X214122200Y-90068400D01*
X214117731Y-94395251D02*
X214117731Y-90072869D01*
X214182544Y-95691544D02*
X214182544Y-94460064D01*
X214223600Y-95732600D02*
X214182544Y-95691544D01*
X214182544Y-94460064D02*
X214117731Y-94395251D01*
%TO.N,/GPIOB_TXN04*%
X215760670Y-94631000D02*
X215722200Y-94592530D01*
X215722200Y-94592530D02*
X215722200Y-90068400D01*
%TO.N,/GPIOB_TXN02*%
X209702400Y-133553790D02*
X209702400Y-127762000D01*
X205282800Y-107696000D02*
X205282800Y-94284800D01*
X209702400Y-127762000D02*
X204495400Y-122555000D01*
X195650508Y-92633800D02*
X194678400Y-91661692D01*
X205282800Y-94284800D02*
X203631800Y-92633800D01*
X210134200Y-134970103D02*
X210134200Y-133985590D01*
X203631800Y-92633800D02*
X195650508Y-92633800D01*
X210134200Y-133985590D02*
X209702400Y-133553790D01*
X204495400Y-108483400D02*
X205282800Y-107696000D01*
X204495400Y-122555000D02*
X204495400Y-108483400D01*
X194678400Y-91661692D02*
X194678400Y-90093800D01*
%TO.N,/GPIOB_TXP16*%
X220599000Y-124688600D02*
X220599000Y-130251200D01*
X230776400Y-113766600D02*
X230776400Y-115070000D01*
X230776400Y-115070000D02*
X230022400Y-115824000D01*
X229463600Y-115824000D02*
X220599000Y-124688600D01*
X230022400Y-115824000D02*
X229463600Y-115824000D01*
%TO.N,/GPIOB_TXP11*%
X212979000Y-114782600D02*
X212979000Y-113766600D01*
X216687400Y-133807200D02*
X216585800Y-133705600D01*
X216585800Y-118389400D02*
X212979000Y-114782600D01*
X216585800Y-133705600D02*
X216585800Y-118389400D01*
%TO.N,/GPIOB_TXN11*%
X216140234Y-133895624D02*
X216140234Y-134970102D01*
X215696800Y-133452190D02*
X216140234Y-133895624D01*
X215696800Y-118110000D02*
X215696800Y-133452190D01*
X212579000Y-114992200D02*
X215696800Y-118110000D01*
X212579000Y-113766600D02*
X212579000Y-114992200D01*
%TO.N,/GPIOB_TXP00*%
X207111600Y-107279152D02*
X207111600Y-92862400D01*
X211810600Y-133756400D02*
X211810600Y-126212600D01*
X207721200Y-122123200D02*
X207721200Y-107888752D01*
X211810600Y-126212600D02*
X207721200Y-122123200D01*
X205757525Y-91508325D02*
X197330417Y-91508325D01*
X197330417Y-91508325D02*
X196678400Y-90856308D01*
X207721200Y-107888752D02*
X207111600Y-107279152D01*
X207111600Y-92862400D02*
X205757525Y-91508325D01*
X196678400Y-90856308D02*
X196678400Y-90093800D01*
X211886800Y-133832600D02*
X211810600Y-133756400D01*
%TO.N,/GPIOB_TXN08*%
X213715600Y-133985590D02*
X213309200Y-133579190D01*
X213309200Y-125069600D02*
X210179000Y-121939400D01*
X210179000Y-121939400D02*
X210179000Y-113766600D01*
X213309200Y-133579190D02*
X213309200Y-125069600D01*
X213715600Y-135001000D02*
X213715600Y-133985590D01*
%TO.N,/GPIOB_TXP04*%
X215322200Y-95713600D02*
X215322200Y-90068400D01*
X215341200Y-95732600D02*
X215322200Y-95713600D01*
%TO.N,/GPIOB_TXP10*%
X230886000Y-96113600D02*
X230886000Y-94615000D01*
X230776400Y-94505400D02*
X230776400Y-90093800D01*
X230886000Y-94615000D02*
X230776400Y-94505400D01*
%TO.N,/GPIOB_TXN17*%
X227634800Y-114604800D02*
X229491846Y-114604800D01*
X218862123Y-131203923D02*
X218862123Y-123377477D01*
X229576400Y-114520246D02*
X229576400Y-113766600D01*
X218862123Y-123377477D02*
X227634800Y-114604800D01*
X229491846Y-114604800D02*
X229576400Y-114520246D01*
X218900000Y-131241800D02*
X218862123Y-131203923D01*
%TO.N,/GPIOB_TXP02*%
X205079600Y-108915200D02*
X205079600Y-122233338D01*
X204272642Y-92258642D02*
X205892400Y-93878400D01*
X195067579Y-91520317D02*
X195805904Y-92258642D01*
X210566000Y-127719738D02*
X210566000Y-133832600D01*
X205079600Y-122233338D02*
X210566000Y-127719738D01*
X205892400Y-93878400D02*
X205892400Y-108102400D01*
X195078400Y-90093800D02*
X195067579Y-90104621D01*
X205892400Y-108102400D02*
X205079600Y-108915200D01*
X195067579Y-90104621D02*
X195067579Y-91520317D01*
X195805904Y-92258642D02*
X204272642Y-92258642D01*
%TO.N,/GPIOB_TXN05*%
X212922200Y-92532200D02*
X212922200Y-90068400D01*
%TO.N,/GPIOB_TXP15*%
X217347800Y-133883990D02*
X217347800Y-134970102D01*
X216916000Y-133452190D02*
X217347800Y-133883990D01*
X216916000Y-118110000D02*
X216916000Y-133452190D01*
X213379000Y-114573000D02*
X216916000Y-118110000D01*
X213379000Y-113766600D02*
X213379000Y-114573000D01*
%TO.N,/GPIOB_TXP14*%
X218973400Y-133832600D02*
X219024200Y-133832600D01*
X231089200Y-118059200D02*
X232376400Y-116772000D01*
X219024200Y-133832600D02*
X221691200Y-131165600D01*
X232376400Y-116772000D02*
X232376400Y-113766600D01*
X229666800Y-118059200D02*
X231089200Y-118059200D01*
X221691200Y-126034800D02*
X229666800Y-118059200D01*
X221691200Y-131165600D02*
X221691200Y-126034800D01*
%TO.N,/GPIOB_TXN19*%
X220167200Y-133728154D02*
X222097600Y-131797754D01*
X222097600Y-126644400D02*
X229870000Y-118872000D01*
X232776400Y-117388000D02*
X232776400Y-113766600D01*
X231292400Y-118872000D02*
X232776400Y-117388000D01*
X220167200Y-133832600D02*
X220167200Y-133728154D01*
X222097600Y-131797754D02*
X222097600Y-126644400D01*
X229870000Y-118872000D02*
X231292400Y-118872000D01*
%TO.N,/GPIOB_TXP07*%
X214503000Y-133579190D02*
X214934800Y-134010990D01*
X214503000Y-124231400D02*
X214503000Y-133579190D01*
X214934800Y-134010990D02*
X214934800Y-134970103D01*
X210979000Y-120707400D02*
X214503000Y-124231400D01*
X210979000Y-113766600D02*
X210979000Y-120707400D01*
%TO.N,/GPIOB_TXN12*%
X233197400Y-92659200D02*
X233172000Y-92633800D01*
X233172000Y-90098200D02*
X233176400Y-90093800D01*
X233172000Y-92633800D02*
X233172000Y-90098200D01*
%TO.N,/GPIOB_TXP08*%
X214223600Y-133781800D02*
X214172800Y-133832600D01*
X214223600Y-124968000D02*
X214223600Y-133781800D01*
X210579000Y-113766600D02*
X210579000Y-121323400D01*
X210579000Y-121323400D02*
X214223600Y-124968000D01*
%TO.N,/GPIOB_TXN18*%
X231976400Y-96086400D02*
X231976400Y-90093800D01*
X231978200Y-96088200D02*
X231976400Y-96086400D01*
%TO.N,/GPIOB_TXP18*%
X232435400Y-94869000D02*
X232376400Y-94810000D01*
X232376400Y-94810000D02*
X232376400Y-90093800D01*
%TO.N,/GPIOB_TXP12*%
X232816400Y-93751400D02*
X232776400Y-93711400D01*
X232776400Y-93711400D02*
X232776400Y-90093800D01*
%TO.N,/GPIOB_TXN09*%
X230022400Y-93853000D02*
X230022400Y-92532790D01*
X229971600Y-92481990D02*
X229971600Y-90098600D01*
X230022400Y-92532790D02*
X229971600Y-92481990D01*
X229971600Y-90098600D02*
X229976400Y-90093800D01*
%TO.N,/GPIOB_TXN14*%
X231976400Y-113766600D02*
X231976400Y-116156000D01*
X221284800Y-130962400D02*
X220522800Y-131724400D01*
X221284800Y-125018800D02*
X221284800Y-130962400D01*
X230682800Y-117449600D02*
X228854000Y-117449600D01*
X219659200Y-131724400D02*
X218535872Y-132847728D01*
X231976400Y-116156000D02*
X230682800Y-117449600D01*
X218535872Y-132847728D02*
X218535872Y-134964973D01*
X220522800Y-131724400D02*
X219659200Y-131724400D01*
X228854000Y-117449600D02*
X221284800Y-125018800D01*
%TO.N,/GPIOB_TXN10*%
X230454200Y-93523390D02*
X230378000Y-93447190D01*
X230378000Y-90095400D02*
X230376400Y-90093800D01*
X230378000Y-93447190D02*
X230378000Y-90095400D01*
X230454200Y-94919800D02*
X230454200Y-93523390D01*
%TO.N,/GPIOB_TXN01*%
X212090000Y-133452190D02*
X212547200Y-133909390D01*
X208330800Y-107873480D02*
X208330800Y-121716800D01*
X197078400Y-90093800D02*
X197078400Y-90725754D01*
X207721200Y-92456000D02*
X207721200Y-107263880D01*
X212547200Y-133909390D02*
X212547200Y-134970102D01*
X206398367Y-91133167D02*
X207721200Y-92456000D01*
X208330800Y-121716800D02*
X212090000Y-125476000D01*
X207721200Y-107263880D02*
X208330800Y-107873480D01*
X212090000Y-125476000D02*
X212090000Y-133452190D01*
X197078400Y-90725754D02*
X197485813Y-91133167D01*
X197485813Y-91133167D02*
X206398367Y-91133167D01*
%TO.N,/GPIOB_TXN07*%
X211379000Y-120091400D02*
X211379000Y-113766600D01*
X215392000Y-124104400D02*
X211379000Y-120091400D01*
X215493600Y-133832600D02*
X215392000Y-133731000D01*
X215392000Y-133731000D02*
X215392000Y-124104400D01*
D30*
%TO.N,/NETR20_2*%
X167563800Y-131927600D02*
X167525000Y-131888800D01*
X167525000Y-131888800D02*
X166597000Y-131888800D01*
D33*
%TO.N,/NetR1_2*%
X167005000Y-112877600D02*
X167801800Y-113674400D01*
X164402800Y-112434400D02*
X164846000Y-112877600D01*
X164402800Y-111966600D02*
X164402800Y-112434400D01*
X167801800Y-113674400D02*
X167843200Y-113674400D01*
X164846000Y-112877600D02*
X167005000Y-112877600D01*
%TO.N,/NetR2_2*%
X164402800Y-88849400D02*
X164758200Y-89204800D01*
X167351200Y-89204800D02*
X167970200Y-88585800D01*
X164402800Y-88293800D02*
X164402800Y-88849400D01*
X164758200Y-89204800D02*
X167351200Y-89204800D01*
%TO.N,/NetR3_2*%
X181406800Y-112852200D02*
X184226200Y-112852200D01*
X181096200Y-112541600D02*
X181406800Y-112852200D01*
X184226200Y-112852200D02*
X185048400Y-113674400D01*
X185048400Y-113674400D02*
X185178700Y-113674400D01*
X181096200Y-111966600D02*
X181096200Y-112541600D01*
%TO.N,/NetR6_2*%
X192125600Y-89179400D02*
X191532000Y-88585800D01*
X195478400Y-88849400D02*
X195148400Y-89179400D01*
X195478400Y-88293800D02*
X195478400Y-88849400D01*
X191532000Y-88585800D02*
X190042800Y-88585800D01*
X195148400Y-89179400D02*
X192125600Y-89179400D01*
%TO.N,/NetR7_2*%
X214522200Y-88293800D02*
X214522200Y-88792200D01*
X214934800Y-89204800D02*
X217805000Y-89204800D01*
X214522200Y-88792200D02*
X214934800Y-89204800D01*
X218398600Y-88611200D02*
X218516200Y-88611200D01*
X217805000Y-89204800D02*
X218398600Y-88611200D01*
%TO.N,/Net8_2*%
X214503000Y-112852200D02*
X216220800Y-111134400D01*
X211779000Y-111966600D02*
X211779000Y-112465000D01*
X216220800Y-111134400D02*
X217678000Y-111134400D01*
X212166200Y-112852200D02*
X214503000Y-112852200D01*
X211779000Y-112465000D02*
X212166200Y-112852200D01*
%TO.N,/NetR4_2*%
X184378600Y-89204800D02*
X184997600Y-88585800D01*
X181533800Y-89204800D02*
X184378600Y-89204800D01*
X181096200Y-88767200D02*
X181533800Y-89204800D01*
X184997600Y-88585800D02*
X185178700Y-88585800D01*
X181096200Y-88293800D02*
X181096200Y-88767200D01*
%TO.N,/NetR5_2*%
X191786000Y-113674400D02*
X190042800Y-113674400D01*
X192608200Y-112852200D02*
X191786000Y-113674400D01*
X195478400Y-112521600D02*
X195147800Y-112852200D01*
X195147800Y-112852200D02*
X192608200Y-112852200D01*
X195478400Y-111966600D02*
X195478400Y-112521600D01*
%TO.N,/NetR9_2*%
X231571800Y-89204800D02*
X234467400Y-89204800D01*
X234467400Y-89204800D02*
X235086400Y-88585800D01*
X231190800Y-88823800D02*
X231571800Y-89204800D01*
X235086400Y-88585800D02*
X235313800Y-88585800D01*
%TO.N,/NetR10_2*%
X231571800Y-112877600D02*
X233832400Y-112877600D01*
X233832400Y-112877600D02*
X234629200Y-113674400D01*
X231176400Y-111966600D02*
X231176400Y-112482200D01*
X234629200Y-113674400D02*
X234975400Y-113674400D01*
X231176400Y-112482200D02*
X231571800Y-112877600D01*
D34*
%TO.N,/NETR13_2*%
X158753600Y-119799185D02*
X158765360Y-119787425D01*
X158753600Y-121139565D02*
X158753600Y-119799185D01*
D29*
%TO.N,/NETR12_1*%
X162035717Y-125224898D02*
X161993724Y-125182905D01*
X158013400Y-120599200D02*
X157302200Y-120599200D01*
X161993724Y-125182905D02*
X161419500Y-125182905D01*
%TO.N,/NETR14_1*%
X157302200Y-128406715D02*
X157302200Y-127322715D01*
X158182420Y-124682895D02*
X158532590Y-124682895D01*
X157309400Y-127322715D02*
X157911800Y-126720315D01*
X157331200Y-128435715D02*
X157302200Y-128406715D01*
X157911800Y-124953515D02*
X158182420Y-124682895D01*
X157911800Y-126720315D02*
X157911800Y-124953515D01*
X157302200Y-127322715D02*
X157309400Y-127322715D01*
%TO.N,/NETR11_2*%
X156591000Y-119278400D02*
X157267400Y-119278400D01*
X158573600Y-125237005D02*
X158519500Y-125182905D01*
X157267400Y-119278400D02*
X157302200Y-119313200D01*
X158573600Y-125595515D02*
X158573600Y-125237005D01*
%TO.N,/NETR16_1*%
X171311700Y-129556610D02*
X170799160Y-129556610D01*
X172262800Y-130507710D02*
X171311700Y-129556610D01*
X172262800Y-131165600D02*
X172262800Y-130507710D01*
X172262800Y-132588000D02*
X172262800Y-131165600D01*
X172262800Y-133959600D02*
X172262800Y-132588000D01*
%TO.N,/NETR18_1*%
X179029240Y-134079595D02*
X179029240Y-130690435D01*
X177886400Y-129547595D02*
X177748740Y-129547595D01*
X177748740Y-129547595D02*
X177744040Y-129552295D01*
X179029240Y-130690435D02*
X177886400Y-129547595D01*
%TO.N,5V_1*%
X157331200Y-130073400D02*
X157331200Y-129557915D01*
X162102800Y-123080915D02*
X162603315Y-122580400D01*
X161905790Y-124223915D02*
X162102800Y-124026905D01*
X162102800Y-124026905D02*
X162102800Y-123080915D01*
D30*
X167263000Y-132388800D02*
X166597000Y-132388800D01*
D29*
X161473600Y-124223915D02*
X161905790Y-124223915D01*
X162603315Y-122580400D02*
X163499800Y-122580400D01*
D30*
X167360600Y-132486400D02*
X167263000Y-132388800D01*
D29*
%TO.N,Net-(U14-ST)*%
X165127000Y-133388800D02*
X165127000Y-133831000D01*
X165127000Y-133831000D02*
X164871400Y-134086600D01*
X164871400Y-134086600D02*
X164871400Y-134467600D01*
%TD*%
%TA.AperFunction,Conductor*%
%TO.N,/GPIOB__TXN14*%
G36*
X235030576Y-98722454D02*
G01*
X235719011Y-99006637D01*
X235725351Y-99012962D01*
X235725362Y-99012988D01*
X236009542Y-99701416D01*
X236009531Y-99710370D01*
X236003191Y-99716695D01*
X236002253Y-99717036D01*
X234696845Y-100129589D01*
X234687923Y-100128815D01*
X234685046Y-100126706D01*
X234605293Y-100046953D01*
X234601866Y-100038680D01*
X234602410Y-100035154D01*
X234705053Y-99710370D01*
X235014964Y-98729744D01*
X235020723Y-98722890D01*
X235029645Y-98722116D01*
X235030576Y-98722454D01*
G37*
%TD.AperFunction*%
%TD*%
%TA.AperFunction,Conductor*%
%TO.N,/GPIOT__RXP11*%
G36*
X201660616Y-98722454D02*
G01*
X202349051Y-99006637D01*
X202355391Y-99012962D01*
X202355402Y-99012988D01*
X202639582Y-99701416D01*
X202639571Y-99710370D01*
X202633231Y-99716695D01*
X202632293Y-99717036D01*
X201326885Y-100129589D01*
X201317963Y-100128815D01*
X201315086Y-100126706D01*
X201235333Y-100046953D01*
X201231906Y-100038680D01*
X201232450Y-100035154D01*
X201335093Y-99710370D01*
X201645004Y-98729744D01*
X201650763Y-98722890D01*
X201659685Y-98722116D01*
X201660616Y-98722454D01*
G37*
%TD.AperFunction*%
%TD*%
%TA.AperFunction,Conductor*%
%TO.N,/GPIOB__TXP17*%
G36*
X226688080Y-101262454D02*
G01*
X227376515Y-101546637D01*
X227382855Y-101552962D01*
X227382866Y-101552988D01*
X227667046Y-102241416D01*
X227667035Y-102250370D01*
X227660695Y-102256695D01*
X227659757Y-102257036D01*
X226354349Y-102669589D01*
X226345427Y-102668815D01*
X226342550Y-102666706D01*
X226262797Y-102586953D01*
X226259370Y-102578680D01*
X226259914Y-102575154D01*
X226362557Y-102250370D01*
X226672468Y-101269744D01*
X226678227Y-101262890D01*
X226687149Y-101262116D01*
X226688080Y-101262454D01*
G37*
%TD.AperFunction*%
%TD*%
%TA.AperFunction,Conductor*%
%TO.N,VCCB_2*%
G36*
X186913626Y-69006085D02*
G01*
X186959381Y-69058889D01*
X186970581Y-69109208D01*
X186993596Y-71502808D01*
X186974557Y-71570033D01*
X186922196Y-71616294D01*
X186869602Y-71628000D01*
X184911999Y-71628000D01*
X184353200Y-72186799D01*
X184353200Y-76224837D01*
X184333515Y-76291876D01*
X184316881Y-76312518D01*
X181609999Y-79019399D01*
X181612504Y-83534112D01*
X181592857Y-83601163D01*
X181540078Y-83646947D01*
X181470925Y-83656929D01*
X181432213Y-83644668D01*
X181414598Y-83635693D01*
X181305202Y-83618367D01*
X181305198Y-83618367D01*
X181195799Y-83635694D01*
X181195798Y-83635694D01*
X181097107Y-83685978D01*
X181018778Y-83764307D01*
X180968494Y-83862998D01*
X180968494Y-83862999D01*
X180951167Y-83972397D01*
X180951167Y-83972402D01*
X180968494Y-84081800D01*
X180968494Y-84081801D01*
X181018778Y-84180492D01*
X181097107Y-84258821D01*
X181152392Y-84286989D01*
X181195798Y-84309105D01*
X181222063Y-84313265D01*
X181305198Y-84326433D01*
X181305200Y-84326433D01*
X181305202Y-84326433D01*
X181414598Y-84309106D01*
X181414599Y-84309105D01*
X181414602Y-84309105D01*
X181432696Y-84299885D01*
X181501363Y-84286989D01*
X181566104Y-84313265D01*
X181606361Y-84370371D01*
X181612990Y-84410301D01*
X181615345Y-88653436D01*
X181595698Y-88720487D01*
X181542919Y-88766271D01*
X181490441Y-88777502D01*
X181453696Y-88777234D01*
X181386802Y-88757061D01*
X181341433Y-88703924D01*
X181330600Y-88653237D01*
X181330600Y-87528400D01*
X178649119Y-84846919D01*
X178615634Y-84785596D01*
X178612800Y-84759238D01*
X178612800Y-72186800D01*
X178054000Y-71628000D01*
X176120600Y-71628000D01*
X176053561Y-71608315D01*
X176007806Y-71555511D01*
X175996600Y-71504000D01*
X175996600Y-69110400D01*
X176016285Y-69043361D01*
X176069089Y-68997606D01*
X176120600Y-68986400D01*
X186846587Y-68986400D01*
X186913626Y-69006085D01*
G37*
%TD.AperFunction*%
%TD*%
%TA.AperFunction,Conductor*%
%TO.N,/GPIOB__TXP03*%
G36*
X210003104Y-80129654D02*
G01*
X210691539Y-80413837D01*
X210697879Y-80420162D01*
X210697890Y-80420188D01*
X210982070Y-81108616D01*
X210982059Y-81117570D01*
X210975719Y-81123895D01*
X210974781Y-81124236D01*
X209669373Y-81536789D01*
X209660451Y-81536015D01*
X209657574Y-81533906D01*
X209577821Y-81454153D01*
X209574394Y-81445880D01*
X209574938Y-81442354D01*
X209677581Y-81117570D01*
X209987492Y-80136944D01*
X209993251Y-80130090D01*
X210002173Y-80129316D01*
X210003104Y-80129654D01*
G37*
%TD.AperFunction*%
%TD*%
%TA.AperFunction,Conductor*%
%TO.N,/GPIOT__RXP19*%
G36*
X176633152Y-98722454D02*
G01*
X177321587Y-99006637D01*
X177327927Y-99012962D01*
X177327938Y-99012988D01*
X177612118Y-99701416D01*
X177612107Y-99710370D01*
X177605767Y-99716695D01*
X177604829Y-99717036D01*
X176299421Y-100129589D01*
X176290499Y-100128815D01*
X176287622Y-100126706D01*
X176207869Y-100046953D01*
X176204442Y-100038680D01*
X176204986Y-100035154D01*
X176307629Y-99710370D01*
X176617540Y-98729744D01*
X176623299Y-98722890D01*
X176632221Y-98722116D01*
X176633152Y-98722454D01*
G37*
%TD.AperFunction*%
%TD*%
%TA.AperFunction,Conductor*%
%TO.N,/GPIOB__TXP08*%
G36*
X210003104Y-101262454D02*
G01*
X210691539Y-101546637D01*
X210697879Y-101552962D01*
X210697890Y-101552988D01*
X210982070Y-102241416D01*
X210982059Y-102250370D01*
X210975719Y-102256695D01*
X210974781Y-102257036D01*
X209669373Y-102669589D01*
X209660451Y-102668815D01*
X209657574Y-102666706D01*
X209577821Y-102586953D01*
X209574394Y-102578680D01*
X209574938Y-102575154D01*
X209677581Y-102250370D01*
X209987492Y-101269744D01*
X209993251Y-101262890D01*
X210002173Y-101262116D01*
X210003104Y-101262454D01*
G37*
%TD.AperFunction*%
%TD*%
%TA.AperFunction,Conductor*%
%TO.N,VCCB_3*%
G36*
X194223747Y-92704285D02*
G01*
X194244785Y-92721316D01*
X199760477Y-98287150D01*
X199793684Y-98348624D01*
X199796400Y-98374434D01*
X199796400Y-101091923D01*
X199776715Y-101158962D01*
X199760668Y-101179014D01*
X196037200Y-104952800D01*
X196037200Y-112372600D01*
X196017515Y-112439639D01*
X195964711Y-112485394D01*
X195913200Y-112496600D01*
X195831000Y-112496600D01*
X195763961Y-112476915D01*
X195718206Y-112424111D01*
X195707000Y-112372600D01*
X195707000Y-111379000D01*
X195579999Y-111251989D01*
X195424604Y-111251995D01*
X195357564Y-111232313D01*
X195311807Y-111179510D01*
X195300600Y-111127995D01*
X195300600Y-95986600D01*
X194767200Y-95453200D01*
X192833800Y-95453200D01*
X192766761Y-95433515D01*
X192721006Y-95380711D01*
X192709800Y-95329200D01*
X192709800Y-92808600D01*
X192729485Y-92741561D01*
X192782289Y-92695806D01*
X192833800Y-92684600D01*
X194156708Y-92684600D01*
X194223747Y-92704285D01*
G37*
%TD.AperFunction*%
%TD*%
%TA.AperFunction,Conductor*%
%TO.N,/GPIOB__TXP00*%
G36*
X201660616Y-77589654D02*
G01*
X202349051Y-77873837D01*
X202355391Y-77880162D01*
X202355402Y-77880188D01*
X202639582Y-78568616D01*
X202639571Y-78577570D01*
X202633231Y-78583895D01*
X202632293Y-78584236D01*
X201326885Y-78996789D01*
X201317963Y-78996015D01*
X201315086Y-78993906D01*
X201235333Y-78914153D01*
X201231906Y-78905880D01*
X201232450Y-78902354D01*
X201335093Y-78577570D01*
X201645004Y-77596944D01*
X201650763Y-77590090D01*
X201659685Y-77589316D01*
X201660616Y-77589654D01*
G37*
%TD.AperFunction*%
%TD*%
%TA.AperFunction,Conductor*%
%TO.N,/GPIOT__RXN14*%
G36*
X194759492Y-106629183D02*
G01*
X194767761Y-106632621D01*
X194771177Y-106640898D01*
X194771123Y-106642001D01*
X194653916Y-107863218D01*
X194649715Y-107871126D01*
X194642270Y-107873800D01*
X194529455Y-107873800D01*
X194522947Y-107871823D01*
X193483363Y-107175931D01*
X193478394Y-107168481D01*
X193480148Y-107159700D01*
X193481590Y-107157943D01*
X194006918Y-106631640D01*
X194015185Y-106628206D01*
X194759492Y-106629183D01*
G37*
%TD.AperFunction*%
%TD*%
%TA.AperFunction,Conductor*%
%TO.N,GND*%
G36*
X170091679Y-125502801D02*
G01*
X170137434Y-125555605D01*
X170148640Y-125607116D01*
X170148640Y-130505200D01*
X170199440Y-130547210D01*
X171345135Y-130547210D01*
X171412174Y-130566895D01*
X171457929Y-130619699D01*
X171469135Y-130671514D01*
X171459703Y-134515699D01*
X171439854Y-134582690D01*
X171386938Y-134628315D01*
X171335703Y-134639395D01*
X169627600Y-134639395D01*
X169560561Y-134619710D01*
X169514806Y-134566906D01*
X169503600Y-134515395D01*
X169503600Y-125607116D01*
X169523285Y-125540077D01*
X169576089Y-125494322D01*
X169627600Y-125483116D01*
X170024640Y-125483116D01*
X170091679Y-125502801D01*
G37*
%TD.AperFunction*%
%TD*%
%TA.AperFunction,Conductor*%
%TO.N,/GPIOT__RXP17*%
G36*
X184975640Y-82669654D02*
G01*
X185664075Y-82953837D01*
X185670415Y-82960162D01*
X185670426Y-82960188D01*
X185954606Y-83648616D01*
X185954595Y-83657570D01*
X185948255Y-83663895D01*
X185947317Y-83664236D01*
X184641909Y-84076789D01*
X184632987Y-84076015D01*
X184630110Y-84073906D01*
X184550357Y-83994153D01*
X184546930Y-83985880D01*
X184547474Y-83982354D01*
X184650117Y-83657570D01*
X184960028Y-82676944D01*
X184965787Y-82670090D01*
X184974709Y-82669316D01*
X184975640Y-82669654D01*
G37*
%TD.AperFunction*%
%TD*%
%TA.AperFunction,Conductor*%
%TO.N,/GPIOB__TXN19*%
G36*
X235030576Y-103802454D02*
G01*
X235719011Y-104086637D01*
X235725351Y-104092962D01*
X235725362Y-104092988D01*
X236009542Y-104781416D01*
X236009531Y-104790370D01*
X236003191Y-104796695D01*
X236002253Y-104797036D01*
X234696845Y-105209589D01*
X234687923Y-105208815D01*
X234685046Y-105206706D01*
X234605293Y-105126953D01*
X234601866Y-105118680D01*
X234602410Y-105115154D01*
X234705053Y-104790370D01*
X235014964Y-103809744D01*
X235020723Y-103802890D01*
X235029645Y-103802116D01*
X235030576Y-103802454D01*
G37*
%TD.AperFunction*%
%TD*%
%TA.AperFunction,Conductor*%
%TO.N,/GPIOB__TXN06*%
G36*
X218345592Y-80129654D02*
G01*
X219034027Y-80413837D01*
X219040367Y-80420162D01*
X219040378Y-80420188D01*
X219324558Y-81108616D01*
X219324547Y-81117570D01*
X219318207Y-81123895D01*
X219317269Y-81124236D01*
X218011861Y-81536789D01*
X218002939Y-81536015D01*
X218000062Y-81533906D01*
X217920309Y-81454153D01*
X217916882Y-81445880D01*
X217917426Y-81442354D01*
X218020069Y-81117570D01*
X218329980Y-80136944D01*
X218335739Y-80130090D01*
X218344661Y-80129316D01*
X218345592Y-80129654D01*
G37*
%TD.AperFunction*%
%TD*%
%TA.AperFunction,Conductor*%
%TO.N,GND*%
G36*
X181502239Y-128181080D02*
G01*
X181547994Y-128233884D01*
X181559200Y-128285395D01*
X181559200Y-130522283D01*
X181539515Y-130589322D01*
X181486711Y-130635077D01*
X181435589Y-130646282D01*
X180109623Y-130650441D01*
X180042522Y-130630967D01*
X180024726Y-130617186D01*
X178357532Y-129064558D01*
X178321888Y-129004464D01*
X178318040Y-128973814D01*
X178318040Y-128285395D01*
X178337725Y-128218356D01*
X178390529Y-128172601D01*
X178442035Y-128161395D01*
X181435200Y-128161395D01*
X181502239Y-128181080D01*
G37*
%TD.AperFunction*%
%TD*%
%TA.AperFunction,Conductor*%
%TO.N,/GPIOB__TXP04*%
G36*
X218345592Y-75049654D02*
G01*
X219034027Y-75333837D01*
X219040367Y-75340162D01*
X219040378Y-75340188D01*
X219324558Y-76028616D01*
X219324547Y-76037570D01*
X219318207Y-76043895D01*
X219317269Y-76044236D01*
X218011861Y-76456789D01*
X218002939Y-76456015D01*
X218000062Y-76453906D01*
X217920309Y-76374153D01*
X217916882Y-76365880D01*
X217917426Y-76362354D01*
X218020069Y-76037570D01*
X218329980Y-75056944D01*
X218335739Y-75050090D01*
X218344661Y-75049316D01*
X218345592Y-75049654D01*
G37*
%TD.AperFunction*%
%TD*%
%TA.AperFunction,Conductor*%
%TO.N,/GPIOB__TXP15*%
G36*
X218345592Y-103802454D02*
G01*
X219034027Y-104086637D01*
X219040367Y-104092962D01*
X219040378Y-104092988D01*
X219324558Y-104781416D01*
X219324547Y-104790370D01*
X219318207Y-104796695D01*
X219317269Y-104797036D01*
X218011861Y-105209589D01*
X218002939Y-105208815D01*
X218000062Y-105206706D01*
X217920309Y-105126953D01*
X217916882Y-105118680D01*
X217917426Y-105115154D01*
X218020069Y-104790370D01*
X218329980Y-103809744D01*
X218335739Y-103802890D01*
X218344661Y-103802116D01*
X218345592Y-103802454D01*
G37*
%TD.AperFunction*%
%TD*%
%TA.AperFunction,Conductor*%
%TO.N,/GPIOT__RXP18*%
G36*
X168290664Y-103802454D02*
G01*
X168979099Y-104086637D01*
X168985439Y-104092962D01*
X168985450Y-104092988D01*
X169269630Y-104781416D01*
X169269619Y-104790370D01*
X169263279Y-104796695D01*
X169262341Y-104797036D01*
X167956933Y-105209589D01*
X167948011Y-105208815D01*
X167945134Y-105206706D01*
X167865381Y-105126953D01*
X167861954Y-105118680D01*
X167862498Y-105115154D01*
X167965141Y-104790370D01*
X168275052Y-103809744D01*
X168280811Y-103802890D01*
X168289733Y-103802116D01*
X168290664Y-103802454D01*
G37*
%TD.AperFunction*%
%TD*%
%TA.AperFunction,Conductor*%
%TO.N,/GPIOB__TXP06*%
G36*
X218345592Y-82669654D02*
G01*
X219034027Y-82953837D01*
X219040367Y-82960162D01*
X219040378Y-82960188D01*
X219324558Y-83648616D01*
X219324547Y-83657570D01*
X219318207Y-83663895D01*
X219317269Y-83664236D01*
X218011861Y-84076789D01*
X218002939Y-84076015D01*
X218000062Y-84073906D01*
X217920309Y-83994153D01*
X217916882Y-83985880D01*
X217917426Y-83982354D01*
X218020069Y-83657570D01*
X218329980Y-82676944D01*
X218335739Y-82670090D01*
X218344661Y-82669316D01*
X218345592Y-82669654D01*
G37*
%TD.AperFunction*%
%TD*%
%TA.AperFunction,Conductor*%
%TO.N,/GPIOT__RXP07*%
G36*
X184975640Y-103802454D02*
G01*
X185664075Y-104086637D01*
X185670415Y-104092962D01*
X185670426Y-104092988D01*
X185954606Y-104781416D01*
X185954595Y-104790370D01*
X185948255Y-104796695D01*
X185947317Y-104797036D01*
X184641909Y-105209589D01*
X184632987Y-105208815D01*
X184630110Y-105206706D01*
X184550357Y-105126953D01*
X184546930Y-105118680D01*
X184547474Y-105115154D01*
X184650117Y-104790370D01*
X184960028Y-103809744D01*
X184965787Y-103802890D01*
X184974709Y-103802116D01*
X184975640Y-103802454D01*
G37*
%TD.AperFunction*%
%TD*%
%TA.AperFunction,Conductor*%
%TO.N,/GPIOT__RXN04*%
G36*
X184975640Y-101262454D02*
G01*
X185664075Y-101546637D01*
X185670415Y-101552962D01*
X185670426Y-101552988D01*
X185954606Y-102241416D01*
X185954595Y-102250370D01*
X185948255Y-102256695D01*
X185947317Y-102257036D01*
X184641909Y-102669589D01*
X184632987Y-102668815D01*
X184630110Y-102666706D01*
X184550357Y-102586953D01*
X184546930Y-102578680D01*
X184547474Y-102575154D01*
X184650117Y-102250370D01*
X184960028Y-101269744D01*
X184965787Y-101262890D01*
X184974709Y-101262116D01*
X184975640Y-101262454D01*
G37*
%TD.AperFunction*%
%TD*%
%TA.AperFunction,Conductor*%
%TO.N,/GPIOT__RXN08*%
G36*
X161388323Y-106629186D02*
G01*
X161396591Y-106632621D01*
X161400010Y-106640897D01*
X161399810Y-106643038D01*
X161163264Y-107907034D01*
X161160037Y-107913155D01*
X161080456Y-107992736D01*
X161072183Y-107996163D01*
X161064569Y-107993347D01*
X160111166Y-107176226D01*
X160107115Y-107168240D01*
X160109896Y-107159728D01*
X160110488Y-107159088D01*
X160636260Y-106631934D01*
X160644526Y-106628497D01*
X161388323Y-106629186D01*
G37*
%TD.AperFunction*%
%TD*%
%TA.AperFunction,Conductor*%
%TO.N,GND*%
G36*
X174602839Y-121177685D02*
G01*
X174648594Y-121230489D01*
X174659800Y-121282000D01*
X174659800Y-122747710D01*
X174640115Y-122814749D01*
X174587311Y-122860504D01*
X174535800Y-122871710D01*
X173445480Y-122871710D01*
X173378441Y-122852025D01*
X173332686Y-122799221D01*
X173321480Y-122747710D01*
X173321480Y-121282000D01*
X173341165Y-121214961D01*
X173393969Y-121169206D01*
X173445480Y-121158000D01*
X174535800Y-121158000D01*
X174602839Y-121177685D01*
G37*
%TD.AperFunction*%
%TD*%
%TA.AperFunction,Conductor*%
%TO.N,/GPIOT__RXP13*%
G36*
X201822327Y-106098880D02*
G01*
X201823764Y-106100099D01*
X202350104Y-106625059D01*
X202353542Y-106633328D01*
X202353542Y-106633354D01*
X202352851Y-107378457D01*
X202349416Y-107386727D01*
X202341140Y-107390146D01*
X202340144Y-107390103D01*
X201115303Y-107284313D01*
X201108037Y-107280929D01*
X201028279Y-107201171D01*
X201024852Y-107192898D01*
X201027047Y-107186077D01*
X201806000Y-106101556D01*
X201813609Y-106096837D01*
X201822327Y-106098880D01*
G37*
%TD.AperFunction*%
%TD*%
%TA.AperFunction,Conductor*%
%TO.N,GND*%
G36*
X167811639Y-133242685D02*
G01*
X167857394Y-133295489D01*
X167868600Y-133347000D01*
X167868600Y-134369000D01*
X167848915Y-134436039D01*
X167796111Y-134481794D01*
X167744600Y-134493000D01*
X166423300Y-134493000D01*
X166356261Y-134473315D01*
X166310506Y-134420511D01*
X166299300Y-134369000D01*
X166299300Y-133658218D01*
X166299296Y-133657282D01*
X166299276Y-133655065D01*
X166299275Y-133655051D01*
X166294387Y-133624028D01*
X166294386Y-133624027D01*
X166294386Y-133624022D01*
X166277665Y-133570625D01*
X166272000Y-133533573D01*
X166272000Y-133347000D01*
X166291685Y-133279961D01*
X166344489Y-133234206D01*
X166396000Y-133223000D01*
X167744600Y-133223000D01*
X167811639Y-133242685D01*
G37*
%TD.AperFunction*%
%TD*%
%TA.AperFunction,Conductor*%
%TO.N,/GPIOB__TXP13*%
G36*
X193318128Y-77589654D02*
G01*
X194006563Y-77873837D01*
X194012903Y-77880162D01*
X194012914Y-77880188D01*
X194297094Y-78568616D01*
X194297083Y-78577570D01*
X194290743Y-78583895D01*
X194289805Y-78584236D01*
X192984397Y-78996789D01*
X192975475Y-78996015D01*
X192972598Y-78993906D01*
X192892845Y-78914153D01*
X192889418Y-78905880D01*
X192889962Y-78902354D01*
X192992605Y-78577570D01*
X193302516Y-77596944D01*
X193308275Y-77590090D01*
X193317197Y-77589316D01*
X193318128Y-77589654D01*
G37*
%TD.AperFunction*%
%TD*%
%TA.AperFunction,Conductor*%
%TO.N,GND*%
G36*
X183230881Y-123539885D02*
G01*
X183276636Y-123592689D01*
X183287834Y-123642749D01*
X183310332Y-125565659D01*
X183291433Y-125632924D01*
X183239168Y-125679294D01*
X183186340Y-125691110D01*
X182097480Y-125691110D01*
X182030441Y-125671425D01*
X181984686Y-125618621D01*
X181973480Y-125567110D01*
X181973480Y-123644200D01*
X181993165Y-123577161D01*
X182045969Y-123531406D01*
X182097480Y-123520200D01*
X183163842Y-123520200D01*
X183230881Y-123539885D01*
G37*
%TD.AperFunction*%
%TD*%
%TA.AperFunction,Conductor*%
%TO.N,/NETL2_1*%
G36*
X161588639Y-118096800D02*
G01*
X161634394Y-118149604D01*
X161645600Y-118201115D01*
X161645600Y-123272285D01*
X161625915Y-123339324D01*
X161573111Y-123385079D01*
X161521600Y-123396285D01*
X160934400Y-123396285D01*
X160934400Y-124013034D01*
X160914715Y-124080073D01*
X160861911Y-124125828D01*
X160792753Y-124135772D01*
X160775465Y-124132011D01*
X160715424Y-124114381D01*
X160715415Y-124114379D01*
X160685255Y-124110042D01*
X160685250Y-124110042D01*
X160448800Y-124110042D01*
X160448792Y-124110042D01*
X160426034Y-124112489D01*
X160374512Y-124123698D01*
X160374401Y-124123738D01*
X160374075Y-124123793D01*
X160366945Y-124125345D01*
X160366875Y-124125026D01*
X160340445Y-124129552D01*
X160340509Y-124130199D01*
X160334439Y-124130796D01*
X160304668Y-124136717D01*
X160300906Y-124138276D01*
X160253452Y-124147715D01*
X160248600Y-124147715D01*
X160248600Y-124179457D01*
X160246217Y-124203648D01*
X160242400Y-124222835D01*
X160242400Y-124223797D01*
X160242100Y-124225879D01*
X160241803Y-124228901D01*
X160241668Y-124228887D01*
X160237377Y-124258731D01*
X160222040Y-124310963D01*
X160222037Y-124310976D01*
X160217700Y-124341136D01*
X160217700Y-124557115D01*
X160198015Y-124624154D01*
X160145211Y-124669909D01*
X160093700Y-124681115D01*
X159940800Y-124681115D01*
X159873761Y-124661430D01*
X159828006Y-124608626D01*
X159816800Y-124557115D01*
X159816800Y-123886670D01*
X159817944Y-123869868D01*
X159821437Y-123844325D01*
X159821437Y-123844320D01*
X159821061Y-123789762D01*
X159816967Y-123195744D01*
X159816944Y-123194101D01*
X159816860Y-123190323D01*
X159816831Y-123189000D01*
X159816800Y-123186240D01*
X159816800Y-123080915D01*
X159724380Y-122988495D01*
X159710323Y-122971704D01*
X159635862Y-122864841D01*
X159613687Y-122798584D01*
X159613600Y-122793951D01*
X159613600Y-119143915D01*
X159308800Y-118839115D01*
X158264400Y-118839115D01*
X158197361Y-118819430D01*
X158151606Y-118766626D01*
X158140400Y-118715115D01*
X158140400Y-118201115D01*
X158160085Y-118134076D01*
X158212889Y-118088321D01*
X158264400Y-118077115D01*
X161521600Y-118077115D01*
X161588639Y-118096800D01*
G37*
%TD.AperFunction*%
%TD*%
%TA.AperFunction,Conductor*%
%TO.N,/GPIOT__RXP06*%
G36*
X159947801Y-75049500D02*
G01*
X160636611Y-75333837D01*
X160642951Y-75340162D01*
X160642962Y-75340188D01*
X160926955Y-76028162D01*
X160926944Y-76037116D01*
X160920604Y-76043441D01*
X160919244Y-76043907D01*
X159583711Y-76411446D01*
X159574826Y-76410337D01*
X159572334Y-76408438D01*
X159492552Y-76328656D01*
X159489125Y-76320383D01*
X159489786Y-76316506D01*
X159591051Y-76028162D01*
X159932314Y-75056440D01*
X159938287Y-75049773D01*
X159947228Y-75049281D01*
X159947801Y-75049500D01*
G37*
%TD.AperFunction*%
%TD*%
%TA.AperFunction,Conductor*%
%TO.N,/GPIOT__RXP01*%
G36*
X160646928Y-82958694D02*
G01*
X161335307Y-83244235D01*
X161341636Y-83250570D01*
X161342240Y-83257605D01*
X161130305Y-84201448D01*
X161127162Y-84207158D01*
X161047397Y-84286923D01*
X161039124Y-84290350D01*
X161031536Y-84287556D01*
X160111217Y-83503422D01*
X160107142Y-83495448D01*
X160109899Y-83486928D01*
X160110502Y-83486274D01*
X160634161Y-82961238D01*
X160642430Y-82957801D01*
X160646928Y-82958694D01*
G37*
%TD.AperFunction*%
%TD*%
%TA.AperFunction,Conductor*%
%TO.N,/GPIOB__TXN02*%
G36*
X193318128Y-80129654D02*
G01*
X194006563Y-80413837D01*
X194012903Y-80420162D01*
X194012914Y-80420188D01*
X194297094Y-81108616D01*
X194297083Y-81117570D01*
X194290743Y-81123895D01*
X194289805Y-81124236D01*
X192984397Y-81536789D01*
X192975475Y-81536015D01*
X192972598Y-81533906D01*
X192892845Y-81454153D01*
X192889418Y-81445880D01*
X192889962Y-81442354D01*
X192992605Y-81117570D01*
X193302516Y-80136944D01*
X193308275Y-80130090D01*
X193317197Y-80129316D01*
X193318128Y-80129654D01*
G37*
%TD.AperFunction*%
%TD*%
%TA.AperFunction,Conductor*%
%TO.N,/GPIOT__RXP02*%
G36*
X176633349Y-103802535D02*
G01*
X177126095Y-104005938D01*
X177320884Y-104086346D01*
X177327224Y-104092671D01*
X177327232Y-104092689D01*
X177612037Y-104781243D01*
X177612032Y-104790198D01*
X177605697Y-104796527D01*
X177604593Y-104796920D01*
X176850096Y-105023744D01*
X176349097Y-105174360D01*
X176339344Y-105177292D01*
X176335976Y-105177787D01*
X176226385Y-105177787D01*
X176218112Y-105174360D01*
X176214685Y-105166087D01*
X176215171Y-105162750D01*
X176617683Y-103810017D01*
X176623327Y-103803066D01*
X176632234Y-103802141D01*
X176633349Y-103802535D01*
G37*
%TD.AperFunction*%
%TD*%
%TA.AperFunction,Conductor*%
%TO.N,/GPIOT__RXP03*%
G36*
X159948176Y-98722454D02*
G01*
X160636611Y-99006637D01*
X160642951Y-99012962D01*
X160642962Y-99012988D01*
X160927142Y-99701416D01*
X160927131Y-99710370D01*
X160920791Y-99716695D01*
X160919853Y-99717036D01*
X159614445Y-100129589D01*
X159605523Y-100128815D01*
X159602646Y-100126706D01*
X159522893Y-100046953D01*
X159519466Y-100038680D01*
X159520010Y-100035154D01*
X159622653Y-99710370D01*
X159932564Y-98729744D01*
X159938323Y-98722890D01*
X159947245Y-98722116D01*
X159948176Y-98722454D01*
G37*
%TD.AperFunction*%
%TD*%
%TA.AperFunction,Conductor*%
%TO.N,/GPIOB__TXN10*%
G36*
X226688080Y-80129654D02*
G01*
X227376515Y-80413837D01*
X227382855Y-80420162D01*
X227382866Y-80420188D01*
X227667046Y-81108616D01*
X227667035Y-81117570D01*
X227660695Y-81123895D01*
X227659757Y-81124236D01*
X226354349Y-81536789D01*
X226345427Y-81536015D01*
X226342550Y-81533906D01*
X226262797Y-81454153D01*
X226259370Y-81445880D01*
X226259914Y-81442354D01*
X226362557Y-81117570D01*
X226672468Y-80136944D01*
X226678227Y-80130090D01*
X226687149Y-80129316D01*
X226688080Y-80129654D01*
G37*
%TD.AperFunction*%
%TD*%
%TA.AperFunction,Conductor*%
%TO.N,VCCB_5*%
G36*
X236932618Y-69006138D02*
G01*
X236978423Y-69058899D01*
X236989676Y-69109748D01*
X237004513Y-71503231D01*
X236985244Y-71570392D01*
X236932725Y-71616473D01*
X236880515Y-71628000D01*
X234949999Y-71628000D01*
X234365800Y-72212199D01*
X234365800Y-76296255D01*
X234346115Y-76363294D01*
X234329086Y-76384330D01*
X231775000Y-78915522D01*
X231775000Y-83737324D01*
X231755315Y-83804363D01*
X231702511Y-83850118D01*
X231633353Y-83860062D01*
X231569797Y-83831037D01*
X231563319Y-83825005D01*
X231500492Y-83762178D01*
X231401800Y-83711894D01*
X231292402Y-83694567D01*
X231292398Y-83694567D01*
X231182999Y-83711894D01*
X231182998Y-83711894D01*
X231084307Y-83762178D01*
X231005978Y-83840507D01*
X230955694Y-83939198D01*
X230955694Y-83939199D01*
X230938367Y-84048597D01*
X230938367Y-84048602D01*
X230955694Y-84158000D01*
X230955694Y-84158001D01*
X231005978Y-84256692D01*
X231084307Y-84335021D01*
X231133090Y-84359876D01*
X231182998Y-84385305D01*
X231207861Y-84389243D01*
X231292398Y-84402633D01*
X231292400Y-84402633D01*
X231292402Y-84402633D01*
X231347101Y-84393969D01*
X231401802Y-84385305D01*
X231453061Y-84359187D01*
X231500492Y-84335021D01*
X231500492Y-84335020D01*
X231500495Y-84335019D01*
X231563319Y-84272195D01*
X231624642Y-84238710D01*
X231694334Y-84243694D01*
X231750267Y-84285566D01*
X231774684Y-84351030D01*
X231775000Y-84359876D01*
X231775000Y-87770548D01*
X231774403Y-87782702D01*
X231774301Y-87783741D01*
X231774300Y-87783745D01*
X231774300Y-88262190D01*
X231774301Y-88644546D01*
X231754617Y-88711585D01*
X231701813Y-88757340D01*
X231650301Y-88768546D01*
X231502499Y-88768546D01*
X231435460Y-88748861D01*
X231389705Y-88696057D01*
X231378499Y-88644546D01*
X231378499Y-87783749D01*
X231378498Y-87783741D01*
X231370982Y-87745946D01*
X231368600Y-87721760D01*
X231368600Y-87396946D01*
X228712621Y-84740967D01*
X228679136Y-84679644D01*
X228676302Y-84653040D01*
X228676800Y-84402633D01*
X228700986Y-72236010D01*
X228087076Y-71628000D01*
X228087075Y-71628000D01*
X226110977Y-71628000D01*
X226043938Y-71608315D01*
X225998183Y-71555511D01*
X225986979Y-71503346D01*
X225999543Y-69120056D01*
X226019580Y-69053122D01*
X226072625Y-69007646D01*
X226123422Y-68996710D01*
X236865560Y-68986517D01*
X236932618Y-69006138D01*
G37*
%TD.AperFunction*%
%TD*%
%TA.AperFunction,Conductor*%
%TO.N,/GPIOB__TXP10*%
G36*
X228128844Y-82956387D02*
G01*
X228137113Y-82959822D01*
X228140532Y-82968098D01*
X228140416Y-82969728D01*
X227964981Y-84208363D01*
X227961670Y-84214995D01*
X227881949Y-84294716D01*
X227873676Y-84298143D01*
X227866475Y-84295664D01*
X226851900Y-83503345D01*
X226847489Y-83495552D01*
X226849880Y-83486923D01*
X226850817Y-83485862D01*
X227376164Y-82959134D01*
X227384430Y-82955697D01*
X228128844Y-82956387D01*
G37*
%TD.AperFunction*%
%TD*%
%TA.AperFunction,Conductor*%
%TO.N,/GPIOT__RXP05*%
G36*
X168290664Y-75049654D02*
G01*
X168979099Y-75333837D01*
X168985439Y-75340162D01*
X168985450Y-75340188D01*
X169269630Y-76028616D01*
X169269619Y-76037570D01*
X169263279Y-76043895D01*
X169262341Y-76044236D01*
X167956933Y-76456789D01*
X167948011Y-76456015D01*
X167945134Y-76453906D01*
X167865381Y-76374153D01*
X167861954Y-76365880D01*
X167862498Y-76362354D01*
X167965141Y-76037570D01*
X168275052Y-75056944D01*
X168280811Y-75050090D01*
X168289733Y-75049316D01*
X168290664Y-75049654D01*
G37*
%TD.AperFunction*%
%TD*%
%TA.AperFunction,Conductor*%
%TO.N,/GPIOB__TXN13*%
G36*
X193318128Y-75049654D02*
G01*
X194006563Y-75333837D01*
X194012903Y-75340162D01*
X194012914Y-75340188D01*
X194297094Y-76028616D01*
X194297083Y-76037570D01*
X194290743Y-76043895D01*
X194289805Y-76044236D01*
X192984397Y-76456789D01*
X192975475Y-76456015D01*
X192972598Y-76453906D01*
X192892845Y-76374153D01*
X192889418Y-76365880D01*
X192889962Y-76362354D01*
X192992605Y-76037570D01*
X193302516Y-75056944D01*
X193308275Y-75050090D01*
X193317197Y-75049316D01*
X193318128Y-75049654D01*
G37*
%TD.AperFunction*%
%TD*%
%TA.AperFunction,Conductor*%
%TO.N,/GPIOT__RXN17*%
G36*
X184975640Y-80129654D02*
G01*
X185664075Y-80413837D01*
X185670415Y-80420162D01*
X185670426Y-80420188D01*
X185954606Y-81108616D01*
X185954595Y-81117570D01*
X185948255Y-81123895D01*
X185947317Y-81124236D01*
X184641909Y-81536789D01*
X184632987Y-81536015D01*
X184630110Y-81533906D01*
X184550357Y-81454153D01*
X184546930Y-81445880D01*
X184547474Y-81442354D01*
X184650117Y-81117570D01*
X184960028Y-80136944D01*
X184965787Y-80130090D01*
X184974709Y-80129316D01*
X184975640Y-80129654D01*
G37*
%TD.AperFunction*%
%TD*%
%TA.AperFunction,Conductor*%
%TO.N,/GPIOT__RXN01*%
G36*
X159948176Y-80129654D02*
G01*
X160636611Y-80413837D01*
X160642951Y-80420162D01*
X160642962Y-80420188D01*
X160927142Y-81108616D01*
X160927131Y-81117570D01*
X160920791Y-81123895D01*
X160919853Y-81124236D01*
X159614445Y-81536789D01*
X159605523Y-81536015D01*
X159602646Y-81533906D01*
X159522893Y-81454153D01*
X159519466Y-81445880D01*
X159520010Y-81442354D01*
X159622653Y-81117570D01*
X159932564Y-80136944D01*
X159938323Y-80130090D01*
X159947245Y-80129316D01*
X159948176Y-80129654D01*
G37*
%TD.AperFunction*%
%TD*%
%TA.AperFunction,Conductor*%
%TO.N,/GPIOB__TXN01*%
G36*
X201660616Y-80129654D02*
G01*
X202349051Y-80413837D01*
X202355391Y-80420162D01*
X202355402Y-80420188D01*
X202639582Y-81108616D01*
X202639571Y-81117570D01*
X202633231Y-81123895D01*
X202632293Y-81124236D01*
X201326885Y-81536789D01*
X201317963Y-81536015D01*
X201315086Y-81533906D01*
X201235333Y-81454153D01*
X201231906Y-81445880D01*
X201232450Y-81442354D01*
X201335093Y-81117570D01*
X201645004Y-80136944D01*
X201650763Y-80130090D01*
X201659685Y-80129316D01*
X201660616Y-80129654D01*
G37*
%TD.AperFunction*%
%TD*%
%TA.AperFunction,Conductor*%
%TO.N,/GPIOT__RXN06*%
G36*
X159948176Y-77589654D02*
G01*
X160636611Y-77873837D01*
X160642951Y-77880162D01*
X160642962Y-77880188D01*
X160927142Y-78568616D01*
X160927131Y-78577570D01*
X160920791Y-78583895D01*
X160919853Y-78584236D01*
X159614445Y-78996789D01*
X159605523Y-78996015D01*
X159602646Y-78993906D01*
X159522893Y-78914153D01*
X159519466Y-78905880D01*
X159520010Y-78902354D01*
X159622653Y-78577570D01*
X159932564Y-77596944D01*
X159938323Y-77590090D01*
X159947245Y-77589316D01*
X159948176Y-77589654D01*
G37*
%TD.AperFunction*%
%TD*%
%TA.AperFunction,Conductor*%
%TO.N,/GPIOB__TXP16*%
G36*
X227386831Y-106631493D02*
G01*
X228074968Y-106916934D01*
X228081296Y-106923268D01*
X228081829Y-106930601D01*
X227827603Y-107938817D01*
X227824531Y-107944229D01*
X227745136Y-108023624D01*
X227736863Y-108027051D01*
X227728741Y-108023772D01*
X227640659Y-107938817D01*
X226850052Y-107176274D01*
X226846476Y-107168064D01*
X226849753Y-107159731D01*
X226849842Y-107159640D01*
X227374065Y-106634038D01*
X227382334Y-106630601D01*
X227386831Y-106631493D01*
G37*
%TD.AperFunction*%
%TD*%
%TA.AperFunction,Conductor*%
%TO.N,/GPIOB__TXP19*%
G36*
X235030576Y-106342454D02*
G01*
X235719011Y-106626637D01*
X235725351Y-106632962D01*
X235725362Y-106632988D01*
X236009542Y-107321416D01*
X236009531Y-107330370D01*
X236003191Y-107336695D01*
X236002253Y-107337036D01*
X234696845Y-107749589D01*
X234687923Y-107748815D01*
X234685046Y-107746706D01*
X234605293Y-107666953D01*
X234601866Y-107658680D01*
X234602410Y-107655154D01*
X234705053Y-107330370D01*
X235014964Y-106349744D01*
X235020723Y-106342890D01*
X235029645Y-106342116D01*
X235030576Y-106342454D01*
G37*
%TD.AperFunction*%
%TD*%
%TA.AperFunction,Conductor*%
%TO.N,/GPIOT__RXN16*%
G36*
X178073319Y-82956386D02*
G01*
X178081587Y-82959821D01*
X178085006Y-82968097D01*
X178084809Y-82970222D01*
X177850233Y-84233398D01*
X177847003Y-84239535D01*
X177767416Y-84319122D01*
X177759143Y-84322549D01*
X177751544Y-84319744D01*
X177172166Y-83824695D01*
X176796169Y-83503424D01*
X176792105Y-83495444D01*
X176794874Y-83486929D01*
X176795478Y-83486274D01*
X177321236Y-82959134D01*
X177329502Y-82955697D01*
X178073319Y-82956386D01*
G37*
%TD.AperFunction*%
%TD*%
%TA.AperFunction,Conductor*%
%TO.N,/GPIOT__RXN21*%
G36*
X168290664Y-98722454D02*
G01*
X168979099Y-99006637D01*
X168985439Y-99012962D01*
X168985450Y-99012988D01*
X169269630Y-99701416D01*
X169269619Y-99710370D01*
X169263279Y-99716695D01*
X169262341Y-99717036D01*
X167956933Y-100129589D01*
X167948011Y-100128815D01*
X167945134Y-100126706D01*
X167865381Y-100046953D01*
X167861954Y-100038680D01*
X167862498Y-100035154D01*
X167965141Y-99710370D01*
X168275052Y-98729744D01*
X168280811Y-98722890D01*
X168289733Y-98722116D01*
X168290664Y-98722454D01*
G37*
%TD.AperFunction*%
%TD*%
%TA.AperFunction,Conductor*%
%TO.N,/GPIOB__TXP09*%
G36*
X226688080Y-75049654D02*
G01*
X227376515Y-75333837D01*
X227382855Y-75340162D01*
X227382866Y-75340188D01*
X227667046Y-76028616D01*
X227667035Y-76037570D01*
X227660695Y-76043895D01*
X227659757Y-76044236D01*
X226354349Y-76456789D01*
X226345427Y-76456015D01*
X226342550Y-76453906D01*
X226262797Y-76374153D01*
X226259370Y-76365880D01*
X226259914Y-76362354D01*
X226362557Y-76037570D01*
X226672468Y-75056944D01*
X226678227Y-75050090D01*
X226687149Y-75049316D01*
X226688080Y-75049654D01*
G37*
%TD.AperFunction*%
%TD*%
%TA.AperFunction,Conductor*%
%TO.N,/NETL1_1*%
G36*
X170197597Y-121175811D02*
G01*
X170243399Y-121228574D01*
X170254640Y-121278645D01*
X170302360Y-125121860D01*
X170283510Y-125189139D01*
X170231278Y-125235546D01*
X170178370Y-125247400D01*
X169341800Y-125247400D01*
X169341800Y-127536400D01*
X169322115Y-127603439D01*
X169269311Y-127649194D01*
X169217800Y-127660400D01*
X168270555Y-127660400D01*
X168203516Y-127640715D01*
X168157761Y-127587911D01*
X168146564Y-127537853D01*
X168139023Y-126894384D01*
X168073268Y-121283339D01*
X168092165Y-121216077D01*
X168144429Y-121169706D01*
X168197147Y-121157889D01*
X170130541Y-121156185D01*
X170197597Y-121175811D01*
G37*
%TD.AperFunction*%
%TD*%
%TA.AperFunction,Conductor*%
%TO.N,/GPIOT__RXN15*%
G36*
X176633152Y-77589654D02*
G01*
X177321587Y-77873837D01*
X177327927Y-77880162D01*
X177327938Y-77880188D01*
X177612118Y-78568616D01*
X177612107Y-78577570D01*
X177605767Y-78583895D01*
X177604829Y-78584236D01*
X176299421Y-78996789D01*
X176290499Y-78996015D01*
X176287622Y-78993906D01*
X176207869Y-78914153D01*
X176204442Y-78905880D01*
X176204986Y-78902354D01*
X176307629Y-78577570D01*
X176617540Y-77596944D01*
X176623299Y-77590090D01*
X176632221Y-77589316D01*
X176633152Y-77589654D01*
G37*
%TD.AperFunction*%
%TD*%
%TA.AperFunction,Conductor*%
%TO.N,/GPIOB__TXN07*%
G36*
X211445509Y-106629184D02*
G01*
X211453777Y-106632622D01*
X211457193Y-106640899D01*
X211457192Y-106641018D01*
X211442633Y-107909072D01*
X211439112Y-107917306D01*
X211430934Y-107920638D01*
X211318942Y-107920638D01*
X211312605Y-107918773D01*
X210411928Y-107338482D01*
X210406830Y-107331121D01*
X210407452Y-107324179D01*
X210692334Y-106635437D01*
X210698663Y-106629103D01*
X210703159Y-106628210D01*
X211445509Y-106629184D01*
G37*
%TD.AperFunction*%
%TD*%
%TA.AperFunction,Conductor*%
%TO.N,/GPIOT__RXP20*%
G36*
X168290664Y-82669654D02*
G01*
X168979099Y-82953837D01*
X168985439Y-82960162D01*
X168985450Y-82960188D01*
X169269630Y-83648616D01*
X169269619Y-83657570D01*
X169263279Y-83663895D01*
X169262341Y-83664236D01*
X167956933Y-84076789D01*
X167948011Y-84076015D01*
X167945134Y-84073906D01*
X167865381Y-83994153D01*
X167861954Y-83985880D01*
X167862498Y-83982354D01*
X167965141Y-83657570D01*
X168275052Y-82676944D01*
X168280811Y-82670090D01*
X168289733Y-82669316D01*
X168290664Y-82669654D01*
G37*
%TD.AperFunction*%
%TD*%
%TA.AperFunction,Conductor*%
%TO.N,/GPIOB__TXN15*%
G36*
X218343899Y-106341755D02*
G01*
X218849366Y-106550410D01*
X219031279Y-106625503D01*
X219037619Y-106631828D01*
X219038515Y-106636329D01*
X219037825Y-107380952D01*
X219034390Y-107389222D01*
X219027655Y-107392540D01*
X217873095Y-107544874D01*
X217864445Y-107542559D01*
X217863292Y-107541548D01*
X217783521Y-107461777D01*
X217780094Y-107453504D01*
X217781317Y-107448295D01*
X218328962Y-106347359D01*
X218335715Y-106341479D01*
X218343899Y-106341755D01*
G37*
%TD.AperFunction*%
%TD*%
%TA.AperFunction,Conductor*%
%TO.N,/GPIOT__RXN03*%
G36*
X159948176Y-101262454D02*
G01*
X160636611Y-101546637D01*
X160642951Y-101552962D01*
X160642962Y-101552988D01*
X160927142Y-102241416D01*
X160927131Y-102250370D01*
X160920791Y-102256695D01*
X160919853Y-102257036D01*
X159614445Y-102669589D01*
X159605523Y-102668815D01*
X159602646Y-102666706D01*
X159522893Y-102586953D01*
X159519466Y-102578680D01*
X159520010Y-102575154D01*
X159622653Y-102250370D01*
X159932564Y-101269744D01*
X159938323Y-101262890D01*
X159947245Y-101262116D01*
X159948176Y-101262454D01*
G37*
%TD.AperFunction*%
%TD*%
%TA.AperFunction,Conductor*%
%TO.N,VCC5V*%
G36*
X158540639Y-86227285D02*
G01*
X158586394Y-86280089D01*
X158597600Y-86331600D01*
X158597600Y-99923038D01*
X158577915Y-99990077D01*
X158561281Y-100010719D01*
X158343600Y-100228399D01*
X158343600Y-107848401D01*
X162114207Y-111367633D01*
X162149786Y-111427766D01*
X162153600Y-111458284D01*
X162153600Y-117376400D01*
X162133915Y-117443439D01*
X162081111Y-117489194D01*
X162029600Y-117500400D01*
X156181600Y-117500400D01*
X156114561Y-117480715D01*
X156068806Y-117427911D01*
X156057600Y-117376400D01*
X156057600Y-114198400D01*
X157271373Y-114198400D01*
X157291058Y-114486206D01*
X157291059Y-114486208D01*
X157349748Y-114768638D01*
X157349753Y-114768655D01*
X157446356Y-115040469D01*
X157446357Y-115040471D01*
X157579076Y-115296607D01*
X157745436Y-115532285D01*
X157942337Y-115743115D01*
X157942342Y-115743119D01*
X157942344Y-115743121D01*
X158166106Y-115925165D01*
X158166109Y-115925167D01*
X158166113Y-115925170D01*
X158295419Y-116003802D01*
X158412595Y-116075059D01*
X158593304Y-116153551D01*
X158677189Y-116189988D01*
X158954970Y-116267819D01*
X159206225Y-116302353D01*
X159240760Y-116307100D01*
X159240761Y-116307100D01*
X159529240Y-116307100D01*
X159560050Y-116302864D01*
X159815030Y-116267819D01*
X160092811Y-116189988D01*
X160357406Y-116075058D01*
X160603887Y-115925170D01*
X160827663Y-115743115D01*
X161024564Y-115532285D01*
X161190924Y-115296607D01*
X161323643Y-115040471D01*
X161420248Y-114768650D01*
X161420249Y-114768643D01*
X161420251Y-114768638D01*
X161447495Y-114637526D01*
X161478941Y-114486206D01*
X161498627Y-114198400D01*
X161478941Y-113910594D01*
X161458677Y-113813079D01*
X161420251Y-113628161D01*
X161420246Y-113628144D01*
X161323643Y-113356330D01*
X161323643Y-113356329D01*
X161190924Y-113100193D01*
X161024564Y-112864515D01*
X160827663Y-112653685D01*
X160827656Y-112653680D01*
X160827655Y-112653678D01*
X160603893Y-112471634D01*
X160603882Y-112471627D01*
X160357404Y-112321740D01*
X160092814Y-112206813D01*
X160092812Y-112206812D01*
X160092811Y-112206812D01*
X160013782Y-112184669D01*
X159815035Y-112128982D01*
X159815031Y-112128981D01*
X159815030Y-112128981D01*
X159672134Y-112109340D01*
X159529240Y-112089700D01*
X159529239Y-112089700D01*
X159240761Y-112089700D01*
X159240760Y-112089700D01*
X158954970Y-112128981D01*
X158954964Y-112128982D01*
X158677185Y-112206813D01*
X158412595Y-112321740D01*
X158166117Y-112471627D01*
X158166106Y-112471634D01*
X157942344Y-112653678D01*
X157745437Y-112864514D01*
X157579076Y-113100192D01*
X157446356Y-113356330D01*
X157349753Y-113628144D01*
X157349748Y-113628161D01*
X157291059Y-113910591D01*
X157291058Y-113910593D01*
X157271373Y-114198400D01*
X156057600Y-114198400D01*
X156057600Y-86331600D01*
X156077285Y-86264561D01*
X156130089Y-86218806D01*
X156181600Y-86207600D01*
X158473600Y-86207600D01*
X158540639Y-86227285D01*
G37*
%TD.AperFunction*%
%TD*%
%TA.AperFunction,Conductor*%
%TO.N,/GPIOT__RXN02*%
G36*
X178073138Y-106629186D02*
G01*
X178081407Y-106632621D01*
X178084826Y-106640897D01*
X178084602Y-106643165D01*
X177832301Y-107913725D01*
X177829098Y-107919719D01*
X177749562Y-107999255D01*
X177741289Y-108002682D01*
X177733568Y-107999773D01*
X176795927Y-107176241D01*
X176791972Y-107168206D01*
X176794857Y-107159729D01*
X176795350Y-107159202D01*
X177321236Y-106631934D01*
X177329502Y-106628497D01*
X178073138Y-106629186D01*
G37*
%TD.AperFunction*%
%TD*%
%TA.AperFunction,Conductor*%
%TO.N,/GPIOB__TXP07*%
G36*
X210003301Y-103802535D02*
G01*
X210496047Y-104005938D01*
X210690836Y-104086346D01*
X210697176Y-104092671D01*
X210697184Y-104092689D01*
X210981989Y-104781243D01*
X210981984Y-104790198D01*
X210975649Y-104796527D01*
X210974545Y-104796920D01*
X210220048Y-105023744D01*
X209719049Y-105174360D01*
X209709296Y-105177292D01*
X209705928Y-105177787D01*
X209596337Y-105177787D01*
X209588064Y-105174360D01*
X209584637Y-105166087D01*
X209585123Y-105162750D01*
X209987635Y-103810017D01*
X209993279Y-103803066D01*
X210002186Y-103802141D01*
X210003301Y-103802535D01*
G37*
%TD.AperFunction*%
%TD*%
%TA.AperFunction,Conductor*%
%TO.N,/GPIOT__RXN11*%
G36*
X201660616Y-101262454D02*
G01*
X202349051Y-101546637D01*
X202355391Y-101552962D01*
X202355402Y-101552988D01*
X202639582Y-102241416D01*
X202639571Y-102250370D01*
X202633231Y-102256695D01*
X202632293Y-102257036D01*
X201326885Y-102669589D01*
X201317963Y-102668815D01*
X201315086Y-102666706D01*
X201235333Y-102586953D01*
X201231906Y-102578680D01*
X201232450Y-102575154D01*
X201335093Y-102250370D01*
X201645004Y-101269744D01*
X201650763Y-101262890D01*
X201659685Y-101262116D01*
X201660616Y-101262454D01*
G37*
%TD.AperFunction*%
%TD*%
%TA.AperFunction,Conductor*%
%TO.N,/GPIOB__TXP11*%
G36*
X218345592Y-101262454D02*
G01*
X219034027Y-101546637D01*
X219040367Y-101552962D01*
X219040378Y-101552988D01*
X219324558Y-102241416D01*
X219324547Y-102250370D01*
X219318207Y-102256695D01*
X219317269Y-102257036D01*
X218011861Y-102669589D01*
X218002939Y-102668815D01*
X218000062Y-102666706D01*
X217920309Y-102586953D01*
X217916882Y-102578680D01*
X217917426Y-102575154D01*
X218020069Y-102250370D01*
X218329980Y-101269744D01*
X218335739Y-101262890D01*
X218344661Y-101262116D01*
X218345592Y-101262454D01*
G37*
%TD.AperFunction*%
%TD*%
%TA.AperFunction,Conductor*%
%TO.N,/GPIOT__RXP15*%
G36*
X176633152Y-75049654D02*
G01*
X177321587Y-75333837D01*
X177327927Y-75340162D01*
X177327938Y-75340188D01*
X177612118Y-76028616D01*
X177612107Y-76037570D01*
X177605767Y-76043895D01*
X177604829Y-76044236D01*
X176299421Y-76456789D01*
X176290499Y-76456015D01*
X176287622Y-76453906D01*
X176207869Y-76374153D01*
X176204442Y-76365880D01*
X176204986Y-76362354D01*
X176307629Y-76037570D01*
X176617540Y-75056944D01*
X176623299Y-75050090D01*
X176632221Y-75049316D01*
X176633152Y-75049654D01*
G37*
%TD.AperFunction*%
%TD*%
%TA.AperFunction,Conductor*%
%TO.N,/GPIOT__RXN09*%
G36*
X184975640Y-77589654D02*
G01*
X185664075Y-77873837D01*
X185670415Y-77880162D01*
X185670426Y-77880188D01*
X185954606Y-78568616D01*
X185954595Y-78577570D01*
X185948255Y-78583895D01*
X185947317Y-78584236D01*
X184641909Y-78996789D01*
X184632987Y-78996015D01*
X184630110Y-78993906D01*
X184550357Y-78914153D01*
X184546930Y-78905880D01*
X184547474Y-78902354D01*
X184650117Y-78577570D01*
X184960028Y-77596944D01*
X184965787Y-77590090D01*
X184974709Y-77589316D01*
X184975640Y-77589654D01*
G37*
%TD.AperFunction*%
%TD*%
%TA.AperFunction,Conductor*%
%TO.N,/GPIOB__TXN17*%
G36*
X226688080Y-98722454D02*
G01*
X227376515Y-99006637D01*
X227382855Y-99012962D01*
X227382866Y-99012988D01*
X227667046Y-99701416D01*
X227667035Y-99710370D01*
X227660695Y-99716695D01*
X227659757Y-99717036D01*
X226354349Y-100129589D01*
X226345427Y-100128815D01*
X226342550Y-100126706D01*
X226262797Y-100046953D01*
X226259370Y-100038680D01*
X226259914Y-100035154D01*
X226362557Y-99710370D01*
X226672468Y-98729744D01*
X226678227Y-98722890D01*
X226687149Y-98722116D01*
X226688080Y-98722454D01*
G37*
%TD.AperFunction*%
%TD*%
%TA.AperFunction,Conductor*%
%TO.N,/GPIOB__TXP18*%
G36*
X235030576Y-77589654D02*
G01*
X235719011Y-77873837D01*
X235725351Y-77880162D01*
X235725362Y-77880188D01*
X236009542Y-78568616D01*
X236009531Y-78577570D01*
X236003191Y-78583895D01*
X236002253Y-78584236D01*
X234696845Y-78996789D01*
X234687923Y-78996015D01*
X234685046Y-78993906D01*
X234605293Y-78914153D01*
X234601866Y-78905880D01*
X234602410Y-78902354D01*
X234705053Y-78577570D01*
X235014964Y-77596944D01*
X235020723Y-77590090D01*
X235029645Y-77589316D01*
X235030576Y-77589654D01*
G37*
%TD.AperFunction*%
%TD*%
%TA.AperFunction,Conductor*%
%TO.N,1.8V*%
G36*
X179622639Y-121177685D02*
G01*
X179668394Y-121230489D01*
X179679600Y-121282000D01*
X179679600Y-123325588D01*
X179806600Y-123444000D01*
X181282800Y-123444000D01*
X181349839Y-123463685D01*
X181395594Y-123516489D01*
X181406800Y-123568000D01*
X181406800Y-124942600D01*
X181663800Y-124942600D01*
X181730839Y-124962285D01*
X181776594Y-125015089D01*
X181787800Y-125066600D01*
X181787800Y-127494547D01*
X181768115Y-127561586D01*
X181715311Y-127607341D01*
X181664145Y-127618547D01*
X178641890Y-127626945D01*
X178574796Y-127607446D01*
X178528894Y-127554770D01*
X178517545Y-127502945D01*
X178517545Y-126230995D01*
X178492145Y-126205595D01*
X177922345Y-126205595D01*
X177855306Y-126185910D01*
X177809551Y-126133106D01*
X177798345Y-126081646D01*
X177796356Y-121282051D01*
X177816013Y-121215004D01*
X177868798Y-121169227D01*
X177920356Y-121158000D01*
X179555600Y-121158000D01*
X179622639Y-121177685D01*
G37*
%TD.AperFunction*%
%TD*%
%TA.AperFunction,Conductor*%
%TO.N,/GPIOT__RXP04*%
G36*
X184975640Y-98722454D02*
G01*
X185664075Y-99006637D01*
X185670415Y-99012962D01*
X185670426Y-99012988D01*
X185954606Y-99701416D01*
X185954595Y-99710370D01*
X185948255Y-99716695D01*
X185947317Y-99717036D01*
X184641909Y-100129589D01*
X184632987Y-100128815D01*
X184630110Y-100126706D01*
X184550357Y-100046953D01*
X184546930Y-100038680D01*
X184547474Y-100035154D01*
X184650117Y-99710370D01*
X184960028Y-98729744D01*
X184965787Y-98722890D01*
X184974709Y-98722116D01*
X184975640Y-98722454D01*
G37*
%TD.AperFunction*%
%TD*%
%TA.AperFunction,Conductor*%
%TO.N,/GPIOT__RXN19*%
G36*
X176633152Y-101262454D02*
G01*
X177321587Y-101546637D01*
X177327927Y-101552962D01*
X177327938Y-101552988D01*
X177612118Y-102241416D01*
X177612107Y-102250370D01*
X177605767Y-102256695D01*
X177604829Y-102257036D01*
X176299421Y-102669589D01*
X176290499Y-102668815D01*
X176287622Y-102666706D01*
X176207869Y-102586953D01*
X176204442Y-102578680D01*
X176204986Y-102575154D01*
X176307629Y-102250370D01*
X176617540Y-101269744D01*
X176623299Y-101262890D01*
X176632221Y-101262116D01*
X176633152Y-101262454D01*
G37*
%TD.AperFunction*%
%TD*%
%TA.AperFunction,Conductor*%
%TO.N,/GPIOB__TXP05*%
G36*
X210003104Y-77589654D02*
G01*
X210691539Y-77873837D01*
X210697879Y-77880162D01*
X210697890Y-77880188D01*
X210982070Y-78568616D01*
X210982059Y-78577570D01*
X210975719Y-78583895D01*
X210974781Y-78584236D01*
X209669373Y-78996789D01*
X209660451Y-78996015D01*
X209657574Y-78993906D01*
X209577821Y-78914153D01*
X209574394Y-78905880D01*
X209574938Y-78902354D01*
X209677581Y-78577570D01*
X209987492Y-77596944D01*
X209993251Y-77590090D01*
X210002173Y-77589316D01*
X210003104Y-77589654D01*
G37*
%TD.AperFunction*%
%TD*%
%TA.AperFunction,Conductor*%
%TO.N,VCCB_1*%
G36*
X162972439Y-92628085D02*
G01*
X163018194Y-92680889D01*
X163029400Y-92732400D01*
X163029400Y-93036657D01*
X163009715Y-93103696D01*
X162961697Y-93147141D01*
X162936104Y-93160181D01*
X162936103Y-93160182D01*
X162857777Y-93238509D01*
X162807494Y-93337198D01*
X162807494Y-93337199D01*
X162790167Y-93446597D01*
X162790167Y-93446602D01*
X162807494Y-93556000D01*
X162807494Y-93556001D01*
X162857778Y-93654692D01*
X162936107Y-93733021D01*
X163001061Y-93766115D01*
X163034798Y-93783305D01*
X163071265Y-93789081D01*
X163144198Y-93800633D01*
X163144200Y-93800633D01*
X163144202Y-93800633D01*
X163253598Y-93783306D01*
X163253599Y-93783305D01*
X163253602Y-93783305D01*
X163258299Y-93780911D01*
X163326966Y-93768014D01*
X163391707Y-93794288D01*
X163431966Y-93851394D01*
X163438595Y-93891395D01*
X163438595Y-94102033D01*
X163418910Y-94169072D01*
X163370892Y-94212517D01*
X163342504Y-94226981D01*
X163342503Y-94226982D01*
X163264177Y-94305309D01*
X163213894Y-94403998D01*
X163213894Y-94403999D01*
X163196567Y-94513397D01*
X163196567Y-94513402D01*
X163213894Y-94622800D01*
X163213894Y-94622801D01*
X163264178Y-94721492D01*
X163342507Y-94799821D01*
X163407461Y-94832915D01*
X163441198Y-94850105D01*
X163477665Y-94855881D01*
X163550598Y-94867433D01*
X163550600Y-94867433D01*
X163550602Y-94867433D01*
X163605301Y-94858769D01*
X163660002Y-94850105D01*
X163660005Y-94850103D01*
X163669278Y-94847091D01*
X163670040Y-94849437D01*
X163724883Y-94839136D01*
X163789624Y-94865410D01*
X163829883Y-94922515D01*
X163836513Y-94962517D01*
X163836513Y-95173154D01*
X163816828Y-95240193D01*
X163768810Y-95283638D01*
X163748905Y-95293780D01*
X163670578Y-95372107D01*
X163620294Y-95470798D01*
X163620294Y-95470799D01*
X163602967Y-95580197D01*
X163602967Y-95580202D01*
X163620294Y-95689600D01*
X163620294Y-95689601D01*
X163670578Y-95788292D01*
X163748907Y-95866621D01*
X163813861Y-95899715D01*
X163847598Y-95916905D01*
X163884065Y-95922681D01*
X163956998Y-95934233D01*
X163957000Y-95934233D01*
X163957002Y-95934233D01*
X164011701Y-95925569D01*
X164066402Y-95916905D01*
X164117661Y-95890787D01*
X164165092Y-95866621D01*
X164165092Y-95866620D01*
X164165095Y-95866619D01*
X164243419Y-95788295D01*
X164293705Y-95689602D01*
X164311033Y-95580200D01*
X164293705Y-95470798D01*
X164243421Y-95372107D01*
X164204032Y-95332718D01*
X164170547Y-95271395D01*
X164167713Y-95245037D01*
X164167713Y-93800780D01*
X164187398Y-93733741D01*
X164240202Y-93687986D01*
X164309360Y-93678042D01*
X164348003Y-93690293D01*
X164380998Y-93707105D01*
X164381000Y-93707105D01*
X164381002Y-93707106D01*
X164490398Y-93724433D01*
X164490400Y-93724433D01*
X164490402Y-93724433D01*
X164545101Y-93715769D01*
X164599802Y-93707105D01*
X164656842Y-93678042D01*
X164698492Y-93656821D01*
X164698492Y-93656820D01*
X164698495Y-93656819D01*
X164776819Y-93578495D01*
X164801514Y-93530026D01*
X164849488Y-93479230D01*
X164917309Y-93462434D01*
X164983444Y-93484970D01*
X165026896Y-93539685D01*
X165036000Y-93586320D01*
X165036000Y-95229161D01*
X165019248Y-95286208D01*
X165021211Y-95287208D01*
X164966494Y-95394598D01*
X164966494Y-95394599D01*
X164949167Y-95503997D01*
X164949167Y-95504002D01*
X164966494Y-95613400D01*
X164966494Y-95613401D01*
X165016778Y-95712092D01*
X165095107Y-95790421D01*
X165160052Y-95823511D01*
X165193798Y-95840705D01*
X165230265Y-95846481D01*
X165303198Y-95858033D01*
X165303200Y-95858033D01*
X165303202Y-95858033D01*
X165357901Y-95849369D01*
X165412602Y-95840705D01*
X165463861Y-95814587D01*
X165511292Y-95790421D01*
X165511292Y-95790420D01*
X165511295Y-95790419D01*
X165589619Y-95712095D01*
X165639905Y-95613402D01*
X165657233Y-95504000D01*
X165651974Y-95470799D01*
X165639905Y-95394599D01*
X165639905Y-95394598D01*
X165589621Y-95295907D01*
X165511294Y-95217580D01*
X165434905Y-95178658D01*
X165384109Y-95130683D01*
X165367200Y-95068173D01*
X165367200Y-94893629D01*
X165386885Y-94826590D01*
X165439689Y-94780835D01*
X165508847Y-94770891D01*
X165517125Y-94772817D01*
X165633398Y-94791233D01*
X165633400Y-94791233D01*
X165633402Y-94791233D01*
X165688101Y-94782569D01*
X165742802Y-94773905D01*
X165794061Y-94747787D01*
X165841492Y-94723621D01*
X165841492Y-94723620D01*
X165841495Y-94723619D01*
X165919819Y-94645295D01*
X165970105Y-94546602D01*
X165987433Y-94437200D01*
X165982174Y-94403999D01*
X165970105Y-94327799D01*
X165970105Y-94327798D01*
X165919822Y-94229109D01*
X165919820Y-94229107D01*
X165919819Y-94229105D01*
X165841495Y-94150781D01*
X165841493Y-94150780D01*
X165841492Y-94150779D01*
X165828498Y-94144158D01*
X165777703Y-94096182D01*
X165760796Y-94033675D01*
X165760796Y-93809612D01*
X165780481Y-93742573D01*
X165833285Y-93696818D01*
X165902443Y-93686874D01*
X165941087Y-93699126D01*
X165990756Y-93724433D01*
X166006600Y-93732506D01*
X166115998Y-93749833D01*
X166116000Y-93749833D01*
X166116002Y-93749833D01*
X166170701Y-93741169D01*
X166225402Y-93732505D01*
X166308245Y-93690295D01*
X166324092Y-93682221D01*
X166324092Y-93682220D01*
X166324095Y-93682219D01*
X166402419Y-93603895D01*
X166415362Y-93578494D01*
X166440056Y-93530027D01*
X166452705Y-93505202D01*
X166470033Y-93395800D01*
X166452705Y-93286398D01*
X166448027Y-93277217D01*
X166402421Y-93187707D01*
X166324093Y-93109379D01*
X166237709Y-93065365D01*
X166186913Y-93017391D01*
X166170003Y-92954880D01*
X166170003Y-92782181D01*
X166189688Y-92715142D01*
X166242492Y-92669387D01*
X166311650Y-92659443D01*
X166332327Y-92664252D01*
X166336796Y-92665704D01*
X166336798Y-92665705D01*
X166336799Y-92665705D01*
X166336802Y-92665706D01*
X166446198Y-92683033D01*
X166446200Y-92683033D01*
X166446202Y-92683033D01*
X166555598Y-92665706D01*
X166555599Y-92665705D01*
X166555602Y-92665705D01*
X166641548Y-92621914D01*
X166697841Y-92608400D01*
X170157600Y-92608400D01*
X170224639Y-92628085D01*
X170270394Y-92680889D01*
X170281600Y-92732400D01*
X170281600Y-95126000D01*
X170261915Y-95193039D01*
X170209111Y-95238794D01*
X170157600Y-95250000D01*
X168401999Y-95250000D01*
X167640000Y-96011999D01*
X167640000Y-99846499D01*
X167620315Y-99913538D01*
X167603272Y-99934587D01*
X164896801Y-102615997D01*
X164896800Y-102616001D01*
X164896800Y-107472647D01*
X164877115Y-107539686D01*
X164824311Y-107585441D01*
X164755153Y-107595385D01*
X164716507Y-107583133D01*
X164675998Y-107562493D01*
X164566602Y-107545167D01*
X164566598Y-107545167D01*
X164457199Y-107562494D01*
X164457198Y-107562494D01*
X164358507Y-107612778D01*
X164280178Y-107691107D01*
X164229894Y-107789798D01*
X164229894Y-107789799D01*
X164212567Y-107899197D01*
X164212567Y-107899202D01*
X164229894Y-108008600D01*
X164229894Y-108008601D01*
X164280178Y-108107292D01*
X164358507Y-108185621D01*
X164416693Y-108215267D01*
X164457198Y-108235905D01*
X164493665Y-108241681D01*
X164566598Y-108253233D01*
X164566600Y-108253233D01*
X164566602Y-108253233D01*
X164675997Y-108235906D01*
X164675997Y-108235905D01*
X164676002Y-108235905D01*
X164716507Y-108215266D01*
X164785175Y-108202371D01*
X164849915Y-108228648D01*
X164890172Y-108285754D01*
X164896800Y-108325752D01*
X164896800Y-112321800D01*
X164877115Y-112388839D01*
X164824311Y-112434594D01*
X164772800Y-112445800D01*
X164766800Y-112445800D01*
X164699761Y-112426115D01*
X164654006Y-112373311D01*
X164642800Y-112321800D01*
X164642800Y-111099601D01*
X164642799Y-111099599D01*
X162189279Y-108621043D01*
X162156106Y-108559551D01*
X162153405Y-108534288D01*
X162105572Y-96053986D01*
X161298800Y-95250000D01*
X159455135Y-95250000D01*
X159388096Y-95230315D01*
X159342341Y-95177511D01*
X159331135Y-95126341D01*
X159330374Y-94849437D01*
X159327236Y-93707105D01*
X159324560Y-92732741D01*
X159344061Y-92665647D01*
X159396739Y-92619748D01*
X159448560Y-92608400D01*
X162905400Y-92608400D01*
X162972439Y-92628085D01*
G37*
%TD.AperFunction*%
%TD*%
%TA.AperFunction,Conductor*%
%TO.N,/GPIOB__TXN09*%
G36*
X226688080Y-77589654D02*
G01*
X227376515Y-77873837D01*
X227382855Y-77880162D01*
X227382866Y-77880188D01*
X227667046Y-78568616D01*
X227667035Y-78577570D01*
X227660695Y-78583895D01*
X227659757Y-78584236D01*
X226354349Y-78996789D01*
X226345427Y-78996015D01*
X226342550Y-78993906D01*
X226262797Y-78914153D01*
X226259370Y-78905880D01*
X226259914Y-78902354D01*
X226362557Y-78577570D01*
X226672468Y-77596944D01*
X226678227Y-77590090D01*
X226687149Y-77589316D01*
X226688080Y-77589654D01*
G37*
%TD.AperFunction*%
%TD*%
%TA.AperFunction,Conductor*%
%TO.N,/GPIOB__TXN03*%
G36*
X211396498Y-82669668D02*
G01*
X211402823Y-82676008D01*
X211403164Y-82676946D01*
X211815717Y-83982354D01*
X211814943Y-83991276D01*
X211812834Y-83994153D01*
X211733081Y-84073906D01*
X211724808Y-84077333D01*
X211721282Y-84076789D01*
X210415874Y-83664236D01*
X210409018Y-83658476D01*
X210408244Y-83649554D01*
X210408579Y-83648630D01*
X210692765Y-82960187D01*
X210699089Y-82953848D01*
X211387545Y-82669657D01*
X211396498Y-82669668D01*
G37*
%TD.AperFunction*%
%TD*%
%TA.AperFunction,Conductor*%
%TO.N,VCCB_4*%
G36*
X220313640Y-68984085D02*
G01*
X220359395Y-69036889D01*
X220370601Y-69088199D01*
X220374520Y-71503799D01*
X220354944Y-71570870D01*
X220302214Y-71616711D01*
X220250520Y-71628000D01*
X218185999Y-71628000D01*
X217678000Y-72135999D01*
X217678000Y-76148638D01*
X217658315Y-76215677D01*
X217641681Y-76236319D01*
X215011000Y-78866999D01*
X215010999Y-78867000D01*
X215023467Y-83691821D01*
X215003955Y-83758911D01*
X214951270Y-83804802D01*
X214882137Y-83814924D01*
X214843174Y-83802626D01*
X214764800Y-83762694D01*
X214655402Y-83745367D01*
X214655398Y-83745367D01*
X214545999Y-83762694D01*
X214545998Y-83762694D01*
X214447307Y-83812978D01*
X214368978Y-83891307D01*
X214318694Y-83989998D01*
X214318694Y-83989999D01*
X214301367Y-84099397D01*
X214301367Y-84099402D01*
X214318694Y-84208800D01*
X214318694Y-84208801D01*
X214368978Y-84307492D01*
X214447307Y-84385821D01*
X214491786Y-84408483D01*
X214545998Y-84436105D01*
X214582465Y-84441881D01*
X214655398Y-84453433D01*
X214655400Y-84453433D01*
X214655402Y-84453433D01*
X214764799Y-84436106D01*
X214764800Y-84436105D01*
X214764802Y-84436105D01*
X214845276Y-84395101D01*
X214913944Y-84382206D01*
X214978684Y-84408483D01*
X215018941Y-84465589D01*
X215025569Y-84505267D01*
X215036079Y-88572480D01*
X215016567Y-88639570D01*
X214963882Y-88685461D01*
X214912079Y-88696800D01*
X214878668Y-88696800D01*
X214811629Y-88677115D01*
X214765874Y-88624311D01*
X214754668Y-88572800D01*
X214754668Y-86657823D01*
X214754667Y-86657821D01*
X212007185Y-83907533D01*
X211973731Y-83846193D01*
X211970917Y-83818686D01*
X211972157Y-83691821D01*
X212085183Y-72121141D01*
X211596822Y-71628000D01*
X209470800Y-71628000D01*
X209403761Y-71608315D01*
X209358006Y-71555511D01*
X209346800Y-71504000D01*
X209346800Y-69088400D01*
X209366485Y-69021361D01*
X209419289Y-68975606D01*
X209470800Y-68964400D01*
X220246601Y-68964400D01*
X220313640Y-68984085D01*
G37*
%TD.AperFunction*%
%TD*%
%TA.AperFunction,Conductor*%
%TO.N,/GPIOT__RXN05*%
G36*
X168290664Y-77589654D02*
G01*
X168979099Y-77873837D01*
X168985439Y-77880162D01*
X168985450Y-77880188D01*
X169269630Y-78568616D01*
X169269619Y-78577570D01*
X169263279Y-78583895D01*
X169262341Y-78584236D01*
X167956933Y-78996789D01*
X167948011Y-78996015D01*
X167945134Y-78993906D01*
X167865381Y-78914153D01*
X167861954Y-78905880D01*
X167862498Y-78902354D01*
X167965141Y-78577570D01*
X168275052Y-77596944D01*
X168280811Y-77590090D01*
X168289733Y-77589316D01*
X168290664Y-77589654D01*
G37*
%TD.AperFunction*%
%TD*%
%TA.AperFunction,Conductor*%
%TO.N,/GPIOB__TXN05*%
G36*
X210003104Y-75049654D02*
G01*
X210691539Y-75333837D01*
X210697879Y-75340162D01*
X210697890Y-75340188D01*
X210982070Y-76028616D01*
X210982059Y-76037570D01*
X210975719Y-76043895D01*
X210974781Y-76044236D01*
X209669373Y-76456789D01*
X209660451Y-76456015D01*
X209657574Y-76453906D01*
X209577821Y-76374153D01*
X209574394Y-76365880D01*
X209574938Y-76362354D01*
X209677581Y-76037570D01*
X209987492Y-75056944D01*
X209993251Y-75050090D01*
X210002173Y-75049316D01*
X210003104Y-75049654D01*
G37*
%TD.AperFunction*%
%TD*%
%TA.AperFunction,Conductor*%
%TO.N,5V_1*%
G36*
X164989048Y-119443000D02*
G01*
X165009239Y-119459184D01*
X165531973Y-119976575D01*
X166725600Y-121158000D01*
X167770000Y-121158000D01*
X167837039Y-121177685D01*
X167882794Y-121230489D01*
X167894000Y-121282000D01*
X167894000Y-127536400D01*
X167874315Y-127603439D01*
X167821511Y-127649194D01*
X167770000Y-127660400D01*
X166751000Y-127660400D01*
X166726421Y-131347227D01*
X166706290Y-131414133D01*
X166653182Y-131459535D01*
X166602424Y-131470400D01*
X166116000Y-131470400D01*
X166116000Y-132156200D01*
X166141400Y-132181600D01*
X166804800Y-132181600D01*
X166871839Y-132201285D01*
X166917594Y-132254089D01*
X166928800Y-132305600D01*
X166928800Y-132502700D01*
X166909115Y-132569739D01*
X166856311Y-132615494D01*
X166804800Y-132626700D01*
X166256949Y-132626700D01*
X166256948Y-132626700D01*
X166256946Y-132626701D01*
X166235734Y-132630919D01*
X166211553Y-132633300D01*
X165683100Y-132633300D01*
X165616061Y-132613615D01*
X165570306Y-132560811D01*
X165559100Y-132509300D01*
X165559099Y-132218749D01*
X165559098Y-132218741D01*
X165555626Y-132201285D01*
X165553176Y-132188963D01*
X165552693Y-132188241D01*
X165552127Y-132186433D01*
X165548502Y-132177679D01*
X165549285Y-132177354D01*
X165531820Y-132121563D01*
X165531800Y-132119356D01*
X165531800Y-132105400D01*
X165444660Y-132105400D01*
X165409725Y-132100377D01*
X165336374Y-132078839D01*
X165336365Y-132078837D01*
X165306205Y-132074500D01*
X165306200Y-132074500D01*
X164899300Y-132074500D01*
X164832261Y-132054815D01*
X164786506Y-132002011D01*
X164775300Y-131950500D01*
X164775300Y-131188008D01*
X164775299Y-131187992D01*
X164772852Y-131165233D01*
X164772632Y-131164225D01*
X164772523Y-131163204D01*
X164772320Y-131161951D01*
X164772387Y-131161940D01*
X164769800Y-131137872D01*
X164769800Y-123512715D01*
X164414762Y-123512715D01*
X164347723Y-123493030D01*
X164327081Y-123476396D01*
X163931600Y-123080915D01*
X163014200Y-123080915D01*
X162947161Y-123061230D01*
X162901406Y-123008426D01*
X162890200Y-122956915D01*
X162890200Y-119547315D01*
X162909885Y-119480276D01*
X162962689Y-119434521D01*
X163014200Y-119423315D01*
X164922009Y-119423315D01*
X164989048Y-119443000D01*
G37*
%TD.AperFunction*%
%TD*%
%TA.AperFunction,Conductor*%
%TO.N,/GPIOB__TXN18*%
G36*
X235030576Y-75049654D02*
G01*
X235719011Y-75333837D01*
X235725351Y-75340162D01*
X235725362Y-75340188D01*
X236009542Y-76028616D01*
X236009531Y-76037570D01*
X236003191Y-76043895D01*
X236002253Y-76044236D01*
X234696845Y-76456789D01*
X234687923Y-76456015D01*
X234685046Y-76453906D01*
X234605293Y-76374153D01*
X234601866Y-76365880D01*
X234602410Y-76362354D01*
X234705053Y-76037570D01*
X235014964Y-75056944D01*
X235020723Y-75050090D01*
X235029645Y-75049316D01*
X235030576Y-75049654D01*
G37*
%TD.AperFunction*%
%TD*%
%TA.AperFunction,Conductor*%
%TO.N,/GPIOB__TXN04*%
G36*
X218345592Y-77589654D02*
G01*
X219034027Y-77873837D01*
X219040367Y-77880162D01*
X219040378Y-77880188D01*
X219324558Y-78568616D01*
X219324547Y-78577570D01*
X219318207Y-78583895D01*
X219317269Y-78584236D01*
X218011861Y-78996789D01*
X218002939Y-78996015D01*
X218000062Y-78993906D01*
X217920309Y-78914153D01*
X217916882Y-78905880D01*
X217917426Y-78902354D01*
X218020069Y-78577570D01*
X218329980Y-77596944D01*
X218335739Y-77590090D01*
X218344661Y-77589316D01*
X218345592Y-77589654D01*
G37*
%TD.AperFunction*%
%TD*%
%TA.AperFunction,Conductor*%
%TO.N,/GPIOB__TXN12*%
G36*
X235030576Y-82669654D02*
G01*
X235719011Y-82953837D01*
X235725351Y-82960162D01*
X235725362Y-82960188D01*
X236009542Y-83648616D01*
X236009531Y-83657570D01*
X236003191Y-83663895D01*
X236002253Y-83664236D01*
X234696845Y-84076789D01*
X234687923Y-84076015D01*
X234685046Y-84073906D01*
X234605293Y-83994153D01*
X234601866Y-83985880D01*
X234602410Y-83982354D01*
X234705053Y-83657570D01*
X235014964Y-82676944D01*
X235020723Y-82670090D01*
X235029645Y-82669316D01*
X235030576Y-82669654D01*
G37*
%TD.AperFunction*%
%TD*%
%TA.AperFunction,Conductor*%
%TO.N,/GPIOT__RXP21*%
G36*
X168290664Y-101262454D02*
G01*
X168979099Y-101546637D01*
X168985439Y-101552962D01*
X168985450Y-101552988D01*
X169269630Y-102241416D01*
X169269619Y-102250370D01*
X169263279Y-102256695D01*
X169262341Y-102257036D01*
X167956933Y-102669589D01*
X167948011Y-102668815D01*
X167945134Y-102666706D01*
X167865381Y-102586953D01*
X167861954Y-102578680D01*
X167862498Y-102575154D01*
X167965141Y-102250370D01*
X168275052Y-101269744D01*
X168280811Y-101262890D01*
X168289733Y-101262116D01*
X168290664Y-101262454D01*
G37*
%TD.AperFunction*%
%TD*%
%TA.AperFunction,Conductor*%
%TO.N,GND*%
G36*
X177219315Y-125285679D02*
G01*
X177265254Y-125338323D01*
X177276640Y-125390228D01*
X177276640Y-130472795D01*
X177327440Y-130523595D01*
X178107800Y-130523595D01*
X178174839Y-130543280D01*
X178220594Y-130596084D01*
X178231800Y-130647595D01*
X178231800Y-134460595D01*
X178264456Y-134504137D01*
X178307999Y-134562195D01*
X178308000Y-134562195D01*
X179689640Y-134562195D01*
X179791240Y-134460595D01*
X179791240Y-133238825D01*
X179810925Y-133171786D01*
X179863729Y-133126031D01*
X179915666Y-133114826D01*
X180469491Y-133116748D01*
X180536462Y-133136665D01*
X180582033Y-133189627D01*
X180593057Y-133241685D01*
X180569531Y-136351138D01*
X180549340Y-136418027D01*
X180496192Y-136463381D01*
X180445535Y-136474200D01*
X176603200Y-136474200D01*
X176536161Y-136454515D01*
X176490406Y-136401711D01*
X176479200Y-136350200D01*
X176479200Y-125392147D01*
X176498885Y-125325108D01*
X176551689Y-125279353D01*
X176602764Y-125268148D01*
X177152208Y-125266229D01*
X177219315Y-125285679D01*
G37*
%TD.AperFunction*%
%TD*%
%TA.AperFunction,Conductor*%
%TO.N,GND*%
G36*
X173510639Y-133135080D02*
G01*
X173556394Y-133187884D01*
X173567600Y-133239395D01*
X173567600Y-134515395D01*
X173547915Y-134582434D01*
X173495111Y-134628189D01*
X173443600Y-134639395D01*
X173081883Y-134639395D01*
X173014844Y-134619710D01*
X172969089Y-134566906D01*
X172957883Y-134515395D01*
X172957883Y-133239395D01*
X172977568Y-133172356D01*
X173030372Y-133126601D01*
X173081883Y-133115395D01*
X173443600Y-133115395D01*
X173510639Y-133135080D01*
G37*
%TD.AperFunction*%
%TD*%
%TA.AperFunction,Conductor*%
%TO.N,GND*%
G36*
X163900039Y-123362085D02*
G01*
X163945794Y-123414889D01*
X163957000Y-123466400D01*
X163957000Y-130832900D01*
X163937315Y-130899939D01*
X163884511Y-130945694D01*
X163833000Y-130956900D01*
X163826992Y-130956900D01*
X163804236Y-130959347D01*
X163804216Y-130959350D01*
X163803232Y-130959565D01*
X163802226Y-130959673D01*
X163800943Y-130959881D01*
X163800931Y-130959812D01*
X163776871Y-130962400D01*
X163550600Y-130962400D01*
X163550600Y-136375600D01*
X163530915Y-136442639D01*
X163478111Y-136488394D01*
X163426600Y-136499600D01*
X160601740Y-136499600D01*
X160534701Y-136479915D01*
X160488946Y-136427111D01*
X160477741Y-136375062D01*
X160481895Y-135418331D01*
X160502600Y-130650115D01*
X160483545Y-125798715D01*
X160483545Y-125798714D01*
X160448763Y-125798704D01*
X160381729Y-125778999D01*
X160335990Y-125726181D01*
X160324800Y-125674704D01*
X160324800Y-124341142D01*
X160344485Y-124274103D01*
X160397289Y-124228348D01*
X160448800Y-124217142D01*
X160685250Y-124217142D01*
X160752289Y-124236827D01*
X160798044Y-124289631D01*
X160809250Y-124341142D01*
X160809250Y-125487142D01*
X161754058Y-125487142D01*
X161821097Y-125506827D01*
X161826948Y-125510827D01*
X161827628Y-125511321D01*
X161891695Y-125543963D01*
X161926315Y-125561603D01*
X161962782Y-125567379D01*
X162035715Y-125578931D01*
X162035717Y-125578931D01*
X162035719Y-125578931D01*
X162090418Y-125570267D01*
X162145119Y-125561603D01*
X162198446Y-125534431D01*
X162243805Y-125511321D01*
X162243807Y-125511319D01*
X162243812Y-125511317D01*
X162243815Y-125511313D01*
X162244486Y-125510827D01*
X162245454Y-125510481D01*
X162252509Y-125506887D01*
X162252973Y-125507798D01*
X162310291Y-125487345D01*
X162317376Y-125487142D01*
X162333250Y-125487142D01*
X162333250Y-125440948D01*
X162346763Y-125384657D01*
X162372422Y-125334300D01*
X162389750Y-125224898D01*
X162372422Y-125115496D01*
X162372422Y-125115495D01*
X162346765Y-125065139D01*
X162333250Y-125008845D01*
X162333250Y-123466400D01*
X162352935Y-123399361D01*
X162405739Y-123353606D01*
X162457250Y-123342400D01*
X163833000Y-123342400D01*
X163900039Y-123362085D01*
G37*
%TD.AperFunction*%
%TD*%
%TA.AperFunction,Conductor*%
%TO.N,GND*%
G36*
X174171039Y-128282375D02*
G01*
X174216794Y-128335179D01*
X174228000Y-128386690D01*
X174228000Y-130400595D01*
X174208315Y-130467634D01*
X174155511Y-130513389D01*
X174104000Y-130524595D01*
X172679533Y-130524595D01*
X172612494Y-130504910D01*
X172591406Y-130487828D01*
X171689073Y-129576240D01*
X171655901Y-129514747D01*
X171653200Y-129489007D01*
X171653200Y-128386690D01*
X171672885Y-128319651D01*
X171725689Y-128273896D01*
X171777200Y-128262690D01*
X174104000Y-128262690D01*
X174171039Y-128282375D01*
G37*
%TD.AperFunction*%
%TD*%
%TA.AperFunction,Conductor*%
%TO.N,VCCB_5*%
G36*
X236976907Y-92679014D02*
G01*
X237022784Y-92731712D01*
X237034102Y-92782171D01*
X237049008Y-94189495D01*
X237057902Y-95029201D01*
X237058914Y-95124687D01*
X237039941Y-95191931D01*
X236987624Y-95238242D01*
X236934921Y-95250000D01*
X235178599Y-95250000D01*
X234645200Y-95783399D01*
X234645200Y-99525216D01*
X234639436Y-99562583D01*
X234572567Y-99774167D01*
X234542391Y-99824101D01*
X231724200Y-102666799D01*
X231724200Y-107537124D01*
X231704515Y-107604163D01*
X231651711Y-107649918D01*
X231582553Y-107659862D01*
X231518997Y-107630837D01*
X231512519Y-107624805D01*
X231500492Y-107612778D01*
X231401800Y-107562494D01*
X231292402Y-107545167D01*
X231292398Y-107545167D01*
X231182999Y-107562494D01*
X231182998Y-107562494D01*
X231084307Y-107612778D01*
X231005978Y-107691107D01*
X230955694Y-107789798D01*
X230955694Y-107789799D01*
X230938367Y-107899197D01*
X230938367Y-107899202D01*
X230955694Y-108008600D01*
X230955694Y-108008601D01*
X231005978Y-108107292D01*
X231084307Y-108185621D01*
X231149261Y-108218715D01*
X231182998Y-108235905D01*
X231219465Y-108241681D01*
X231292398Y-108253233D01*
X231292400Y-108253233D01*
X231292402Y-108253233D01*
X231347101Y-108244569D01*
X231401802Y-108235905D01*
X231453061Y-108209787D01*
X231500492Y-108185621D01*
X231500492Y-108185620D01*
X231500495Y-108185619D01*
X231512519Y-108173595D01*
X231573842Y-108140110D01*
X231643534Y-108145094D01*
X231699467Y-108186966D01*
X231723884Y-108252430D01*
X231724200Y-108261276D01*
X231724200Y-112271000D01*
X231704515Y-112338039D01*
X231651711Y-112383794D01*
X231600200Y-112395000D01*
X231543400Y-112395000D01*
X231476361Y-112375315D01*
X231430606Y-112322511D01*
X231419400Y-112271000D01*
X231419400Y-111277400D01*
X228737919Y-108595919D01*
X228704434Y-108534596D01*
X228701600Y-108508238D01*
X228701600Y-95859600D01*
X228092000Y-95250000D01*
X226184000Y-95250000D01*
X226116961Y-95230315D01*
X226071206Y-95177511D01*
X226060000Y-95126000D01*
X226060000Y-92808313D01*
X226079685Y-92741274D01*
X226132489Y-92695519D01*
X226183710Y-92684313D01*
X229129248Y-92677495D01*
X229196333Y-92697025D01*
X229242210Y-92749723D01*
X229252008Y-92782093D01*
X229253894Y-92794001D01*
X229304178Y-92892692D01*
X229382507Y-92971021D01*
X229430018Y-92995228D01*
X229481198Y-93021305D01*
X229489728Y-93022656D01*
X229590598Y-93038633D01*
X229590600Y-93038633D01*
X229590602Y-93038633D01*
X229709641Y-93019779D01*
X229710096Y-93022656D01*
X229764295Y-93021095D01*
X229824136Y-93057162D01*
X229854979Y-93119856D01*
X229856800Y-93141029D01*
X229856800Y-93472723D01*
X229837115Y-93539762D01*
X229820482Y-93560404D01*
X229735977Y-93644909D01*
X229685694Y-93743598D01*
X229685694Y-93743599D01*
X229668367Y-93852997D01*
X229668367Y-93853002D01*
X229685694Y-93962400D01*
X229685694Y-93962401D01*
X229735978Y-94061092D01*
X229814307Y-94139421D01*
X229879261Y-94172515D01*
X229912998Y-94189705D01*
X229921528Y-94191056D01*
X230022398Y-94207033D01*
X230022400Y-94207033D01*
X230022402Y-94207033D01*
X230141441Y-94188179D01*
X230141896Y-94191056D01*
X230196095Y-94189495D01*
X230255936Y-94225562D01*
X230286779Y-94288256D01*
X230288600Y-94309429D01*
X230288600Y-94539523D01*
X230268915Y-94606562D01*
X230252282Y-94627204D01*
X230167777Y-94711709D01*
X230117494Y-94810398D01*
X230117494Y-94810399D01*
X230100167Y-94919797D01*
X230100167Y-94919802D01*
X230117494Y-95029200D01*
X230117494Y-95029201D01*
X230167778Y-95127892D01*
X230246107Y-95206221D01*
X230308954Y-95238242D01*
X230344798Y-95256505D01*
X230353328Y-95257856D01*
X230454198Y-95273833D01*
X230454200Y-95273833D01*
X230454202Y-95273833D01*
X230573241Y-95254979D01*
X230573696Y-95257856D01*
X230627895Y-95256295D01*
X230687736Y-95292362D01*
X230718579Y-95355056D01*
X230720400Y-95376229D01*
X230720400Y-95733323D01*
X230700715Y-95800362D01*
X230684082Y-95821004D01*
X230599577Y-95905509D01*
X230549294Y-96004198D01*
X230549294Y-96004199D01*
X230531967Y-96113597D01*
X230531967Y-96113602D01*
X230549294Y-96223000D01*
X230549294Y-96223001D01*
X230599578Y-96321692D01*
X230677907Y-96400021D01*
X230726747Y-96424905D01*
X230776598Y-96450305D01*
X230813065Y-96456081D01*
X230885998Y-96467633D01*
X230886000Y-96467633D01*
X230886002Y-96467633D01*
X230940701Y-96458969D01*
X230995402Y-96450305D01*
X231046661Y-96424187D01*
X231094092Y-96400021D01*
X231094092Y-96400020D01*
X231094095Y-96400019D01*
X231172419Y-96321695D01*
X231185363Y-96296292D01*
X231196587Y-96274261D01*
X231222705Y-96223002D01*
X231240033Y-96113600D01*
X231236010Y-96088202D01*
X231222705Y-96004199D01*
X231222705Y-96004198D01*
X231172422Y-95905509D01*
X231172420Y-95905507D01*
X231172419Y-95905505D01*
X231094095Y-95827181D01*
X231094094Y-95827180D01*
X231087918Y-95821004D01*
X231054434Y-95759680D01*
X231051600Y-95733323D01*
X231051600Y-94582061D01*
X231051599Y-94582058D01*
X231044684Y-94565364D01*
X231026389Y-94521195D01*
X230979805Y-94474611D01*
X230978319Y-94473125D01*
X230944834Y-94411802D01*
X230942000Y-94385444D01*
X230942000Y-93685060D01*
X230961685Y-93618021D01*
X231014489Y-93572266D01*
X231083647Y-93562322D01*
X231122294Y-93574575D01*
X231183000Y-93605506D01*
X231292398Y-93622833D01*
X231292400Y-93622833D01*
X231292402Y-93622833D01*
X231347101Y-93614169D01*
X231401802Y-93605505D01*
X231478196Y-93566581D01*
X231500492Y-93555221D01*
X231500492Y-93555220D01*
X231500495Y-93555219D01*
X231578819Y-93476895D01*
X231578821Y-93476892D01*
X231584559Y-93468996D01*
X231586848Y-93470659D01*
X231624278Y-93431020D01*
X231692097Y-93414217D01*
X231758234Y-93436748D01*
X231801692Y-93491458D01*
X231810800Y-93538104D01*
X231810800Y-95709723D01*
X231791115Y-95776762D01*
X231774482Y-95797404D01*
X231691777Y-95880109D01*
X231641494Y-95978798D01*
X231641494Y-95978799D01*
X231624167Y-96088197D01*
X231624167Y-96088202D01*
X231641494Y-96197600D01*
X231641494Y-96197601D01*
X231691778Y-96296292D01*
X231770107Y-96374621D01*
X231835061Y-96407715D01*
X231868798Y-96424905D01*
X231905265Y-96430681D01*
X231978198Y-96442233D01*
X231978200Y-96442233D01*
X231978202Y-96442233D01*
X232032901Y-96433569D01*
X232087602Y-96424905D01*
X232138861Y-96398787D01*
X232186292Y-96374621D01*
X232186292Y-96374620D01*
X232186295Y-96374619D01*
X232264619Y-96296295D01*
X232268564Y-96288554D01*
X232301963Y-96223002D01*
X232314905Y-96197602D01*
X232328210Y-96113600D01*
X232332233Y-96088202D01*
X232332233Y-96088197D01*
X232314905Y-95978799D01*
X232314905Y-95978798D01*
X232264622Y-95880109D01*
X232264620Y-95880107D01*
X232264619Y-95880105D01*
X232186295Y-95801781D01*
X232186294Y-95801780D01*
X232179394Y-95794880D01*
X232181977Y-95792296D01*
X232150442Y-95751388D01*
X232142000Y-95706417D01*
X232142000Y-95314302D01*
X232161685Y-95247263D01*
X232214489Y-95201508D01*
X232283647Y-95191564D01*
X232322293Y-95203817D01*
X232325998Y-95205705D01*
X232325999Y-95205705D01*
X232326001Y-95205706D01*
X232435398Y-95223033D01*
X232435400Y-95223033D01*
X232435402Y-95223033D01*
X232490101Y-95214369D01*
X232544802Y-95205705D01*
X232596061Y-95179587D01*
X232643492Y-95155421D01*
X232643492Y-95155420D01*
X232643495Y-95155419D01*
X232721819Y-95077095D01*
X232728801Y-95063393D01*
X232746222Y-95029200D01*
X232772105Y-94978402D01*
X232789433Y-94869000D01*
X232772105Y-94759598D01*
X232737401Y-94691486D01*
X232721821Y-94660907D01*
X232643493Y-94582579D01*
X232609706Y-94565364D01*
X232558909Y-94517390D01*
X232542000Y-94454879D01*
X232542000Y-94205165D01*
X232561685Y-94138126D01*
X232614489Y-94092371D01*
X232683647Y-94082427D01*
X232704324Y-94087236D01*
X232706996Y-94088104D01*
X232706998Y-94088105D01*
X232706999Y-94088105D01*
X232707002Y-94088106D01*
X232816398Y-94105433D01*
X232816400Y-94105433D01*
X232816402Y-94105433D01*
X232871101Y-94096769D01*
X232925802Y-94088105D01*
X232978819Y-94061092D01*
X233024492Y-94037821D01*
X233024492Y-94037820D01*
X233024495Y-94037819D01*
X233102819Y-93959495D01*
X233153105Y-93860802D01*
X233170433Y-93751400D01*
X233169197Y-93743599D01*
X233153105Y-93641999D01*
X233153105Y-93641998D01*
X233102822Y-93543309D01*
X233102820Y-93543307D01*
X233102819Y-93543305D01*
X233024495Y-93464981D01*
X233024493Y-93464980D01*
X233024492Y-93464979D01*
X233009702Y-93457443D01*
X232958908Y-93409468D01*
X232942000Y-93346960D01*
X232942000Y-93117966D01*
X232961685Y-93050927D01*
X233014489Y-93005172D01*
X233083647Y-92995228D01*
X233085399Y-92995493D01*
X233087997Y-92995904D01*
X233087998Y-92995905D01*
X233162418Y-93007692D01*
X233197399Y-93013233D01*
X233197400Y-93013233D01*
X233197402Y-93013233D01*
X233252101Y-93004569D01*
X233306802Y-92995905D01*
X233358061Y-92969787D01*
X233405492Y-92945621D01*
X233405492Y-92945620D01*
X233405495Y-92945619D01*
X233483819Y-92867295D01*
X233534105Y-92768602D01*
X233534105Y-92768600D01*
X233537123Y-92759316D01*
X233539149Y-92759974D01*
X233563544Y-92708497D01*
X233622850Y-92671557D01*
X233655804Y-92667017D01*
X236909824Y-92659484D01*
X236976907Y-92679014D01*
G37*
%TD.AperFunction*%
%TD*%
%TA.AperFunction,Conductor*%
%TO.N,/GPIOB__TXP01*%
G36*
X201822317Y-82425985D02*
G01*
X201823416Y-82426952D01*
X202350104Y-82952259D01*
X202353542Y-82960528D01*
X202353542Y-82960554D01*
X202352852Y-83705011D01*
X202349417Y-83713281D01*
X202341141Y-83716700D01*
X202339573Y-83716593D01*
X201102318Y-83548120D01*
X201095624Y-83544800D01*
X201015898Y-83465074D01*
X201012471Y-83456801D01*
X201014919Y-83449639D01*
X201805905Y-82428071D01*
X201813677Y-82423630D01*
X201822317Y-82425985D01*
G37*
%TD.AperFunction*%
%TD*%
%TA.AperFunction,Conductor*%
%TO.N,GND*%
G36*
X158921639Y-124073285D02*
G01*
X158967394Y-124126089D01*
X158978600Y-124177600D01*
X158978600Y-124328515D01*
X158958915Y-124395554D01*
X158906111Y-124441309D01*
X158854600Y-124452515D01*
X157657800Y-124452515D01*
X157657800Y-126436715D01*
X157638115Y-126503754D01*
X157585311Y-126549509D01*
X157533800Y-126560715D01*
X156181600Y-126560715D01*
X156114561Y-126541030D01*
X156068806Y-126488226D01*
X156057600Y-126436715D01*
X156057600Y-124177600D01*
X156077285Y-124110561D01*
X156130089Y-124064806D01*
X156181600Y-124053600D01*
X158854600Y-124053600D01*
X158921639Y-124073285D01*
G37*
%TD.AperFunction*%
%TD*%
%TA.AperFunction,Conductor*%
%TO.N,/GPIOT__RXN07*%
G36*
X184975640Y-106342454D02*
G01*
X185664075Y-106626637D01*
X185670415Y-106632962D01*
X185670426Y-106632988D01*
X185954606Y-107321416D01*
X185954595Y-107330370D01*
X185948255Y-107336695D01*
X185947317Y-107337036D01*
X184641909Y-107749589D01*
X184632987Y-107748815D01*
X184630110Y-107746706D01*
X184550357Y-107666953D01*
X184546930Y-107658680D01*
X184547474Y-107655154D01*
X184650117Y-107330370D01*
X184960028Y-106349744D01*
X184965787Y-106342890D01*
X184974709Y-106342116D01*
X184975640Y-106342454D01*
G37*
%TD.AperFunction*%
%TD*%
%TA.AperFunction,Conductor*%
%TO.N,/GPIOB__TXN11*%
G36*
X218345592Y-98722454D02*
G01*
X219034027Y-99006637D01*
X219040367Y-99012962D01*
X219040378Y-99012988D01*
X219324558Y-99701416D01*
X219324547Y-99710370D01*
X219318207Y-99716695D01*
X219317269Y-99717036D01*
X218011861Y-100129589D01*
X218002939Y-100128815D01*
X218000062Y-100126706D01*
X217920309Y-100046953D01*
X217916882Y-100038680D01*
X217917426Y-100035154D01*
X218020069Y-99710370D01*
X218329980Y-98729744D01*
X218335739Y-98722890D01*
X218344661Y-98722116D01*
X218345592Y-98722454D01*
G37*
%TD.AperFunction*%
%TD*%
%TA.AperFunction,Conductor*%
%TO.N,/GPIOB__TXN00*%
G36*
X201660616Y-75049654D02*
G01*
X202349051Y-75333837D01*
X202355391Y-75340162D01*
X202355402Y-75340188D01*
X202639582Y-76028616D01*
X202639571Y-76037570D01*
X202633231Y-76043895D01*
X202632293Y-76044236D01*
X201326885Y-76456789D01*
X201317963Y-76456015D01*
X201315086Y-76453906D01*
X201235333Y-76374153D01*
X201231906Y-76365880D01*
X201232450Y-76362354D01*
X201335093Y-76037570D01*
X201645004Y-75056944D01*
X201650763Y-75050090D01*
X201659685Y-75049316D01*
X201660616Y-75049654D01*
G37*
%TD.AperFunction*%
%TD*%
%TA.AperFunction,Conductor*%
%TO.N,/NETC15_1*%
G36*
X158032649Y-121348000D02*
G01*
X158078404Y-121400804D01*
X158089610Y-121452305D01*
X158089784Y-123538115D01*
X158089785Y-123538115D01*
X158803800Y-123538115D01*
X158870839Y-123557800D01*
X158916594Y-123610604D01*
X158927800Y-123662115D01*
X158927800Y-123668115D01*
X158908115Y-123735154D01*
X158855311Y-123780909D01*
X158803800Y-123792115D01*
X156912600Y-123792115D01*
X156845561Y-123772430D01*
X156799806Y-123719626D01*
X156788600Y-123667818D01*
X156793904Y-121452018D01*
X156813749Y-121385026D01*
X156866663Y-121339398D01*
X156917904Y-121328315D01*
X157965610Y-121328315D01*
X158032649Y-121348000D01*
G37*
%TD.AperFunction*%
%TD*%
%TA.AperFunction,Conductor*%
%TO.N,/GPIOB__TXP02*%
G36*
X194711471Y-82669689D02*
G01*
X194717796Y-82676029D01*
X194718152Y-82677015D01*
X195137174Y-84022822D01*
X195136362Y-84031740D01*
X195129481Y-84037471D01*
X195126003Y-84038000D01*
X195016569Y-84038000D01*
X195013297Y-84037533D01*
X193731273Y-83664045D01*
X193724288Y-83658441D01*
X193723312Y-83649540D01*
X193723729Y-83648350D01*
X194008495Y-82959888D01*
X194014824Y-82953554D01*
X194014843Y-82953546D01*
X194702518Y-82669678D01*
X194711471Y-82669689D01*
G37*
%TD.AperFunction*%
%TD*%
%TA.AperFunction,Conductor*%
%TO.N,/GPIOT__RXP08*%
G36*
X159948373Y-103802535D02*
G01*
X160441119Y-104005938D01*
X160635908Y-104086346D01*
X160642248Y-104092671D01*
X160642256Y-104092689D01*
X160927061Y-104781243D01*
X160927056Y-104790198D01*
X160920721Y-104796527D01*
X160919617Y-104796920D01*
X160165120Y-105023744D01*
X159664121Y-105174360D01*
X159654368Y-105177292D01*
X159651000Y-105177787D01*
X159541409Y-105177787D01*
X159533136Y-105174360D01*
X159529709Y-105166087D01*
X159530195Y-105162750D01*
X159932707Y-103810017D01*
X159938351Y-103803066D01*
X159947258Y-103802141D01*
X159948373Y-103802535D01*
G37*
%TD.AperFunction*%
%TD*%
%TA.AperFunction,Conductor*%
%TO.N,VCC5V*%
G36*
X164611239Y-131083685D02*
G01*
X164656994Y-131136489D01*
X164668200Y-131188000D01*
X164668200Y-132181600D01*
X165306200Y-132181600D01*
X165373239Y-132201285D01*
X165418994Y-132254089D01*
X165430200Y-132305600D01*
X165430200Y-132489400D01*
X165410515Y-132556439D01*
X165357711Y-132602194D01*
X165306200Y-132613400D01*
X164668200Y-132613400D01*
X164668200Y-132680554D01*
X164648516Y-132747592D01*
X164635924Y-132767187D01*
X164620646Y-132819215D01*
X164616238Y-132834229D01*
X164616237Y-132834234D01*
X164611900Y-132864394D01*
X164611900Y-132972007D01*
X164614347Y-132994765D01*
X164625554Y-133046279D01*
X164625554Y-133046280D01*
X164652737Y-133100584D01*
X164650709Y-133101598D01*
X164668180Y-133157378D01*
X164668200Y-133159600D01*
X164668200Y-133886400D01*
X164648515Y-133953439D01*
X164595711Y-133999194D01*
X164544200Y-134010400D01*
X163827000Y-134010400D01*
X163759961Y-133990715D01*
X163714206Y-133937911D01*
X163703000Y-133886400D01*
X163703000Y-131188000D01*
X163722685Y-131120961D01*
X163775489Y-131075206D01*
X163827000Y-131064000D01*
X164544200Y-131064000D01*
X164611239Y-131083685D01*
G37*
%TD.AperFunction*%
%TD*%
%TA.AperFunction,Conductor*%
%TO.N,VCCB_3*%
G36*
X212621225Y-92729748D02*
G01*
X212641867Y-92746381D01*
X212714105Y-92818619D01*
X212714107Y-92818620D01*
X212714109Y-92818622D01*
X212778625Y-92851493D01*
X212812798Y-92868905D01*
X212849265Y-92874681D01*
X212922198Y-92886233D01*
X212922200Y-92886233D01*
X212922202Y-92886233D01*
X212976901Y-92877569D01*
X213031602Y-92868905D01*
X213031605Y-92868903D01*
X213032077Y-92868751D01*
X213032689Y-92868733D01*
X213041241Y-92867379D01*
X213041415Y-92868483D01*
X213101918Y-92866752D01*
X213161752Y-92902830D01*
X213192583Y-92965530D01*
X213194400Y-92986680D01*
X213194400Y-93234723D01*
X213174715Y-93301762D01*
X213158082Y-93322404D01*
X213073577Y-93406909D01*
X213023294Y-93505598D01*
X213023294Y-93505599D01*
X213005967Y-93614997D01*
X213005967Y-93615002D01*
X213023294Y-93724400D01*
X213023294Y-93724401D01*
X213073578Y-93823092D01*
X213151907Y-93901421D01*
X213216861Y-93934515D01*
X213250598Y-93951705D01*
X213280670Y-93956468D01*
X213359998Y-93969033D01*
X213360000Y-93969033D01*
X213360001Y-93969033D01*
X213439330Y-93956468D01*
X213463675Y-93952612D01*
X213532969Y-93961566D01*
X213586421Y-94006562D01*
X213607061Y-94073314D01*
X213607074Y-94075085D01*
X213607074Y-94248487D01*
X213587389Y-94315526D01*
X213567541Y-94336545D01*
X213568676Y-94337680D01*
X213483447Y-94422909D01*
X213433164Y-94521598D01*
X213433164Y-94521599D01*
X213415837Y-94630997D01*
X213415837Y-94631002D01*
X213433164Y-94740400D01*
X213433164Y-94740401D01*
X213483448Y-94839092D01*
X213561777Y-94917421D01*
X213626731Y-94950515D01*
X213660468Y-94967705D01*
X213690540Y-94972468D01*
X213769868Y-94985033D01*
X213769870Y-94985033D01*
X213769871Y-94985033D01*
X213849200Y-94972468D01*
X213873545Y-94968612D01*
X213942839Y-94977566D01*
X213996291Y-95022562D01*
X214016931Y-95089314D01*
X214016944Y-95091085D01*
X214016944Y-95393380D01*
X213997259Y-95460419D01*
X213980625Y-95481061D01*
X213937178Y-95524507D01*
X213886894Y-95623198D01*
X213886894Y-95623199D01*
X213869567Y-95732597D01*
X213869567Y-95732602D01*
X213886894Y-95842000D01*
X213886894Y-95842001D01*
X213937178Y-95940692D01*
X214015507Y-96019021D01*
X214080461Y-96052115D01*
X214114198Y-96069305D01*
X214150665Y-96075081D01*
X214223598Y-96086633D01*
X214223600Y-96086633D01*
X214223602Y-96086633D01*
X214278301Y-96077969D01*
X214333002Y-96069305D01*
X214384261Y-96043187D01*
X214431692Y-96019021D01*
X214431692Y-96019020D01*
X214431695Y-96019019D01*
X214510019Y-95940695D01*
X214560305Y-95842002D01*
X214577633Y-95732600D01*
X214560305Y-95623198D01*
X214551084Y-95605100D01*
X214510022Y-95524509D01*
X214510020Y-95524507D01*
X214510019Y-95524505D01*
X214431695Y-95446181D01*
X214431692Y-95446179D01*
X214431690Y-95446178D01*
X214415847Y-95438105D01*
X214365052Y-95390130D01*
X214348144Y-95327622D01*
X214348144Y-94427125D01*
X214348143Y-94427122D01*
X214340784Y-94409356D01*
X214322933Y-94366259D01*
X214319650Y-94362976D01*
X214286165Y-94301653D01*
X214283331Y-94275295D01*
X214283331Y-93369219D01*
X214303016Y-93302180D01*
X214355820Y-93256425D01*
X214424978Y-93246481D01*
X214463623Y-93258733D01*
X214493290Y-93273849D01*
X214546000Y-93300706D01*
X214655398Y-93318033D01*
X214655400Y-93318033D01*
X214655402Y-93318033D01*
X214725512Y-93306928D01*
X214764802Y-93300705D01*
X214816061Y-93274587D01*
X214863492Y-93250421D01*
X214863492Y-93250420D01*
X214863495Y-93250419D01*
X214941819Y-93172095D01*
X214941819Y-93172094D01*
X214944919Y-93168995D01*
X215006242Y-93135510D01*
X215075934Y-93140494D01*
X215131867Y-93182366D01*
X215156284Y-93247830D01*
X215156600Y-93256676D01*
X215156600Y-95371324D01*
X215136915Y-95438363D01*
X215120281Y-95459005D01*
X215054778Y-95524507D01*
X215004494Y-95623198D01*
X215004494Y-95623199D01*
X214987167Y-95732597D01*
X214987167Y-95732602D01*
X215004494Y-95842000D01*
X215004494Y-95842001D01*
X215054778Y-95940692D01*
X215133107Y-96019021D01*
X215198061Y-96052115D01*
X215231798Y-96069305D01*
X215268265Y-96075081D01*
X215341198Y-96086633D01*
X215341200Y-96086633D01*
X215341202Y-96086633D01*
X215395901Y-96077969D01*
X215450602Y-96069305D01*
X215501861Y-96043187D01*
X215549292Y-96019021D01*
X215549292Y-96019020D01*
X215549295Y-96019019D01*
X215627619Y-95940695D01*
X215677905Y-95842002D01*
X215695233Y-95732600D01*
X215677905Y-95623198D01*
X215668684Y-95605100D01*
X215627622Y-95524509D01*
X215627620Y-95524507D01*
X215627619Y-95524505D01*
X215549295Y-95446181D01*
X215549293Y-95446180D01*
X215541403Y-95440448D01*
X215543305Y-95437829D01*
X215504693Y-95401342D01*
X215487800Y-95338860D01*
X215487800Y-95085262D01*
X215507485Y-95018223D01*
X215560289Y-94972468D01*
X215629447Y-94962524D01*
X215650126Y-94967334D01*
X215651271Y-94967706D01*
X215760668Y-94985033D01*
X215760670Y-94985033D01*
X215760672Y-94985033D01*
X215815371Y-94976369D01*
X215870072Y-94967705D01*
X215921331Y-94941587D01*
X215968762Y-94917421D01*
X215968762Y-94917420D01*
X215968765Y-94917419D01*
X216047089Y-94839095D01*
X216097375Y-94740402D01*
X216114703Y-94631000D01*
X216097375Y-94521598D01*
X216047092Y-94422909D01*
X216047090Y-94422907D01*
X216047089Y-94422905D01*
X215968765Y-94344581D01*
X215955504Y-94337824D01*
X215904708Y-94289849D01*
X215887800Y-94227340D01*
X215887800Y-94069262D01*
X215907485Y-94002223D01*
X215960289Y-93956468D01*
X216029447Y-93946524D01*
X216050126Y-93951334D01*
X216051271Y-93951706D01*
X216160668Y-93969033D01*
X216160670Y-93969033D01*
X216160672Y-93969033D01*
X216215371Y-93960369D01*
X216270072Y-93951705D01*
X216321331Y-93925587D01*
X216368762Y-93901421D01*
X216368762Y-93901420D01*
X216368765Y-93901419D01*
X216447089Y-93823095D01*
X216497375Y-93724402D01*
X216514703Y-93615000D01*
X216497375Y-93505598D01*
X216447092Y-93406909D01*
X216447090Y-93406907D01*
X216447089Y-93406905D01*
X216368765Y-93328581D01*
X216355504Y-93321824D01*
X216304708Y-93273849D01*
X216287800Y-93211340D01*
X216287800Y-92834063D01*
X216307485Y-92767024D01*
X216360289Y-92721269D01*
X216411800Y-92710063D01*
X220297200Y-92710063D01*
X220364239Y-92729748D01*
X220409994Y-92782552D01*
X220421200Y-92834063D01*
X220421200Y-95380000D01*
X220401515Y-95447039D01*
X220348711Y-95492794D01*
X220297200Y-95504000D01*
X218439999Y-95504000D01*
X217932000Y-96011999D01*
X217932000Y-99614498D01*
X217926236Y-99651865D01*
X217865797Y-99843103D01*
X217835242Y-99893418D01*
X212394800Y-105333800D01*
X212394800Y-111373184D01*
X212385362Y-111420634D01*
X212382823Y-111426762D01*
X212376900Y-111456540D01*
X212376900Y-111456543D01*
X212376901Y-112169463D01*
X212357217Y-112236502D01*
X212304413Y-112282257D01*
X212252901Y-112293463D01*
X212137800Y-112293463D01*
X212070761Y-112273778D01*
X212025006Y-112220974D01*
X212013800Y-112169463D01*
X212013800Y-111277400D01*
X211988400Y-111252000D01*
X211756800Y-111252000D01*
X211689761Y-111232315D01*
X211644006Y-111179511D01*
X211632800Y-111128000D01*
X211632800Y-95808800D01*
X211074000Y-95250000D01*
X209496200Y-95250000D01*
X209429161Y-95230315D01*
X209383406Y-95177511D01*
X209372200Y-95126000D01*
X209372200Y-92834063D01*
X209391885Y-92767024D01*
X209444689Y-92721269D01*
X209496200Y-92710063D01*
X212554186Y-92710063D01*
X212621225Y-92729748D01*
G37*
%TD.AperFunction*%
%TD*%
%TA.AperFunction,Conductor*%
%TO.N,/NETR13_1*%
G36*
X159404239Y-121906800D02*
G01*
X159449994Y-121959604D01*
X159461200Y-122011115D01*
X159461200Y-122801515D01*
X159687611Y-123126447D01*
X159709786Y-123192704D01*
X159709870Y-123196482D01*
X159711038Y-123366030D01*
X159714340Y-123845060D01*
X159695118Y-123912234D01*
X159642631Y-123958352D01*
X159590343Y-123969915D01*
X159407400Y-123969915D01*
X159340361Y-123950230D01*
X159294606Y-123897426D01*
X159283400Y-123845915D01*
X159283400Y-123385715D01*
X158467600Y-123385715D01*
X158400561Y-123366030D01*
X158354806Y-123313226D01*
X158343600Y-123261715D01*
X158343600Y-122011115D01*
X158363285Y-121944076D01*
X158416089Y-121898321D01*
X158467600Y-121887115D01*
X159337200Y-121887115D01*
X159404239Y-121906800D01*
G37*
%TD.AperFunction*%
%TD*%
%TA.AperFunction,Conductor*%
%TO.N,VCCB_2*%
G36*
X170250039Y-69031485D02*
G01*
X170295794Y-69084289D01*
X170307000Y-69135800D01*
X170307000Y-71504000D01*
X170287315Y-71571039D01*
X170234511Y-71616794D01*
X170183000Y-71628000D01*
X168147999Y-71628000D01*
X167690800Y-72085199D01*
X167690800Y-76123238D01*
X167671115Y-76190277D01*
X167654481Y-76210919D01*
X164947600Y-78917799D01*
X164947600Y-83762724D01*
X164927915Y-83829763D01*
X164875111Y-83875518D01*
X164805953Y-83885462D01*
X164742397Y-83856437D01*
X164735919Y-83850405D01*
X164673092Y-83787578D01*
X164574400Y-83737294D01*
X164465002Y-83719967D01*
X164464998Y-83719967D01*
X164355599Y-83737294D01*
X164355598Y-83737294D01*
X164256907Y-83787578D01*
X164178578Y-83865907D01*
X164128294Y-83964598D01*
X164128294Y-83964599D01*
X164110967Y-84073997D01*
X164110967Y-84074002D01*
X164128294Y-84183400D01*
X164128294Y-84183401D01*
X164178578Y-84282092D01*
X164256907Y-84360421D01*
X164295488Y-84380078D01*
X164355598Y-84410705D01*
X164392065Y-84416481D01*
X164464998Y-84428033D01*
X164465000Y-84428033D01*
X164465002Y-84428033D01*
X164519701Y-84419369D01*
X164574402Y-84410705D01*
X164634512Y-84380078D01*
X164673092Y-84360421D01*
X164673092Y-84360420D01*
X164673095Y-84360419D01*
X164735919Y-84297595D01*
X164797242Y-84264110D01*
X164866934Y-84269094D01*
X164922867Y-84310966D01*
X164947284Y-84376430D01*
X164947600Y-84385276D01*
X164947600Y-88674400D01*
X164927915Y-88741439D01*
X164875111Y-88787194D01*
X164823600Y-88798400D01*
X164766800Y-88798400D01*
X164699761Y-88778715D01*
X164654006Y-88725911D01*
X164642800Y-88674400D01*
X164642800Y-87376000D01*
X164642799Y-87375999D01*
X161783549Y-84518693D01*
X161750043Y-84457381D01*
X161747200Y-84430982D01*
X161747200Y-72085200D01*
X161290000Y-71628000D01*
X159407901Y-71628000D01*
X159340862Y-71608315D01*
X159295107Y-71555511D01*
X159283901Y-71503722D01*
X159289211Y-69135522D01*
X159309046Y-69068527D01*
X159361953Y-69022890D01*
X159413211Y-69011800D01*
X170183000Y-69011800D01*
X170250039Y-69031485D01*
G37*
%TD.AperFunction*%
%TD*%
%TA.AperFunction,Conductor*%
%TO.N,/GPIOT__RXN20*%
G36*
X168290664Y-80129654D02*
G01*
X168979099Y-80413837D01*
X168985439Y-80420162D01*
X168985450Y-80420188D01*
X169269630Y-81108616D01*
X169269619Y-81117570D01*
X169263279Y-81123895D01*
X169262341Y-81124236D01*
X167956933Y-81536789D01*
X167948011Y-81536015D01*
X167945134Y-81533906D01*
X167865381Y-81454153D01*
X167861954Y-81445880D01*
X167862498Y-81442354D01*
X167965141Y-81117570D01*
X168275052Y-80136944D01*
X168280811Y-80130090D01*
X168289733Y-80129316D01*
X168290664Y-80129654D01*
G37*
%TD.AperFunction*%
%TD*%
%TA.AperFunction,Conductor*%
%TO.N,/GPIOB__TXP12*%
G36*
X235030576Y-80129654D02*
G01*
X235719011Y-80413837D01*
X235725351Y-80420162D01*
X235725362Y-80420188D01*
X236009542Y-81108616D01*
X236009531Y-81117570D01*
X236003191Y-81123895D01*
X236002253Y-81124236D01*
X234696845Y-81536789D01*
X234687923Y-81536015D01*
X234685046Y-81533906D01*
X234605293Y-81454153D01*
X234601866Y-81445880D01*
X234602410Y-81442354D01*
X234705053Y-81117570D01*
X235014964Y-80136944D01*
X235020723Y-80130090D01*
X235029645Y-80129316D01*
X235030576Y-80129654D01*
G37*
%TD.AperFunction*%
%TD*%
%TA.AperFunction,Conductor*%
%TO.N,/GPIOT__RXN12*%
G36*
X193318128Y-101262454D02*
G01*
X194006563Y-101546637D01*
X194012903Y-101552962D01*
X194012914Y-101552988D01*
X194297094Y-102241416D01*
X194297083Y-102250370D01*
X194290743Y-102256695D01*
X194289805Y-102257036D01*
X192984397Y-102669589D01*
X192975475Y-102668815D01*
X192972598Y-102666706D01*
X192892845Y-102586953D01*
X192889418Y-102578680D01*
X192889962Y-102575154D01*
X192992605Y-102250370D01*
X193302516Y-101269744D01*
X193308275Y-101262890D01*
X193317197Y-101262116D01*
X193318128Y-101262454D01*
G37*
%TD.AperFunction*%
%TD*%
%TA.AperFunction,Conductor*%
%TO.N,5V*%
G36*
X169284839Y-127934085D02*
G01*
X169330594Y-127986889D01*
X169341800Y-128038400D01*
X169341800Y-130602315D01*
X169322115Y-130669354D01*
X169269311Y-130715109D01*
X169217800Y-130726315D01*
X169062399Y-130726315D01*
X169037000Y-130759199D01*
X169037000Y-130759200D01*
X169037000Y-134772400D01*
X169062400Y-134797800D01*
X173863000Y-134797800D01*
X173888400Y-134772400D01*
X173888400Y-131775133D01*
X173908085Y-131708094D01*
X173956294Y-131664552D01*
X174904400Y-131183515D01*
X174904400Y-128038400D01*
X174924085Y-127971361D01*
X174976889Y-127925606D01*
X175028400Y-127914400D01*
X176152000Y-127914400D01*
X176219039Y-127934085D01*
X176264794Y-127986889D01*
X176276000Y-128038400D01*
X176276000Y-130593525D01*
X176256315Y-130660564D01*
X176203511Y-130706319D01*
X176152000Y-130717525D01*
X175971200Y-130717525D01*
X175965843Y-130726315D01*
X175945800Y-130759200D01*
X175945800Y-136375600D01*
X175926115Y-136442639D01*
X175873311Y-136488394D01*
X175821800Y-136499600D01*
X165732000Y-136499600D01*
X165664961Y-136479915D01*
X165619206Y-136427111D01*
X165608000Y-136375600D01*
X165608000Y-133121400D01*
X165582600Y-133096000D01*
X164843000Y-133096000D01*
X164775961Y-133076315D01*
X164730206Y-133023511D01*
X164719000Y-132972000D01*
X164719000Y-132864400D01*
X164738685Y-132797361D01*
X164791489Y-132751606D01*
X164843000Y-132740400D01*
X166931800Y-132740400D01*
X166998839Y-132760085D01*
X167044594Y-132812889D01*
X167055800Y-132864400D01*
X167055800Y-132972000D01*
X167036115Y-133039039D01*
X166983311Y-133084794D01*
X166931800Y-133096000D01*
X166217599Y-133096000D01*
X166192200Y-133121399D01*
X166190137Y-133126379D01*
X166175119Y-133177526D01*
X166175497Y-133177683D01*
X166174041Y-133181197D01*
X166172515Y-133186395D01*
X166171307Y-133188239D01*
X166170826Y-133188958D01*
X166170822Y-133188968D01*
X166164900Y-133218741D01*
X166164900Y-133558850D01*
X166164901Y-133558858D01*
X166170823Y-133588634D01*
X166170823Y-133588635D01*
X166170823Y-133588636D01*
X166170824Y-133588637D01*
X166171301Y-133589351D01*
X166171863Y-133591144D01*
X166175497Y-133599918D01*
X166174712Y-133600243D01*
X166192180Y-133656027D01*
X166192200Y-133658242D01*
X166192200Y-134645400D01*
X166217600Y-134670800D01*
X168122599Y-134670800D01*
X168122600Y-134670800D01*
X168148792Y-134645400D01*
X168148006Y-131495800D01*
X168148006Y-131495799D01*
X168122601Y-131470400D01*
X168122600Y-131470400D01*
X167103600Y-131470400D01*
X167036561Y-131450715D01*
X166990806Y-131397911D01*
X166979600Y-131346400D01*
X166979600Y-128038400D01*
X166999285Y-127971361D01*
X167052089Y-127925606D01*
X167103600Y-127914400D01*
X169217800Y-127914400D01*
X169284839Y-127934085D01*
G37*
%TD.AperFunction*%
%TD*%
%TA.AperFunction,Conductor*%
%TO.N,/GPIOT__RXP12*%
G36*
X193318128Y-98722454D02*
G01*
X194006563Y-99006637D01*
X194012903Y-99012962D01*
X194012914Y-99012988D01*
X194297094Y-99701416D01*
X194297083Y-99710370D01*
X194290743Y-99716695D01*
X194289805Y-99717036D01*
X192984397Y-100129589D01*
X192975475Y-100128815D01*
X192972598Y-100126706D01*
X192892845Y-100046953D01*
X192889418Y-100038680D01*
X192889962Y-100035154D01*
X192992605Y-99710370D01*
X193302516Y-98729744D01*
X193308275Y-98722890D01*
X193317197Y-98722116D01*
X193318128Y-98722454D01*
G37*
%TD.AperFunction*%
%TD*%
%TA.AperFunction,Conductor*%
%TO.N,/GPIOT__RXP16*%
G36*
X176633349Y-80129735D02*
G01*
X177126095Y-80333138D01*
X177320884Y-80413546D01*
X177327224Y-80419871D01*
X177327232Y-80419889D01*
X177612037Y-81108443D01*
X177612032Y-81117398D01*
X177605697Y-81123727D01*
X177604593Y-81124120D01*
X176850096Y-81350944D01*
X176349097Y-81501560D01*
X176339344Y-81504492D01*
X176335976Y-81504987D01*
X176226385Y-81504987D01*
X176218112Y-81501560D01*
X176214685Y-81493287D01*
X176215171Y-81489950D01*
X176617683Y-80137217D01*
X176623327Y-80130266D01*
X176632234Y-80129341D01*
X176633349Y-80129735D01*
G37*
%TD.AperFunction*%
%TD*%
%TA.AperFunction,Conductor*%
%TO.N,VCCB_1*%
G36*
X179708792Y-92653485D02*
G01*
X179754547Y-92706289D01*
X179765753Y-92757800D01*
X179765753Y-92928040D01*
X179746068Y-92995079D01*
X179714639Y-93028358D01*
X179708001Y-93033180D01*
X179629673Y-93111509D01*
X179579390Y-93210198D01*
X179579390Y-93210199D01*
X179562063Y-93319597D01*
X179562063Y-93319602D01*
X179579390Y-93429000D01*
X179579390Y-93429001D01*
X179629674Y-93527692D01*
X179708003Y-93606021D01*
X179772957Y-93639115D01*
X179806694Y-93656305D01*
X179843161Y-93662081D01*
X179916094Y-93673633D01*
X179916096Y-93673633D01*
X179916098Y-93673633D01*
X180035137Y-93654779D01*
X180035435Y-93656665D01*
X180093164Y-93655012D01*
X180152999Y-93691088D01*
X180183831Y-93753787D01*
X180185649Y-93774940D01*
X180185649Y-94205365D01*
X180165964Y-94272404D01*
X180117946Y-94315848D01*
X180115343Y-94317175D01*
X180108000Y-94320916D01*
X180107999Y-94320917D01*
X180029673Y-94399244D01*
X179979390Y-94497933D01*
X179979390Y-94497934D01*
X179962063Y-94607332D01*
X179962063Y-94607337D01*
X179979390Y-94716735D01*
X179979390Y-94716736D01*
X180029674Y-94815427D01*
X180108003Y-94893756D01*
X180172957Y-94926850D01*
X180206694Y-94944040D01*
X180243161Y-94949816D01*
X180316094Y-94961368D01*
X180316096Y-94961368D01*
X180316098Y-94961368D01*
X180370797Y-94952704D01*
X180425498Y-94944040D01*
X180425501Y-94944038D01*
X180434774Y-94941026D01*
X180435520Y-94943324D01*
X180490536Y-94932991D01*
X180555278Y-94959265D01*
X180595536Y-95016370D01*
X180602166Y-95056372D01*
X180602166Y-95301523D01*
X180582481Y-95368562D01*
X180565848Y-95389204D01*
X180481343Y-95473709D01*
X180431060Y-95572398D01*
X180431060Y-95572399D01*
X180413733Y-95681797D01*
X180413733Y-95681802D01*
X180431060Y-95791200D01*
X180431060Y-95791201D01*
X180481344Y-95889892D01*
X180559673Y-95968221D01*
X180624627Y-96001315D01*
X180658364Y-96018505D01*
X180694831Y-96024281D01*
X180767764Y-96035833D01*
X180767766Y-96035833D01*
X180767768Y-96035833D01*
X180822467Y-96027169D01*
X180877168Y-96018505D01*
X180928427Y-95992387D01*
X180975858Y-95968221D01*
X180975858Y-95968220D01*
X180975861Y-95968219D01*
X181054185Y-95889895D01*
X181104471Y-95791202D01*
X181121799Y-95681800D01*
X181104471Y-95572398D01*
X181054188Y-95473709D01*
X181054186Y-95473707D01*
X181054185Y-95473705D01*
X180975861Y-95395381D01*
X180975860Y-95395380D01*
X180969684Y-95389204D01*
X180936200Y-95327880D01*
X180933366Y-95301523D01*
X180933366Y-94409498D01*
X180933365Y-94409495D01*
X180916179Y-94368004D01*
X180908155Y-94348632D01*
X180897519Y-94337996D01*
X180864034Y-94276673D01*
X180861200Y-94250315D01*
X180861200Y-93847276D01*
X180880885Y-93780237D01*
X180933689Y-93734482D01*
X181002847Y-93724538D01*
X181066403Y-93753563D01*
X181072881Y-93759595D01*
X181097107Y-93783821D01*
X181162061Y-93816915D01*
X181195798Y-93834105D01*
X181232265Y-93839881D01*
X181305198Y-93851433D01*
X181305200Y-93851433D01*
X181305202Y-93851433D01*
X181359901Y-93842769D01*
X181414602Y-93834105D01*
X181465861Y-93807987D01*
X181513292Y-93783821D01*
X181513292Y-93783820D01*
X181513295Y-93783819D01*
X181518702Y-93778412D01*
X181580025Y-93744927D01*
X181649717Y-93749911D01*
X181705650Y-93791783D01*
X181730067Y-93857247D01*
X181730383Y-93866093D01*
X181730383Y-95293611D01*
X181710698Y-95360650D01*
X181679270Y-95393928D01*
X181677273Y-95395378D01*
X181598943Y-95473709D01*
X181548660Y-95572398D01*
X181548660Y-95572399D01*
X181531333Y-95681797D01*
X181531333Y-95681802D01*
X181548660Y-95791200D01*
X181548660Y-95791201D01*
X181598944Y-95889892D01*
X181677273Y-95968221D01*
X181742227Y-96001315D01*
X181775964Y-96018505D01*
X181812431Y-96024281D01*
X181885364Y-96035833D01*
X181885366Y-96035833D01*
X181885368Y-96035833D01*
X181940067Y-96027169D01*
X181994768Y-96018505D01*
X182046027Y-95992387D01*
X182093458Y-95968221D01*
X182093458Y-95968220D01*
X182093461Y-95968219D01*
X182171785Y-95889895D01*
X182222071Y-95791202D01*
X182239399Y-95681800D01*
X182222071Y-95572398D01*
X182171788Y-95473709D01*
X182171786Y-95473707D01*
X182171785Y-95473705D01*
X182097901Y-95399821D01*
X182064417Y-95338497D01*
X182061583Y-95312140D01*
X182061583Y-95066136D01*
X182081268Y-94999097D01*
X182134072Y-94953342D01*
X182203230Y-94943398D01*
X182204981Y-94943663D01*
X182316764Y-94961368D01*
X182316766Y-94961368D01*
X182316768Y-94961368D01*
X182371467Y-94952704D01*
X182426168Y-94944040D01*
X182477427Y-94917922D01*
X182524858Y-94893756D01*
X182524858Y-94893755D01*
X182524861Y-94893754D01*
X182603185Y-94815430D01*
X182653471Y-94716737D01*
X182670799Y-94607335D01*
X182653471Y-94497933D01*
X182603188Y-94399244D01*
X182603186Y-94399242D01*
X182603185Y-94399240D01*
X182524861Y-94320916D01*
X182524859Y-94320915D01*
X182516969Y-94315183D01*
X182518505Y-94313068D01*
X182478308Y-94275103D01*
X182461400Y-94212594D01*
X182461400Y-94050107D01*
X182481085Y-93983068D01*
X182533889Y-93937313D01*
X182603047Y-93927369D01*
X182604798Y-93927634D01*
X182716764Y-93945368D01*
X182716766Y-93945368D01*
X182716768Y-93945368D01*
X182771467Y-93936704D01*
X182826168Y-93928040D01*
X182877427Y-93901922D01*
X182924858Y-93877756D01*
X182924858Y-93877755D01*
X182924861Y-93877754D01*
X183003185Y-93799430D01*
X183007082Y-93791783D01*
X183041344Y-93724538D01*
X183053471Y-93700737D01*
X183070799Y-93591335D01*
X183053471Y-93481933D01*
X183026502Y-93429002D01*
X183003188Y-93383244D01*
X183003186Y-93383242D01*
X183003185Y-93383240D01*
X182924861Y-93304916D01*
X182924859Y-93304915D01*
X182916969Y-93299183D01*
X182918643Y-93296877D01*
X182879047Y-93259478D01*
X182862140Y-93196971D01*
X182862140Y-92757800D01*
X182881825Y-92690761D01*
X182934629Y-92645006D01*
X182986140Y-92633800D01*
X186870800Y-92633800D01*
X186937839Y-92653485D01*
X186983594Y-92706289D01*
X186994800Y-92757800D01*
X186994800Y-95380000D01*
X186975115Y-95447039D01*
X186922311Y-95492794D01*
X186870800Y-95504000D01*
X184911999Y-95504000D01*
X184353200Y-96062799D01*
X184353200Y-99771638D01*
X184333515Y-99838677D01*
X184318085Y-99858099D01*
X181635400Y-102615998D01*
X181635400Y-107472647D01*
X181615715Y-107539686D01*
X181562911Y-107585441D01*
X181493753Y-107595385D01*
X181455107Y-107583133D01*
X181414598Y-107562493D01*
X181305202Y-107545167D01*
X181305198Y-107545167D01*
X181195799Y-107562494D01*
X181195798Y-107562494D01*
X181097107Y-107612778D01*
X181018778Y-107691107D01*
X180968494Y-107789798D01*
X180968494Y-107789799D01*
X180951167Y-107899197D01*
X180951167Y-107899202D01*
X180968494Y-108008600D01*
X180968494Y-108008601D01*
X181018778Y-108107292D01*
X181097107Y-108185621D01*
X181155293Y-108215267D01*
X181195798Y-108235905D01*
X181232265Y-108241681D01*
X181305198Y-108253233D01*
X181305200Y-108253233D01*
X181305202Y-108253233D01*
X181414597Y-108235906D01*
X181414597Y-108235905D01*
X181414602Y-108235905D01*
X181455107Y-108215266D01*
X181523775Y-108202371D01*
X181588515Y-108228648D01*
X181628772Y-108285754D01*
X181635400Y-108325752D01*
X181635400Y-112296400D01*
X181615715Y-112363439D01*
X181562911Y-112409194D01*
X181511400Y-112420400D01*
X181454389Y-112420400D01*
X181387350Y-112400715D01*
X181341595Y-112347911D01*
X181330389Y-112296611D01*
X181330389Y-112296400D01*
X181328439Y-111150400D01*
X181328438Y-111150398D01*
X178750260Y-108545038D01*
X178717097Y-108483540D01*
X178714400Y-108457818D01*
X178714400Y-95910400D01*
X178054000Y-95250000D01*
X176144802Y-95250000D01*
X176077763Y-95230315D01*
X176032008Y-95177511D01*
X176020808Y-95127204D01*
X175997816Y-92759004D01*
X176016849Y-92691776D01*
X176069206Y-92645511D01*
X176121810Y-92633800D01*
X179641753Y-92633800D01*
X179708792Y-92653485D01*
G37*
%TD.AperFunction*%
%TD*%
%TA.AperFunction,Conductor*%
%TO.N,3.3V*%
G36*
X173069524Y-121177685D02*
G01*
X173115279Y-121230489D01*
X173126485Y-121281914D01*
X173127924Y-123367800D01*
X173179034Y-123420117D01*
X174495086Y-123420587D01*
X174562117Y-123440296D01*
X174607853Y-123493116D01*
X174619040Y-123544587D01*
X174619040Y-127553030D01*
X174599355Y-127620069D01*
X174546551Y-127665824D01*
X174495020Y-127677030D01*
X171532885Y-127676559D01*
X171465849Y-127656864D01*
X171420102Y-127604053D01*
X171408905Y-127552255D01*
X171419046Y-123420587D01*
X171424296Y-121281694D01*
X171444145Y-121214705D01*
X171497062Y-121169080D01*
X171548296Y-121158000D01*
X173002485Y-121158000D01*
X173069524Y-121177685D01*
G37*
%TD.AperFunction*%
%TD*%
%TA.AperFunction,Conductor*%
%TO.N,/GPIOT__RXP14*%
G36*
X193318128Y-103802454D02*
G01*
X194006563Y-104086637D01*
X194012903Y-104092962D01*
X194012914Y-104092988D01*
X194297094Y-104781416D01*
X194297083Y-104790370D01*
X194290743Y-104796695D01*
X194289805Y-104797036D01*
X192984397Y-105209589D01*
X192975475Y-105208815D01*
X192972598Y-105206706D01*
X192892845Y-105126953D01*
X192889418Y-105118680D01*
X192889962Y-105115154D01*
X192992605Y-104790370D01*
X193302516Y-103809744D01*
X193308275Y-103802890D01*
X193317197Y-103802116D01*
X193318128Y-103802454D01*
G37*
%TD.AperFunction*%
%TD*%
%TA.AperFunction,Conductor*%
%TO.N,/GPIOT__RXP09*%
G36*
X184975640Y-75049654D02*
G01*
X185664075Y-75333837D01*
X185670415Y-75340162D01*
X185670426Y-75340188D01*
X185954606Y-76028616D01*
X185954595Y-76037570D01*
X185948255Y-76043895D01*
X185947317Y-76044236D01*
X184641909Y-76456789D01*
X184632987Y-76456015D01*
X184630110Y-76453906D01*
X184550357Y-76374153D01*
X184546930Y-76365880D01*
X184547474Y-76362354D01*
X184650117Y-76037570D01*
X184960028Y-75056944D01*
X184965787Y-75050090D01*
X184974709Y-75049316D01*
X184975640Y-75049654D01*
G37*
%TD.AperFunction*%
%TD*%
%TA.AperFunction,Conductor*%
%TO.N,/GPIOT__RXN18*%
G36*
X168290664Y-106342454D02*
G01*
X168979099Y-106626637D01*
X168985439Y-106632962D01*
X168985450Y-106632988D01*
X169269630Y-107321416D01*
X169269619Y-107330370D01*
X169263279Y-107336695D01*
X169262341Y-107337036D01*
X167956933Y-107749589D01*
X167948011Y-107748815D01*
X167945134Y-107746706D01*
X167865381Y-107666953D01*
X167861954Y-107658680D01*
X167862498Y-107655154D01*
X167965141Y-107330370D01*
X168275052Y-106349744D01*
X168280811Y-106342890D01*
X168289733Y-106342116D01*
X168290664Y-106342454D01*
G37*
%TD.AperFunction*%
%TD*%
%TA.AperFunction,Conductor*%
%TO.N,VCCB_4*%
G36*
X203598317Y-69006085D02*
G01*
X203644072Y-69058889D01*
X203655278Y-69110311D01*
X203656987Y-71503911D01*
X203637350Y-71570965D01*
X203584579Y-71616758D01*
X203532987Y-71628000D01*
X201421999Y-71628000D01*
X201041000Y-72008999D01*
X201041000Y-76072807D01*
X201021315Y-76139846D01*
X201005127Y-76160040D01*
X196088000Y-81127600D01*
X196088000Y-87715354D01*
X196082775Y-87741621D01*
X196084606Y-87741986D01*
X196076300Y-87783741D01*
X196076300Y-87783743D01*
X196076300Y-87783745D01*
X196076300Y-88246710D01*
X196076301Y-88649000D01*
X196056617Y-88716039D01*
X196003813Y-88761794D01*
X195952301Y-88773000D01*
X195856400Y-88773000D01*
X195789361Y-88753315D01*
X195743606Y-88700511D01*
X195732400Y-88649000D01*
X195732400Y-87630000D01*
X195706999Y-87604506D01*
X195424628Y-87604571D01*
X195357584Y-87584902D01*
X195311817Y-87532108D01*
X195300600Y-87480571D01*
X195300600Y-72110600D01*
X194818000Y-71628000D01*
X192834274Y-71628000D01*
X192767235Y-71608315D01*
X192721480Y-71555511D01*
X192710274Y-71503823D01*
X192713687Y-69110223D01*
X192733467Y-69043212D01*
X192786336Y-68997532D01*
X192837687Y-68986400D01*
X203531278Y-68986400D01*
X203598317Y-69006085D01*
G37*
%TD.AperFunction*%
%TD*%
%TA.AperFunction,Conductor*%
%TO.N,VCC12V_DCIN*%
G36*
X159652739Y-124218200D02*
G01*
X159698494Y-124271004D01*
X159709700Y-124322515D01*
X159709700Y-124557122D01*
X159712147Y-124579882D01*
X159723354Y-124631393D01*
X159727484Y-124639644D01*
X159740600Y-124695148D01*
X159740600Y-125827115D01*
X159720915Y-125894154D01*
X159668111Y-125939909D01*
X159616600Y-125951115D01*
X159613600Y-125951115D01*
X159613600Y-136317291D01*
X159593915Y-136384330D01*
X159541111Y-136430085D01*
X159482318Y-136441077D01*
X159192014Y-136424000D01*
X159171818Y-136421131D01*
X158634310Y-136298970D01*
X158612360Y-136291774D01*
X158046214Y-136045623D01*
X158031859Y-136038235D01*
X157786460Y-135890996D01*
X157541058Y-135743754D01*
X157521909Y-135729598D01*
X157029986Y-135286867D01*
X157016703Y-135272897D01*
X156701178Y-134884558D01*
X156686512Y-134861825D01*
X156467350Y-134423499D01*
X156467346Y-134423492D01*
X156461482Y-134409751D01*
X156338462Y-134065294D01*
X156335830Y-134057022D01*
X156163792Y-133442600D01*
X156159200Y-133409166D01*
X156159200Y-130983349D01*
X156178885Y-130916310D01*
X156231689Y-130870555D01*
X156281739Y-130859358D01*
X158318200Y-130835400D01*
X158343600Y-130810000D01*
X158343600Y-126075115D01*
X158363285Y-126008076D01*
X158416089Y-125962321D01*
X158467600Y-125951115D01*
X159131000Y-125951115D01*
X159131000Y-124322515D01*
X159150685Y-124255476D01*
X159203489Y-124209721D01*
X159255000Y-124198515D01*
X159585700Y-124198515D01*
X159652739Y-124218200D01*
G37*
%TD.AperFunction*%
%TD*%
%TA.AperFunction,Conductor*%
%TO.N,/GPIOT__RXN13*%
G36*
X201660616Y-103802454D02*
G01*
X202349051Y-104086637D01*
X202355391Y-104092962D01*
X202355402Y-104092988D01*
X202639582Y-104781416D01*
X202639571Y-104790370D01*
X202633231Y-104796695D01*
X202632293Y-104797036D01*
X201326885Y-105209589D01*
X201317963Y-105208815D01*
X201315086Y-105206706D01*
X201235333Y-105126953D01*
X201231906Y-105118680D01*
X201232450Y-105115154D01*
X201335093Y-104790370D01*
X201645004Y-103809744D01*
X201650763Y-103802890D01*
X201659685Y-103802116D01*
X201660616Y-103802454D01*
G37*
%TD.AperFunction*%
%TD*%
%TA.AperFunction,Conductor*%
%TO.N,/GPIOB__TXP14*%
G36*
X235030576Y-101262454D02*
G01*
X235719011Y-101546637D01*
X235725351Y-101552962D01*
X235725362Y-101552988D01*
X236009542Y-102241416D01*
X236009531Y-102250370D01*
X236003191Y-102256695D01*
X236002253Y-102257036D01*
X234696845Y-102669589D01*
X234687923Y-102668815D01*
X234685046Y-102666706D01*
X234605293Y-102586953D01*
X234601866Y-102578680D01*
X234602410Y-102575154D01*
X234705053Y-102250370D01*
X235014964Y-101269744D01*
X235020723Y-101262890D01*
X235029645Y-101262116D01*
X235030576Y-101262454D01*
G37*
%TD.AperFunction*%
%TD*%
%TA.AperFunction,Conductor*%
%TO.N,/GPIOB__TXN16*%
G36*
X226688080Y-103802454D02*
G01*
X227376515Y-104086637D01*
X227382855Y-104092962D01*
X227382866Y-104092988D01*
X227667046Y-104781416D01*
X227667035Y-104790370D01*
X227660695Y-104796695D01*
X227659757Y-104797036D01*
X226354349Y-105209589D01*
X226345427Y-105208815D01*
X226342550Y-105206706D01*
X226262797Y-105126953D01*
X226259370Y-105118680D01*
X226259914Y-105115154D01*
X226362557Y-104790370D01*
X226672468Y-103809744D01*
X226678227Y-103802890D01*
X226687149Y-103802116D01*
X226688080Y-103802454D01*
G37*
%TD.AperFunction*%
%TD*%
%TA.AperFunction,Conductor*%
%TO.N,/GPIOB__TXN08*%
G36*
X210003104Y-98722454D02*
G01*
X210691539Y-99006637D01*
X210697879Y-99012962D01*
X210697890Y-99012988D01*
X210982070Y-99701416D01*
X210982059Y-99710370D01*
X210975719Y-99716695D01*
X210974781Y-99717036D01*
X209669373Y-100129589D01*
X209660451Y-100128815D01*
X209657574Y-100126706D01*
X209577821Y-100046953D01*
X209574394Y-100038680D01*
X209574938Y-100035154D01*
X209677581Y-99710370D01*
X209987492Y-98729744D01*
X209993251Y-98722890D01*
X210002173Y-98722116D01*
X210003104Y-98722454D01*
G37*
%TD.AperFunction*%
%TD*%
%TA.AperFunction,Conductor*%
%TO.N,/NETL3_1*%
G36*
X176803318Y-121177685D02*
G01*
X176849073Y-121230489D01*
X176860279Y-121281920D01*
X176862670Y-125010095D01*
X176843028Y-125077148D01*
X176790254Y-125122936D01*
X176738751Y-125134175D01*
X176403000Y-125134394D01*
X176377625Y-125159494D01*
X176377804Y-125343483D01*
X176376542Y-125361250D01*
X176372100Y-125392145D01*
X176372100Y-127617505D01*
X176352415Y-127684544D01*
X176299611Y-127730299D01*
X176248100Y-127741505D01*
X175063840Y-127741505D01*
X174996801Y-127721820D01*
X174951046Y-127669016D01*
X174939840Y-127617505D01*
X174939840Y-121282000D01*
X174959525Y-121214961D01*
X175012329Y-121169206D01*
X175063840Y-121158000D01*
X176736279Y-121158000D01*
X176803318Y-121177685D01*
G37*
%TD.AperFunction*%
%TD*%
M02*
