%TF.GenerationSoftware,KiCad,Pcbnew,8.0.1*%
%TF.CreationDate,2025-03-26T15:28:56+05:30*%
%TF.ProjectId,GPIO HAT 2,4750494f-2048-4415-9420-322e6b696361,rev?*%
%TF.SameCoordinates,Original*%
%TF.FileFunction,Plated,1,4,PTH,Mixed*%
%TF.FilePolarity,Positive*%
%FSLAX46Y46*%
G04 Gerber Fmt 4.6, Leading zero omitted, Abs format (unit mm)*
G04 Created by KiCad (PCBNEW 8.0.1) date 2025-03-26 15:28:56*
%MOMM*%
%LPD*%
G01*
G04 APERTURE LIST*
%TA.AperFunction,ViaDrill*%
%ADD10C,0.200000*%
%TD*%
G04 aperture for slot hole*
%TA.AperFunction,ComponentDrill*%
%ADD11C,0.600000*%
%TD*%
%TA.AperFunction,ComponentDrill*%
%ADD12C,0.914400*%
%TD*%
%TA.AperFunction,ComponentDrill*%
%ADD13C,1.000000*%
%TD*%
%TA.AperFunction,ComponentDrill*%
%ADD14C,2.780000*%
%TD*%
G04 APERTURE END LIST*
D10*
X156819600Y-128676400D03*
X156819600Y-129692400D03*
X156819600Y-130708400D03*
X156819600Y-131724400D03*
X156819600Y-132740400D03*
X156819600Y-133756400D03*
X157403800Y-124206000D03*
X157403800Y-125425200D03*
X157403800Y-126644400D03*
X157429200Y-122986800D03*
X157607000Y-94589600D03*
X157607000Y-97871280D03*
X157607000Y-101152960D03*
X157607000Y-104434640D03*
X157607000Y-107716320D03*
X157607000Y-110998000D03*
X157835600Y-132740400D03*
X157835600Y-133781800D03*
X159664400Y-122986800D03*
X159664400Y-124206000D03*
X159664400Y-125425200D03*
X159664400Y-126644400D03*
X161874200Y-124206000D03*
X161874200Y-125425200D03*
X161874200Y-126644400D03*
X161899600Y-122986800D03*
X162775900Y-92163900D03*
X163144200Y-93446600D03*
X163550600Y-94513400D03*
X163830000Y-89154000D03*
X163957000Y-95580200D03*
X164185100Y-130543100D03*
X164185600Y-131343400D03*
X164211000Y-112903000D03*
X164465000Y-84074000D03*
X164477700Y-115735100D03*
X164490400Y-93370400D03*
X164566600Y-107899200D03*
X164566600Y-110566200D03*
X164592000Y-87172800D03*
X164769800Y-91313000D03*
X165060100Y-131293100D03*
X165100000Y-115468400D03*
X165100000Y-128397000D03*
X165100000Y-129387600D03*
X165100000Y-130429000D03*
X165303200Y-95504000D03*
X165633400Y-94437200D03*
X165963600Y-128397000D03*
X165963600Y-129387600D03*
X166116000Y-93395800D03*
X166446200Y-92329000D03*
X166872300Y-134279700D03*
X167532700Y-132552500D03*
X167685100Y-133543100D03*
X167735900Y-131993700D03*
X167970200Y-90297000D03*
X168300400Y-111353600D03*
X169799000Y-125806200D03*
X169824400Y-129768600D03*
X169951400Y-133426200D03*
X170809040Y-128312010D03*
X171027600Y-131337395D03*
X171027600Y-132353395D03*
X171027600Y-133369395D03*
X171027600Y-134385395D03*
X171145200Y-135153400D03*
X171145200Y-136169400D03*
X171738800Y-125495395D03*
X171738800Y-126511395D03*
X172161200Y-135153400D03*
X172161200Y-136169400D03*
X172231440Y-129632810D03*
X172754800Y-125495395D03*
X172754800Y-126511395D03*
X173024800Y-128651000D03*
X173177200Y-135153400D03*
X173177200Y-136169400D03*
X173262800Y-133420195D03*
X173755440Y-129658210D03*
X173770800Y-124479395D03*
X173770800Y-125495395D03*
X173770800Y-126511395D03*
X174142400Y-121513600D03*
X175437800Y-130479800D03*
X175437800Y-133477000D03*
X175463200Y-131978400D03*
X176834800Y-135153400D03*
X176834800Y-136169400D03*
X176885600Y-128346200D03*
X176885600Y-130352800D03*
X177850800Y-128270000D03*
X177850800Y-131339180D03*
X177850800Y-132355180D03*
X177850800Y-133371180D03*
X177850800Y-134387180D03*
X178612800Y-112852200D03*
X178866800Y-125497180D03*
X178866800Y-126513180D03*
X179496200Y-92176600D03*
X179578000Y-129659995D03*
X179916096Y-93319600D03*
X180136800Y-133396580D03*
X180187600Y-125497180D03*
X180187600Y-126513180D03*
X180316096Y-94607335D03*
X180365400Y-128621380D03*
X180517800Y-89179400D03*
X180767766Y-95681800D03*
X181127400Y-129659995D03*
X181279800Y-87274400D03*
X181305200Y-83972400D03*
X181305200Y-93497400D03*
X181305200Y-107899200D03*
X181330600Y-110769400D03*
X181406800Y-91236800D03*
X181457600Y-125497180D03*
X181457600Y-126513180D03*
X181610000Y-115646200D03*
X181885366Y-95681800D03*
X182316766Y-94607335D03*
X182499000Y-125450600D03*
X182549800Y-115570000D03*
X182716766Y-93591335D03*
X183152745Y-92259455D03*
X185166000Y-111709200D03*
X185191400Y-90627200D03*
X186436000Y-133121400D03*
X187166400Y-134970102D03*
X187604400Y-133832600D03*
X187960000Y-136347200D03*
X188366400Y-132232400D03*
X188366400Y-134970102D03*
X188798200Y-133832600D03*
X189153800Y-136347200D03*
X189560200Y-132232400D03*
X189560200Y-134970102D03*
X189992000Y-133832600D03*
X190042800Y-90500200D03*
X190042800Y-111607600D03*
X190373000Y-136347200D03*
X190754000Y-132232400D03*
X190767844Y-134970102D03*
X191211200Y-133832600D03*
X191566800Y-136347200D03*
X191947800Y-134970102D03*
X191973200Y-132232400D03*
X192405000Y-133832600D03*
X192760600Y-136347200D03*
X193167000Y-132232400D03*
X193167000Y-134970102D03*
X193598800Y-133832600D03*
X193954400Y-136347200D03*
X194360800Y-132232400D03*
X194360800Y-134970102D03*
X194818000Y-133832600D03*
X195173600Y-136347200D03*
X195554600Y-132232400D03*
X195554600Y-134970102D03*
X195656200Y-110769400D03*
X195681600Y-115646200D03*
X195732400Y-87172800D03*
X195808600Y-89230200D03*
X195910200Y-112903000D03*
X195935600Y-91236800D03*
X196062600Y-133832600D03*
X196342000Y-136347200D03*
X196672200Y-93218000D03*
X196672200Y-115722400D03*
X196766400Y-134970102D03*
X196773800Y-132232400D03*
X197154800Y-84734400D03*
X197154800Y-108305600D03*
X197154800Y-131241800D03*
X197205600Y-133832600D03*
X197561200Y-130175000D03*
X197586600Y-136347200D03*
X197967600Y-132232400D03*
X197967600Y-134970102D03*
X198348600Y-131241800D03*
X198424800Y-133832600D03*
X198780400Y-130225800D03*
X198780400Y-136347200D03*
X208127600Y-133070600D03*
X208940400Y-134970102D03*
X209397600Y-133832600D03*
X209753200Y-136347200D03*
X210134200Y-132232400D03*
X210134200Y-134970102D03*
X210540600Y-112877600D03*
X210566000Y-133832600D03*
X210947000Y-136347200D03*
X211328000Y-134970102D03*
X211353400Y-132232400D03*
X211886800Y-133832600D03*
X211988400Y-110744000D03*
X211988400Y-115824000D03*
X212166200Y-136347200D03*
X212547200Y-132232400D03*
X212547200Y-134970102D03*
X212922200Y-92532200D03*
X212928200Y-115925600D03*
X212979000Y-133832600D03*
X213360000Y-93615000D03*
X213360000Y-136347200D03*
X213410800Y-108305600D03*
X213715600Y-134970102D03*
X213741000Y-132232400D03*
X213769870Y-94631000D03*
X214172800Y-133832600D03*
X214223600Y-89179400D03*
X214223600Y-95732600D03*
X214528400Y-136347200D03*
X214560100Y-91793100D03*
X214630000Y-87172800D03*
X214655400Y-84099400D03*
X214884000Y-91059000D03*
X214934800Y-132232400D03*
X214934800Y-134970102D03*
X215341200Y-95732600D03*
X215493600Y-133832600D03*
X215747600Y-136347200D03*
X215760670Y-94631000D03*
X216140234Y-134970102D03*
X216154000Y-132232400D03*
X216160670Y-93615000D03*
X216636600Y-92303600D03*
X216687400Y-133832600D03*
X216941400Y-136347200D03*
X217347800Y-132232400D03*
X217347800Y-134970102D03*
X217779600Y-133832600D03*
X218135200Y-136347200D03*
X218535872Y-134970102D03*
X218541600Y-90601800D03*
X218541600Y-132232400D03*
X218643200Y-110134400D03*
X218900000Y-131241800D03*
X218973400Y-133832600D03*
X219300000Y-130200000D03*
X219329000Y-136347200D03*
X219735400Y-132232400D03*
X219735400Y-134970102D03*
X220141800Y-131241800D03*
X220167200Y-133832600D03*
X220573600Y-136347200D03*
X220599000Y-130251200D03*
X228834200Y-128406400D03*
X228859600Y-129320800D03*
X228859600Y-130260600D03*
X228859600Y-131073400D03*
X229590600Y-92684600D03*
X229824800Y-128406400D03*
X229875600Y-129320800D03*
X229926400Y-130260600D03*
X229926400Y-131073400D03*
X230022400Y-93853000D03*
X230454200Y-94919800D03*
X230568500Y-115887500D03*
X230609600Y-125698400D03*
X230609600Y-126823400D03*
X230609600Y-132448400D03*
X230609600Y-133573400D03*
X230809800Y-89204800D03*
X230860600Y-112877600D03*
X230886000Y-96113600D03*
X231292400Y-84048600D03*
X231292400Y-93268800D03*
X231292400Y-107899200D03*
X231292400Y-110794800D03*
X231495600Y-87071200D03*
X231495600Y-115824000D03*
X231546400Y-91084400D03*
X231859600Y-124448400D03*
X231876600Y-125679200D03*
X231927400Y-133654800D03*
X231978200Y-96088200D03*
X231984600Y-134823400D03*
X232435400Y-94869000D03*
X232816400Y-93751400D03*
X233095800Y-132638800D03*
X233109600Y-125698400D03*
X233109600Y-133573400D03*
X233197400Y-92659200D03*
X233197400Y-126974600D03*
X235234600Y-129198400D03*
X235234600Y-130198400D03*
X235313800Y-111755300D03*
X235331000Y-90576400D03*
X238129400Y-130348800D03*
X238185100Y-129043100D03*
D11*
%TO.C,J23*%
X234659600Y-125378400D02*
X234059600Y-125378400D01*
X234659600Y-134018400D02*
X234059600Y-134018400D01*
X238459600Y-125378400D02*
X237859600Y-125378400D01*
X238459600Y-134018400D02*
X237859600Y-134018400D01*
D12*
%TO.C,J3*%
X160640400Y-70256400D03*
X160640400Y-72796400D03*
X160640400Y-75336400D03*
X160640400Y-77876400D03*
X160640400Y-80416400D03*
X160640400Y-82956400D03*
%TO.C,J1*%
X160640400Y-93929200D03*
X160640400Y-96469200D03*
X160640400Y-99009200D03*
X160640400Y-101549200D03*
X160640400Y-104089200D03*
X160640400Y-106629200D03*
%TO.C,J4*%
X168982888Y-70256400D03*
X168982888Y-72796400D03*
X168982888Y-75336400D03*
X168982888Y-77876400D03*
X168982888Y-80416400D03*
X168982888Y-82956400D03*
%TO.C,J2*%
X168982888Y-93929200D03*
X168982888Y-96469200D03*
X168982888Y-99009200D03*
X168982888Y-101549200D03*
X168982888Y-104089200D03*
X168982888Y-106629200D03*
%TO.C,J7*%
X177325376Y-70256400D03*
X177325376Y-72796400D03*
X177325376Y-75336400D03*
X177325376Y-77876400D03*
X177325376Y-80416400D03*
X177325376Y-82956400D03*
%TO.C,J5*%
X177325376Y-93929200D03*
X177325376Y-96469200D03*
X177325376Y-99009200D03*
X177325376Y-101549200D03*
X177325376Y-104089200D03*
X177325376Y-106629200D03*
%TO.C,J8*%
X185667864Y-70256400D03*
X185667864Y-72796400D03*
X185667864Y-75336400D03*
X185667864Y-77876400D03*
X185667864Y-80416400D03*
X185667864Y-82956400D03*
%TO.C,J6*%
X185667864Y-93929200D03*
X185667864Y-96469200D03*
X185667864Y-99009200D03*
X185667864Y-101549200D03*
X185667864Y-104089200D03*
X185667864Y-106629200D03*
%TO.C,J11*%
X194010352Y-70256400D03*
X194010352Y-72796400D03*
X194010352Y-75336400D03*
X194010352Y-77876400D03*
X194010352Y-80416400D03*
X194010352Y-82956400D03*
%TO.C,J9*%
X194010352Y-93929200D03*
X194010352Y-96469200D03*
X194010352Y-99009200D03*
X194010352Y-101549200D03*
X194010352Y-104089200D03*
X194010352Y-106629200D03*
%TO.C,J12*%
X202352840Y-70256400D03*
X202352840Y-72796400D03*
X202352840Y-75336400D03*
X202352840Y-77876400D03*
X202352840Y-80416400D03*
X202352840Y-82956400D03*
%TO.C,J10*%
X202352840Y-93929200D03*
X202352840Y-96469200D03*
X202352840Y-99009200D03*
X202352840Y-101549200D03*
X202352840Y-104089200D03*
X202352840Y-106629200D03*
%TO.C,J13*%
X210695328Y-70256400D03*
X210695328Y-72796400D03*
X210695328Y-75336400D03*
X210695328Y-77876400D03*
X210695328Y-80416400D03*
X210695328Y-82956400D03*
%TO.C,J15*%
X210695328Y-93929200D03*
X210695328Y-96469200D03*
X210695328Y-99009200D03*
X210695328Y-101549200D03*
X210695328Y-104089200D03*
X210695328Y-106629200D03*
%TO.C,J14*%
X219037816Y-70256400D03*
X219037816Y-72796400D03*
X219037816Y-75336400D03*
X219037816Y-77876400D03*
X219037816Y-80416400D03*
X219037816Y-82956400D03*
%TO.C,J16*%
X219037816Y-93929200D03*
X219037816Y-96469200D03*
X219037816Y-99009200D03*
X219037816Y-101549200D03*
X219037816Y-104089200D03*
X219037816Y-106629200D03*
%TO.C,J17*%
X227380304Y-70256400D03*
X227380304Y-72796400D03*
X227380304Y-75336400D03*
X227380304Y-77876400D03*
X227380304Y-80416400D03*
X227380304Y-82956400D03*
%TO.C,J19*%
X227380304Y-93929200D03*
X227380304Y-96469200D03*
X227380304Y-99009200D03*
X227380304Y-101549200D03*
X227380304Y-104089200D03*
X227380304Y-106629200D03*
%TO.C,J18*%
X235722800Y-70256400D03*
X235722800Y-72796400D03*
X235722800Y-75336400D03*
X235722800Y-77876400D03*
X235722800Y-80416400D03*
X235722800Y-82956400D03*
%TO.C,J20*%
X235722800Y-93929200D03*
X235722800Y-96469200D03*
X235722800Y-99009200D03*
X235722800Y-101549200D03*
X235722800Y-104089200D03*
X235722800Y-106629200D03*
D13*
%TO.C,J24*%
X157683200Y-87833200D03*
X157683200Y-90373200D03*
X160223200Y-87833200D03*
X160223200Y-90373200D03*
%TO.C,JM1*%
X171094400Y-88595200D03*
%TO.C,JM3*%
X171094400Y-111836200D03*
%TO.C,JM1*%
X173634400Y-88595200D03*
%TO.C,JM3*%
X173634400Y-111836200D03*
%TO.C,JM1*%
X176174400Y-88595200D03*
%TO.C,JM3*%
X176174400Y-111836200D03*
%TO.C,JM2*%
X201015600Y-88595200D03*
%TO.C,JM4*%
X201015600Y-111836200D03*
%TO.C,JM2*%
X203555600Y-88595200D03*
%TO.C,JM4*%
X203555600Y-111836200D03*
%TO.C,JM2*%
X206095600Y-88595200D03*
%TO.C,JM4*%
X206095600Y-111836200D03*
%TO.C,JM5*%
X230555800Y-121234200D03*
X233095800Y-121234200D03*
X235635800Y-121234200D03*
D14*
%TO.C,REF\u002A\u002A*%
X159385000Y-65176400D03*
X159385000Y-114198400D03*
X217347800Y-65176400D03*
X217347800Y-114198400D03*
M02*
