%TF.GenerationSoftware,KiCad,Pcbnew,8.0.1*%
%TF.CreationDate,2025-03-26T15:28:54+05:30*%
%TF.ProjectId,GPIO HAT 2,4750494f-2048-4415-9420-322e6b696361,rev?*%
%TF.SameCoordinates,Original*%
%TF.FileFunction,Soldermask,Bot*%
%TF.FilePolarity,Negative*%
%FSLAX46Y46*%
G04 Gerber Fmt 4.6, Leading zero omitted, Abs format (unit mm)*
G04 Created by KiCad (PCBNEW 8.0.1) date 2025-03-26 15:28:54*
%MOMM*%
%LPD*%
G01*
G04 APERTURE LIST*
%ADD10R,0.600000X0.500000*%
%ADD11R,0.500000X0.600000*%
%ADD12C,1.524000*%
%ADD13C,1.500000*%
%ADD14C,3.810000*%
%ADD15O,1.700000X1.100000*%
%ADD16R,0.230000X0.660000*%
G04 APERTURE END LIST*
D10*
%TO.C,R5*%
X170301300Y-132019099D03*
X170301300Y-133019099D03*
%TD*%
%TO.C,R3*%
X168802700Y-133019100D03*
X168802700Y-132019100D03*
%TD*%
D11*
%TO.C,C11*%
X169577500Y-130693500D03*
X168577500Y-130693500D03*
%TD*%
D12*
%TO.C,J17*%
X227380304Y-70256400D03*
X227380304Y-72796400D03*
X227380304Y-75336400D03*
X227380304Y-77876400D03*
X227380304Y-80416400D03*
X227380304Y-82956400D03*
%TD*%
D13*
%TO.C,JM1*%
X171094400Y-88595200D03*
X173634400Y-88595200D03*
X176174400Y-88595200D03*
%TD*%
D12*
%TO.C,J7*%
X177325376Y-70256400D03*
X177325376Y-72796400D03*
X177325376Y-75336400D03*
X177325376Y-77876400D03*
X177325376Y-80416400D03*
X177325376Y-82956400D03*
%TD*%
%TO.C,J1*%
X160640400Y-93929200D03*
X160640400Y-96469200D03*
X160640400Y-99009200D03*
X160640400Y-101549200D03*
X160640400Y-104089200D03*
X160640400Y-106629200D03*
%TD*%
%TO.C,J19*%
X227380304Y-93929200D03*
X227380304Y-96469200D03*
X227380304Y-99009200D03*
X227380304Y-101549200D03*
X227380304Y-104089200D03*
X227380304Y-106629200D03*
%TD*%
D14*
%TO.C,REF\u002A\u002A*%
X217347800Y-65176400D03*
%TD*%
%TO.C,REF\u002A\u002A*%
X159385000Y-114198400D03*
%TD*%
D12*
%TO.C,J14*%
X219037816Y-70256400D03*
X219037816Y-72796400D03*
X219037816Y-75336400D03*
X219037816Y-77876400D03*
X219037816Y-80416400D03*
X219037816Y-82956400D03*
%TD*%
%TO.C,J4*%
X168982888Y-70256400D03*
X168982888Y-72796400D03*
X168982888Y-75336400D03*
X168982888Y-77876400D03*
X168982888Y-80416400D03*
X168982888Y-82956400D03*
%TD*%
%TO.C,J11*%
X194010352Y-70256400D03*
X194010352Y-72796400D03*
X194010352Y-75336400D03*
X194010352Y-77876400D03*
X194010352Y-80416400D03*
X194010352Y-82956400D03*
%TD*%
D14*
%TO.C,REF\u002A\u002A*%
X217347800Y-114198400D03*
%TD*%
D12*
%TO.C,J18*%
X235722800Y-70256400D03*
X235722800Y-72796400D03*
X235722800Y-75336400D03*
X235722800Y-77876400D03*
X235722800Y-80416400D03*
X235722800Y-82956400D03*
%TD*%
D13*
%TO.C,J24*%
X157683200Y-87833200D03*
X160223200Y-87833200D03*
X157683200Y-90373200D03*
X160223200Y-90373200D03*
%TD*%
%TO.C,JM5*%
X230555800Y-121234200D03*
X233095800Y-121234200D03*
X235635800Y-121234200D03*
%TD*%
D12*
%TO.C,J10*%
X202352840Y-93929200D03*
X202352840Y-96469200D03*
X202352840Y-99009200D03*
X202352840Y-101549200D03*
X202352840Y-104089200D03*
X202352840Y-106629200D03*
%TD*%
%TO.C,J6*%
X185667864Y-93929200D03*
X185667864Y-96469200D03*
X185667864Y-99009200D03*
X185667864Y-101549200D03*
X185667864Y-104089200D03*
X185667864Y-106629200D03*
%TD*%
%TO.C,J20*%
X235722800Y-93929200D03*
X235722800Y-96469200D03*
X235722800Y-99009200D03*
X235722800Y-101549200D03*
X235722800Y-104089200D03*
X235722800Y-106629200D03*
%TD*%
D14*
%TO.C,REF\u002A\u002A*%
X159385000Y-65176400D03*
%TD*%
D12*
%TO.C,J8*%
X185667864Y-70256400D03*
X185667864Y-72796400D03*
X185667864Y-75336400D03*
X185667864Y-77876400D03*
X185667864Y-80416400D03*
X185667864Y-82956400D03*
%TD*%
D13*
%TO.C,JM3*%
X171094400Y-111836200D03*
X173634400Y-111836200D03*
X176174400Y-111836200D03*
%TD*%
D12*
%TO.C,J13*%
X210695328Y-70256400D03*
X210695328Y-72796400D03*
X210695328Y-75336400D03*
X210695328Y-77876400D03*
X210695328Y-80416400D03*
X210695328Y-82956400D03*
%TD*%
%TO.C,J16*%
X219037816Y-93929200D03*
X219037816Y-96469200D03*
X219037816Y-99009200D03*
X219037816Y-101549200D03*
X219037816Y-104089200D03*
X219037816Y-106629200D03*
%TD*%
%TO.C,J2*%
X168982888Y-93929200D03*
X168982888Y-96469200D03*
X168982888Y-99009200D03*
X168982888Y-101549200D03*
X168982888Y-104089200D03*
X168982888Y-106629200D03*
%TD*%
D15*
%TO.C,J23*%
X234359600Y-134018400D03*
X238159600Y-134018400D03*
X234359600Y-125378400D03*
X238159600Y-125378400D03*
%TD*%
D12*
%TO.C,J3*%
X160640400Y-70256400D03*
X160640400Y-72796400D03*
X160640400Y-75336400D03*
X160640400Y-77876400D03*
X160640400Y-80416400D03*
X160640400Y-82956400D03*
%TD*%
%TO.C,J9*%
X194010352Y-93929200D03*
X194010352Y-96469200D03*
X194010352Y-99009200D03*
X194010352Y-101549200D03*
X194010352Y-104089200D03*
X194010352Y-106629200D03*
%TD*%
%TO.C,J15*%
X210695328Y-93929200D03*
X210695328Y-96469200D03*
X210695328Y-99009200D03*
X210695328Y-101549200D03*
X210695328Y-104089200D03*
X210695328Y-106629200D03*
%TD*%
%TO.C,J5*%
X177325376Y-93929200D03*
X177325376Y-96469200D03*
X177325376Y-99009200D03*
X177325376Y-101549200D03*
X177325376Y-104089200D03*
X177325376Y-106629200D03*
%TD*%
D13*
%TO.C,JM4*%
X201015600Y-111836200D03*
X203555600Y-111836200D03*
X206095600Y-111836200D03*
%TD*%
%TO.C,JM2*%
X201015600Y-88595200D03*
X203555600Y-88595200D03*
X206095600Y-88595200D03*
%TD*%
D12*
%TO.C,J12*%
X202352840Y-70256400D03*
X202352840Y-72796400D03*
X202352840Y-75336400D03*
X202352840Y-77876400D03*
X202352840Y-80416400D03*
X202352840Y-82956400D03*
%TD*%
D11*
%TO.C,C37*%
X231775000Y-92405200D03*
X230775000Y-92405200D03*
%TD*%
%TO.C,C36*%
X196824600Y-116382800D03*
X195824600Y-116382800D03*
%TD*%
D10*
%TO.C,C32*%
X195681600Y-109651800D03*
X195681600Y-108651800D03*
%TD*%
D11*
%TO.C,C28*%
X196418200Y-92405200D03*
X195418200Y-92405200D03*
%TD*%
D10*
%TO.C,C34*%
X231241600Y-109651800D03*
X231241600Y-108651800D03*
%TD*%
D11*
%TO.C,C27*%
X182676800Y-116357400D03*
X181676800Y-116357400D03*
%TD*%
%TO.C,R19*%
X236252000Y-130348800D03*
X237252000Y-130348800D03*
%TD*%
D10*
%TO.C,C24*%
X212013800Y-109651800D03*
X212013800Y-108651800D03*
%TD*%
%TO.C,C19*%
X164566600Y-109651800D03*
X164566600Y-108651800D03*
%TD*%
D16*
%TO.C,J22*%
X220547000Y-132994400D03*
X220147000Y-132994400D03*
X219747000Y-132994400D03*
X219347000Y-132994400D03*
X218947000Y-132994400D03*
X218547000Y-132994400D03*
X218147000Y-132994400D03*
X217747000Y-132994400D03*
X217347000Y-132994400D03*
X216947000Y-132994400D03*
X216547000Y-132994400D03*
X216147000Y-132994400D03*
X215747000Y-132994400D03*
X215347000Y-132994400D03*
X214947000Y-132994400D03*
X214547000Y-132994400D03*
X214147000Y-132994400D03*
X213747000Y-132994400D03*
X213347000Y-132994400D03*
X212947000Y-132994400D03*
X212547000Y-132994400D03*
X212147000Y-132994400D03*
X211747000Y-132994400D03*
X211347000Y-132994400D03*
X210947000Y-132994400D03*
X210547000Y-132994400D03*
X210147000Y-132994400D03*
X209747000Y-132994400D03*
X209347000Y-132994400D03*
X208947000Y-132994400D03*
X208947000Y-135704400D03*
X209347000Y-135704400D03*
X209747000Y-135704400D03*
X210147000Y-135704400D03*
X210547000Y-135704400D03*
X210947000Y-135704400D03*
X211347000Y-135704400D03*
X211747000Y-135704400D03*
X212147000Y-135704400D03*
X212547000Y-135704400D03*
X212947000Y-135704400D03*
X213347000Y-135704400D03*
X213747000Y-135704400D03*
X214147000Y-135704400D03*
X214547000Y-135704400D03*
X214947000Y-135704400D03*
X215347000Y-135704400D03*
X215747000Y-135704400D03*
X216147000Y-135704400D03*
X216547000Y-135704400D03*
X216947000Y-135704400D03*
X217347000Y-135704400D03*
X217747000Y-135704400D03*
X218147000Y-135704400D03*
X218547000Y-135704400D03*
X218947000Y-135704400D03*
X219347000Y-135704400D03*
X219747000Y-135704400D03*
X220147000Y-135704400D03*
X220547000Y-135704400D03*
%TD*%
D11*
%TO.C,C26*%
X165125400Y-92405200D03*
X164125400Y-92405200D03*
%TD*%
D16*
%TO.C,J21*%
X187166400Y-135712200D03*
X187566400Y-135712200D03*
X187966400Y-135712200D03*
X188366400Y-135712200D03*
X188766400Y-135712200D03*
X189166400Y-135712200D03*
X189566400Y-135712200D03*
X189966400Y-135712200D03*
X190366400Y-135712200D03*
X190766400Y-135712200D03*
X191166400Y-135712200D03*
X191566400Y-135712200D03*
X191966400Y-135712200D03*
X192366400Y-135712200D03*
X192766400Y-135712200D03*
X193166400Y-135712200D03*
X193566400Y-135712200D03*
X193966400Y-135712200D03*
X194366400Y-135712200D03*
X194766400Y-135712200D03*
X195166400Y-135712200D03*
X195566400Y-135712200D03*
X195966400Y-135712200D03*
X196366400Y-135712200D03*
X196766400Y-135712200D03*
X197166400Y-135712200D03*
X197566400Y-135712200D03*
X197966400Y-135712200D03*
X198366400Y-135712200D03*
X198766400Y-135712200D03*
X198766400Y-133002200D03*
X198366400Y-133002200D03*
X197966400Y-133002200D03*
X197566400Y-133002200D03*
X197166400Y-133002200D03*
X196766400Y-133002200D03*
X196366400Y-133002200D03*
X195966400Y-133002200D03*
X195566400Y-133002200D03*
X195166400Y-133002200D03*
X194766400Y-133002200D03*
X194366400Y-133002200D03*
X193966400Y-133002200D03*
X193566400Y-133002200D03*
X193166400Y-133002200D03*
X192766400Y-133002200D03*
X192366400Y-133002200D03*
X191966400Y-133002200D03*
X191566400Y-133002200D03*
X191166400Y-133002200D03*
X190766400Y-133002200D03*
X190366400Y-133002200D03*
X189966400Y-133002200D03*
X189566400Y-133002200D03*
X189166400Y-133002200D03*
X188766400Y-133002200D03*
X188366400Y-133002200D03*
X187966400Y-133002200D03*
X187566400Y-133002200D03*
X187166400Y-133002200D03*
%TD*%
D11*
%TO.C,C30*%
X212877400Y-116535200D03*
X211877400Y-116535200D03*
%TD*%
D10*
%TO.C,C21*%
X181305200Y-109651800D03*
X181305200Y-108651800D03*
%TD*%
D11*
%TO.C,C35*%
X181711600Y-92405200D03*
X180711600Y-92405200D03*
%TD*%
%TO.C,R18*%
X236252000Y-129098800D03*
X237252000Y-129098800D03*
%TD*%
%TO.C,C38*%
X231546400Y-116535200D03*
X230546400Y-116535200D03*
%TD*%
D10*
%TO.C,C33*%
X231317800Y-86080600D03*
X231317800Y-85080600D03*
%TD*%
%TO.C,C20*%
X164465000Y-86080600D03*
X164465000Y-85080600D03*
%TD*%
D11*
%TO.C,C25*%
X165430200Y-116357400D03*
X164430200Y-116357400D03*
%TD*%
D10*
%TO.C,C31*%
X181305200Y-86080600D03*
X181305200Y-85080600D03*
%TD*%
%TO.C,C23*%
X214655400Y-86080600D03*
X214655400Y-85080600D03*
%TD*%
%TO.C,C22*%
X195757800Y-86080600D03*
X195757800Y-85080600D03*
%TD*%
D11*
%TO.C,C29*%
X215188800Y-92405200D03*
X214188800Y-92405200D03*
%TD*%
M02*
