%TF.GenerationSoftware,KiCad,Pcbnew,8.0.3*%
%TF.CreationDate,2024-12-24T16:57:12+05:30*%
%TF.ProjectId,GPIO HAT 2,4750494f-2048-4415-9420-322e6b696361,rev?*%
%TF.SameCoordinates,Original*%
%TF.FileFunction,Paste,Top*%
%TF.FilePolarity,Positive*%
%FSLAX46Y46*%
G04 Gerber Fmt 4.6, Leading zero omitted, Abs format (unit mm)*
G04 Created by KiCad (PCBNEW 8.0.3) date 2024-12-24 16:57:12*
%MOMM*%
%LPD*%
G01*
G04 APERTURE LIST*
G04 Aperture macros list*
%AMRoundRect*
0 Rectangle with rounded corners*
0 $1 Rounding radius*
0 $2 $3 $4 $5 $6 $7 $8 $9 X,Y pos of 4 corners*
0 Add a 4 corners polygon primitive as box body*
4,1,4,$2,$3,$4,$5,$6,$7,$8,$9,$2,$3,0*
0 Add four circle primitives for the rounded corners*
1,1,$1+$1,$2,$3*
1,1,$1+$1,$4,$5*
1,1,$1+$1,$6,$7*
1,1,$1+$1,$8,$9*
0 Add four rect primitives between the rounded corners*
20,1,$1+$1,$2,$3,$4,$5,0*
20,1,$1+$1,$4,$5,$6,$7,0*
20,1,$1+$1,$6,$7,$8,$9,0*
20,1,$1+$1,$8,$9,$2,$3,0*%
G04 Aperture macros list end*
%ADD10R,0.600000X0.500000*%
%ADD11R,0.762000X0.762000*%
%ADD12R,0.500000X0.600000*%
%ADD13R,0.200000X1.000000*%
%ADD14R,1.600000X3.499990*%
%ADD15R,0.660000X0.320000*%
%ADD16RoundRect,0.147500X-0.147500X0.457500X-0.147500X-0.457500X0.147500X-0.457500X0.147500X0.457500X0*%
%ADD17RoundRect,0.175000X0.425000X-0.175000X0.425000X0.175000X-0.425000X0.175000X-0.425000X-0.175000X0*%
%ADD18RoundRect,0.190000X-0.410000X0.190000X-0.410000X-0.190000X0.410000X-0.190000X0.410000X0.190000X0*%
%ADD19RoundRect,0.200000X-0.400000X0.200000X-0.400000X-0.200000X0.400000X-0.200000X0.400000X0.200000X0*%
%ADD20RoundRect,0.175000X-0.425000X0.175000X-0.425000X-0.175000X0.425000X-0.175000X0.425000X0.175000X0*%
%ADD21RoundRect,0.190000X0.410000X-0.190000X0.410000X0.190000X-0.410000X0.190000X-0.410000X-0.190000X0*%
%ADD22RoundRect,0.200000X0.400000X-0.200000X0.400000X0.200000X-0.400000X0.200000X-0.400000X-0.200000X0*%
%ADD23O,1.700000X1.100000*%
G04 APERTURE END LIST*
D10*
%TO.C,R10*%
X235313800Y-112674400D03*
X235313800Y-113674400D03*
%TD*%
D11*
%TO.C,C7*%
X172282240Y-127308200D03*
X172282240Y-128642210D03*
%TD*%
D12*
%TO.C,R19*%
X179029240Y-134077810D03*
X180029240Y-134077810D03*
%TD*%
D13*
%TO.C,U4*%
X183079800Y-88293800D03*
X182679800Y-88293800D03*
X182279800Y-88293800D03*
X181879800Y-88293800D03*
X181479800Y-88293800D03*
X181079800Y-88293800D03*
X180679800Y-88293800D03*
X180279800Y-88293800D03*
X179879800Y-88293800D03*
X179479800Y-88293800D03*
X179479800Y-90093800D03*
X179879800Y-90093800D03*
X180279800Y-90093800D03*
X180679800Y-90093800D03*
X181079800Y-90093800D03*
X181479800Y-90093800D03*
X181879800Y-90093800D03*
X182279800Y-90093800D03*
X182679800Y-90093800D03*
X183079800Y-90093800D03*
%TD*%
D12*
%TO.C,R16*%
X173262800Y-132588000D03*
X172262800Y-132588000D03*
%TD*%
D11*
%TO.C,C9*%
X231937173Y-131231865D03*
X231937173Y-132565875D03*
%TD*%
D13*
%TO.C,U8*%
X213779000Y-111966600D03*
X213379000Y-111966600D03*
X212979000Y-111966600D03*
X212579000Y-111966600D03*
X212179000Y-111966600D03*
X211779000Y-111966600D03*
X211379000Y-111966600D03*
X210979000Y-111966600D03*
X210579000Y-111966600D03*
X210179000Y-111966600D03*
X210179000Y-113766600D03*
X210579000Y-113766600D03*
X210979000Y-113766600D03*
X211379000Y-113766600D03*
X211779000Y-113766600D03*
X212179000Y-113766600D03*
X212579000Y-113766600D03*
X212979000Y-113766600D03*
X213379000Y-113766600D03*
X213779000Y-113766600D03*
%TD*%
D14*
%TO.C,J25*%
X159183650Y-132924113D03*
X162786750Y-132924113D03*
%TD*%
D10*
%TO.C,R4*%
X185178700Y-89585800D03*
X185178700Y-88585800D03*
%TD*%
D11*
%TO.C,C22*%
X181011110Y-124309385D03*
X182345120Y-124309385D03*
%TD*%
%TO.C,C21*%
X179625350Y-127308200D03*
X179625350Y-128642210D03*
%TD*%
D15*
%TO.C,U14*%
X166597000Y-133388800D03*
X166597000Y-132888800D03*
X166597000Y-132388800D03*
X166597000Y-131888800D03*
X165127000Y-131888800D03*
X165127000Y-132388800D03*
X165127000Y-132888800D03*
X165127000Y-133388800D03*
%TD*%
D11*
%TO.C,C4*%
X168596910Y-131197570D03*
X169930920Y-131197570D03*
%TD*%
D13*
%TO.C,U5*%
X197478400Y-111966600D03*
X197078400Y-111966600D03*
X196678400Y-111966600D03*
X196278400Y-111966600D03*
X195878400Y-111966600D03*
X195478400Y-111966600D03*
X195078400Y-111966600D03*
X194678400Y-111966600D03*
X194278400Y-111966600D03*
X193878400Y-111966600D03*
X193878400Y-113766600D03*
X194278400Y-113766600D03*
X194678400Y-113766600D03*
X195078400Y-113766600D03*
X195478400Y-113766600D03*
X195878400Y-113766600D03*
X196278400Y-113766600D03*
X196678400Y-113766600D03*
X197078400Y-113766600D03*
X197478400Y-113766600D03*
%TD*%
D10*
%TO.C,R1*%
X167970200Y-112674400D03*
X167970200Y-113674400D03*
%TD*%
D12*
%TO.C,C5*%
X173262800Y-131165600D03*
X172262800Y-131165600D03*
%TD*%
%TO.C,C44*%
X165862000Y-135890000D03*
X164862000Y-135890000D03*
%TD*%
D13*
%TO.C,U9*%
X233176400Y-88293800D03*
X232776400Y-88293800D03*
X232376400Y-88293800D03*
X231976400Y-88293800D03*
X231576400Y-88293800D03*
X231176400Y-88293800D03*
X230776400Y-88293800D03*
X230376400Y-88293800D03*
X229976400Y-88293800D03*
X229576400Y-88293800D03*
X229576400Y-90093800D03*
X229976400Y-90093800D03*
X230376400Y-90093800D03*
X230776400Y-90093800D03*
X231176400Y-90093800D03*
X231576400Y-90093800D03*
X231976400Y-90093800D03*
X232376400Y-90093800D03*
X232776400Y-90093800D03*
X233176400Y-90093800D03*
%TD*%
D12*
%TO.C,C19*%
X180029240Y-131165600D03*
X179029240Y-131165600D03*
%TD*%
D10*
%TO.C,R9*%
X235313800Y-89585800D03*
X235313800Y-88585800D03*
%TD*%
%TO.C,R7*%
X218516200Y-89585800D03*
X218516200Y-88585800D03*
%TD*%
D11*
%TO.C,C2*%
X168596910Y-134194685D03*
X169930920Y-134194685D03*
%TD*%
%TO.C,C1*%
X231913353Y-128202310D03*
X231913353Y-126868300D03*
%TD*%
D14*
%TO.C,L1*%
X169434440Y-123366015D03*
X172234440Y-123366015D03*
%TD*%
D11*
%TO.C,C6*%
X173780840Y-127309985D03*
X173780840Y-128643995D03*
%TD*%
D13*
%TO.C,U6*%
X197478400Y-88293800D03*
X197078400Y-88293800D03*
X196678400Y-88293800D03*
X196278400Y-88293800D03*
X195878400Y-88293800D03*
X195478400Y-88293800D03*
X195078400Y-88293800D03*
X194678400Y-88293800D03*
X194278400Y-88293800D03*
X193878400Y-88293800D03*
X193878400Y-90093800D03*
X194278400Y-90093800D03*
X194678400Y-90093800D03*
X195078400Y-90093800D03*
X195478400Y-90093800D03*
X195878400Y-90093800D03*
X196278400Y-90093800D03*
X196678400Y-90093800D03*
X197078400Y-90093800D03*
X197478400Y-90093800D03*
%TD*%
D11*
%TO.C,C20*%
X181113910Y-127309985D03*
X181113910Y-128643995D03*
%TD*%
D12*
%TO.C,R17*%
X172262800Y-134077810D03*
X173262800Y-134077810D03*
%TD*%
D16*
%TO.C,U12*%
X170799160Y-127037595D03*
X169849160Y-127037595D03*
X168899160Y-127037595D03*
X168899160Y-129547595D03*
X170799160Y-129547595D03*
%TD*%
D11*
%TO.C,C17*%
X175524930Y-132697955D03*
X176858940Y-132697955D03*
%TD*%
D13*
%TO.C,U10*%
X233176400Y-111966600D03*
X232776400Y-111966600D03*
X232376400Y-111966600D03*
X231976400Y-111966600D03*
X231576400Y-111966600D03*
X231176400Y-111966600D03*
X230776400Y-111966600D03*
X230376400Y-111966600D03*
X229976400Y-111966600D03*
X229576400Y-111966600D03*
X229576400Y-113766600D03*
X229976400Y-113766600D03*
X230376400Y-113766600D03*
X230776400Y-113766600D03*
X231176400Y-113766600D03*
X231576400Y-113766600D03*
X231976400Y-113766600D03*
X232376400Y-113766600D03*
X232776400Y-113766600D03*
X233176400Y-113766600D03*
%TD*%
%TO.C,U7*%
X216522200Y-88293800D03*
X216122200Y-88293800D03*
X215722200Y-88293800D03*
X215322200Y-88293800D03*
X214922200Y-88293800D03*
X214522200Y-88293800D03*
X214122200Y-88293800D03*
X213722200Y-88293800D03*
X213322200Y-88293800D03*
X212922200Y-88293800D03*
X212922200Y-90093800D03*
X213322200Y-90093800D03*
X213722200Y-90093800D03*
X214122200Y-90093800D03*
X214522200Y-90093800D03*
X214922200Y-90093800D03*
X215322200Y-90093800D03*
X215722200Y-90093800D03*
X216122200Y-90093800D03*
X216522200Y-90093800D03*
%TD*%
D10*
%TO.C,R5*%
X190042800Y-112674400D03*
X190042800Y-113674400D03*
%TD*%
%TO.C,R2*%
X167970200Y-89585800D03*
X167970200Y-88585800D03*
%TD*%
%TO.C,R6*%
X190042800Y-89585800D03*
X190042800Y-88585800D03*
%TD*%
%TO.C,R3*%
X185178700Y-112674400D03*
X185178700Y-113674400D03*
%TD*%
D13*
%TO.C,U2*%
X166402800Y-88293800D03*
X166002800Y-88293800D03*
X165602800Y-88293800D03*
X165202800Y-88293800D03*
X164802800Y-88293800D03*
X164402800Y-88293800D03*
X164002800Y-88293800D03*
X163602800Y-88293800D03*
X163202800Y-88293800D03*
X162802800Y-88293800D03*
X162802800Y-90093800D03*
X163202800Y-90093800D03*
X163602800Y-90093800D03*
X164002800Y-90093800D03*
X164402800Y-90093800D03*
X164802800Y-90093800D03*
X165202800Y-90093800D03*
X165602800Y-90093800D03*
X166002800Y-90093800D03*
X166402800Y-90093800D03*
%TD*%
D17*
%TO.C,J24*%
X234279600Y-130198400D03*
D18*
X234279600Y-128178400D03*
D19*
X234279600Y-126948400D03*
D20*
X234279600Y-129198400D03*
D21*
X234279600Y-131218400D03*
D22*
X234279600Y-132448400D03*
D23*
X234359600Y-134018400D03*
X238159600Y-134018400D03*
X234359600Y-125378400D03*
X238159600Y-125378400D03*
%TD*%
D12*
%TO.C,R18*%
X180029240Y-132588000D03*
X179029240Y-132588000D03*
%TD*%
D10*
%TO.C,R8*%
X217678000Y-110134400D03*
X217678000Y-111134400D03*
%TD*%
D16*
%TO.C,U13*%
X177886400Y-127037595D03*
X176936400Y-127037595D03*
X175986400Y-127037595D03*
X175986400Y-129547595D03*
X177886400Y-129547595D03*
%TD*%
D13*
%TO.C,U3*%
X183096200Y-111966600D03*
X182696200Y-111966600D03*
X182296200Y-111966600D03*
X181896200Y-111966600D03*
X181496200Y-111966600D03*
X181096200Y-111966600D03*
X180696200Y-111966600D03*
X180296200Y-111966600D03*
X179896200Y-111966600D03*
X179496200Y-111966600D03*
X179496200Y-113766600D03*
X179896200Y-113766600D03*
X180296200Y-113766600D03*
X180696200Y-113766600D03*
X181096200Y-113766600D03*
X181496200Y-113766600D03*
X181896200Y-113766600D03*
X182296200Y-113766600D03*
X182696200Y-113766600D03*
X183096200Y-113766600D03*
%TD*%
D11*
%TO.C,C16*%
X175524930Y-134194685D03*
X176858940Y-134194685D03*
%TD*%
D14*
%TO.C,L3*%
X176044400Y-123367800D03*
X178844400Y-123367800D03*
%TD*%
D11*
%TO.C,C8*%
X174167160Y-123808285D03*
X174167160Y-122474275D03*
%TD*%
D13*
%TO.C,U1*%
X166402800Y-111966600D03*
X166002800Y-111966600D03*
X165602800Y-111966600D03*
X165202800Y-111966600D03*
X164802800Y-111966600D03*
X164402800Y-111966600D03*
X164002800Y-111966600D03*
X163602800Y-111966600D03*
X163202800Y-111966600D03*
X162802800Y-111966600D03*
X162802800Y-113766600D03*
X163202800Y-113766600D03*
X163602800Y-113766600D03*
X164002800Y-113766600D03*
X164402800Y-113766600D03*
X164802800Y-113766600D03*
X165202800Y-113766600D03*
X165602800Y-113766600D03*
X166002800Y-113766600D03*
X166402800Y-113766600D03*
%TD*%
D11*
%TO.C,C3*%
X168596910Y-132697955D03*
X169930920Y-132697955D03*
%TD*%
%TO.C,C18*%
X175524930Y-131197570D03*
X176858940Y-131197570D03*
%TD*%
D12*
%TO.C,R22*%
X164871400Y-134467600D03*
X165871400Y-134467600D03*
%TD*%
M02*
