%TF.GenerationSoftware,KiCad,Pcbnew,8.0.3*%
%TF.CreationDate,2024-12-13T11:26:27+05:30*%
%TF.ProjectId,GPIO HAT 2,4750494f-2048-4415-9420-322e6b696361,rev?*%
%TF.SameCoordinates,Original*%
%TF.FileFunction,Paste,Bot*%
%TF.FilePolarity,Positive*%
%FSLAX46Y46*%
G04 Gerber Fmt 4.6, Leading zero omitted, Abs format (unit mm)*
G04 Created by KiCad (PCBNEW 8.0.3) date 2024-12-13 11:26:27*
%MOMM*%
%LPD*%
G01*
G04 APERTURE LIST*
%ADD10R,0.500000X0.600000*%
%ADD11R,0.600000X0.500000*%
%ADD12R,0.230000X0.660000*%
G04 APERTURE END LIST*
D10*
%TO.C,C39*%
X231775000Y-92405200D03*
X230775000Y-92405200D03*
%TD*%
%TO.C,C31*%
X196824600Y-116382800D03*
X195824600Y-116382800D03*
%TD*%
D11*
%TO.C,C32*%
X195681600Y-109651800D03*
X195681600Y-108651800D03*
%TD*%
D10*
%TO.C,C33*%
X196418200Y-92405200D03*
X195418200Y-92405200D03*
%TD*%
D11*
%TO.C,C42*%
X231241600Y-109651800D03*
X231241600Y-108651800D03*
%TD*%
D10*
%TO.C,C27*%
X182676800Y-116357400D03*
X181676800Y-116357400D03*
%TD*%
D11*
%TO.C,C38*%
X212013800Y-109651800D03*
X212013800Y-108651800D03*
%TD*%
%TO.C,R20*%
X168630600Y-131953000D03*
X168630600Y-132953001D03*
%TD*%
%TO.C,C24*%
X164566600Y-109651800D03*
X164566600Y-108651800D03*
%TD*%
D12*
%TO.C,J22*%
X220547000Y-132994400D03*
X220147000Y-132994400D03*
X219747000Y-132994400D03*
X219347000Y-132994400D03*
X218947000Y-132994400D03*
X218547000Y-132994400D03*
X218147000Y-132994400D03*
X217747000Y-132994400D03*
X217347000Y-132994400D03*
X216947000Y-132994400D03*
X216547000Y-132994400D03*
X216147000Y-132994400D03*
X215747000Y-132994400D03*
X215347000Y-132994400D03*
X214947000Y-132994400D03*
X214547000Y-132994400D03*
X214147000Y-132994400D03*
X213747000Y-132994400D03*
X213347000Y-132994400D03*
X212947000Y-132994400D03*
X212547000Y-132994400D03*
X212147000Y-132994400D03*
X211747000Y-132994400D03*
X211347000Y-132994400D03*
X210947000Y-132994400D03*
X210547000Y-132994400D03*
X210147000Y-132994400D03*
X209747000Y-132994400D03*
X209347000Y-132994400D03*
X208947000Y-132994400D03*
X208947000Y-135704400D03*
X209347000Y-135704400D03*
X209747000Y-135704400D03*
X210147000Y-135704400D03*
X210547000Y-135704400D03*
X210947000Y-135704400D03*
X211347000Y-135704400D03*
X211747000Y-135704400D03*
X212147000Y-135704400D03*
X212547000Y-135704400D03*
X212947000Y-135704400D03*
X213347000Y-135704400D03*
X213747000Y-135704400D03*
X214147000Y-135704400D03*
X214547000Y-135704400D03*
X214947000Y-135704400D03*
X215347000Y-135704400D03*
X215747000Y-135704400D03*
X216147000Y-135704400D03*
X216547000Y-135704400D03*
X216947000Y-135704400D03*
X217347000Y-135704400D03*
X217747000Y-135704400D03*
X218147000Y-135704400D03*
X218547000Y-135704400D03*
X218947000Y-135704400D03*
X219347000Y-135704400D03*
X219747000Y-135704400D03*
X220147000Y-135704400D03*
X220547000Y-135704400D03*
%TD*%
D10*
%TO.C,C25*%
X165125400Y-92405200D03*
X164125400Y-92405200D03*
%TD*%
D12*
%TO.C,J21*%
X187166400Y-135712200D03*
X187566400Y-135712200D03*
X187966400Y-135712200D03*
X188366400Y-135712200D03*
X188766400Y-135712200D03*
X189166400Y-135712200D03*
X189566400Y-135712200D03*
X189966400Y-135712200D03*
X190366400Y-135712200D03*
X190766400Y-135712200D03*
X191166400Y-135712200D03*
X191566400Y-135712200D03*
X191966400Y-135712200D03*
X192366400Y-135712200D03*
X192766400Y-135712200D03*
X193166400Y-135712200D03*
X193566400Y-135712200D03*
X193966400Y-135712200D03*
X194366400Y-135712200D03*
X194766400Y-135712200D03*
X195166400Y-135712200D03*
X195566400Y-135712200D03*
X195966400Y-135712200D03*
X196366400Y-135712200D03*
X196766400Y-135712200D03*
X197166400Y-135712200D03*
X197566400Y-135712200D03*
X197966400Y-135712200D03*
X198366400Y-135712200D03*
X198766400Y-135712200D03*
X198766400Y-133002200D03*
X198366400Y-133002200D03*
X197966400Y-133002200D03*
X197566400Y-133002200D03*
X197166400Y-133002200D03*
X196766400Y-133002200D03*
X196366400Y-133002200D03*
X195966400Y-133002200D03*
X195566400Y-133002200D03*
X195166400Y-133002200D03*
X194766400Y-133002200D03*
X194366400Y-133002200D03*
X193966400Y-133002200D03*
X193566400Y-133002200D03*
X193166400Y-133002200D03*
X192766400Y-133002200D03*
X192366400Y-133002200D03*
X191966400Y-133002200D03*
X191566400Y-133002200D03*
X191166400Y-133002200D03*
X190766400Y-133002200D03*
X190366400Y-133002200D03*
X189966400Y-133002200D03*
X189566400Y-133002200D03*
X189166400Y-133002200D03*
X188766400Y-133002200D03*
X188366400Y-133002200D03*
X187966400Y-133002200D03*
X187566400Y-133002200D03*
X187166400Y-133002200D03*
%TD*%
D10*
%TO.C,C37*%
X212877400Y-116535200D03*
X211877400Y-116535200D03*
%TD*%
%TO.C,C43*%
X168732200Y-130632200D03*
X169732200Y-130632200D03*
%TD*%
D11*
%TO.C,C28*%
X181305200Y-109651800D03*
X181305200Y-108651800D03*
%TD*%
D10*
%TO.C,C29*%
X181711600Y-92405200D03*
X180711600Y-92405200D03*
%TD*%
D11*
%TO.C,R21*%
X170129200Y-132952999D03*
X170129200Y-131952999D03*
%TD*%
D10*
%TO.C,C41*%
X231546400Y-116535200D03*
X230546400Y-116535200D03*
%TD*%
D11*
%TO.C,C40*%
X231317800Y-86080600D03*
X231317800Y-85080600D03*
%TD*%
%TO.C,C26*%
X164465000Y-86080600D03*
X164465000Y-85080600D03*
%TD*%
D10*
%TO.C,C23*%
X165430200Y-116357400D03*
X164430200Y-116357400D03*
%TD*%
D11*
%TO.C,C30*%
X181305200Y-86080600D03*
X181305200Y-85080600D03*
%TD*%
%TO.C,C36*%
X214655400Y-86080600D03*
X214655400Y-85080600D03*
%TD*%
%TO.C,C34*%
X195757800Y-86080600D03*
X195757800Y-85080600D03*
%TD*%
D10*
%TO.C,C35*%
X215188800Y-92405200D03*
X214188800Y-92405200D03*
%TD*%
M02*
