%TF.GenerationSoftware,KiCad,Pcbnew,8.0.1*%
%TF.CreationDate,2025-03-26T15:35:39+05:30*%
%TF.ProjectId,GPIO HAT 2,4750494f-2048-4415-9420-322e6b696361,rev?*%
%TF.SameCoordinates,Original*%
%TF.FileFunction,Profile,NP*%
%FSLAX46Y46*%
G04 Gerber Fmt 4.6, Leading zero omitted, Abs format (unit mm)*
G04 Created by KiCad (PCBNEW 8.0.1) date 2025-03-26 15:35:39*
%MOMM*%
%LPD*%
G01*
G04 APERTURE LIST*
%TA.AperFunction,Profile*%
%ADD10C,0.050000*%
%TD*%
%ADD11C,0.150000*%
G04 APERTURE END LIST*
D10*
X213393688Y-63290943D02*
G75*
G02*
X214477599Y-62026784I1174012J90143D01*
G01*
X240810100Y-133143100D02*
G75*
G02*
X237310100Y-136643100I-3500000J0D01*
G01*
X237310100Y-136643100D02*
X159310100Y-136643100D01*
X237309738Y-62043017D02*
X214477600Y-62026800D01*
X240810100Y-133143100D02*
X240810100Y-65543100D01*
X237310100Y-62043100D02*
G75*
G02*
X240810100Y-65543100I0J-3500000D01*
G01*
X159310100Y-136643100D02*
G75*
G02*
X155810100Y-133143100I0J3500000D01*
G01*
X213393687Y-63290943D02*
X213394739Y-67215466D01*
X163271200Y-63106300D02*
X163271200Y-67297300D01*
X159310100Y-62043100D02*
X162084498Y-62043100D01*
X164457934Y-68325999D02*
G75*
G02*
X163271199Y-67297300I-79034J1107699D01*
G01*
X164457934Y-68326000D02*
X212318600Y-68354761D01*
X162084498Y-62043101D02*
G75*
G02*
X163271194Y-63106300I61702J-1124999D01*
G01*
X213394738Y-67215466D02*
G75*
G02*
X212318599Y-68354736I-1107738J-31534D01*
G01*
X155810100Y-65543097D02*
G75*
G02*
X159310100Y-62043000I3500300J-203D01*
G01*
X155810100Y-133143100D02*
X155810100Y-65543100D01*
D11*
X192452957Y-139972919D02*
X193072004Y-139972919D01*
X193072004Y-139972919D02*
X192738671Y-140353871D01*
X192738671Y-140353871D02*
X192881528Y-140353871D01*
X192881528Y-140353871D02*
X192976766Y-140401490D01*
X192976766Y-140401490D02*
X193024385Y-140449109D01*
X193024385Y-140449109D02*
X193072004Y-140544347D01*
X193072004Y-140544347D02*
X193072004Y-140782442D01*
X193072004Y-140782442D02*
X193024385Y-140877680D01*
X193024385Y-140877680D02*
X192976766Y-140925300D01*
X192976766Y-140925300D02*
X192881528Y-140972919D01*
X192881528Y-140972919D02*
X192595814Y-140972919D01*
X192595814Y-140972919D02*
X192500576Y-140925300D01*
X192500576Y-140925300D02*
X192452957Y-140877680D01*
X193405338Y-139972919D02*
X194024385Y-139972919D01*
X194024385Y-139972919D02*
X193691052Y-140353871D01*
X193691052Y-140353871D02*
X193833909Y-140353871D01*
X193833909Y-140353871D02*
X193929147Y-140401490D01*
X193929147Y-140401490D02*
X193976766Y-140449109D01*
X193976766Y-140449109D02*
X194024385Y-140544347D01*
X194024385Y-140544347D02*
X194024385Y-140782442D01*
X194024385Y-140782442D02*
X193976766Y-140877680D01*
X193976766Y-140877680D02*
X193929147Y-140925300D01*
X193929147Y-140925300D02*
X193833909Y-140972919D01*
X193833909Y-140972919D02*
X193548195Y-140972919D01*
X193548195Y-140972919D02*
X193452957Y-140925300D01*
X193452957Y-140925300D02*
X193405338Y-140877680D01*
X194881528Y-140306252D02*
X194881528Y-140972919D01*
X194643433Y-139925300D02*
X194405338Y-140639585D01*
X194405338Y-140639585D02*
X195024385Y-140639585D01*
X195833909Y-139972919D02*
X195643433Y-139972919D01*
X195643433Y-139972919D02*
X195548195Y-140020538D01*
X195548195Y-140020538D02*
X195500576Y-140068157D01*
X195500576Y-140068157D02*
X195405338Y-140211014D01*
X195405338Y-140211014D02*
X195357719Y-140401490D01*
X195357719Y-140401490D02*
X195357719Y-140782442D01*
X195357719Y-140782442D02*
X195405338Y-140877680D01*
X195405338Y-140877680D02*
X195452957Y-140925300D01*
X195452957Y-140925300D02*
X195548195Y-140972919D01*
X195548195Y-140972919D02*
X195738671Y-140972919D01*
X195738671Y-140972919D02*
X195833909Y-140925300D01*
X195833909Y-140925300D02*
X195881528Y-140877680D01*
X195881528Y-140877680D02*
X195929147Y-140782442D01*
X195929147Y-140782442D02*
X195929147Y-140544347D01*
X195929147Y-140544347D02*
X195881528Y-140449109D01*
X195881528Y-140449109D02*
X195833909Y-140401490D01*
X195833909Y-140401490D02*
X195738671Y-140353871D01*
X195738671Y-140353871D02*
X195548195Y-140353871D01*
X195548195Y-140353871D02*
X195452957Y-140401490D01*
X195452957Y-140401490D02*
X195405338Y-140449109D01*
X195405338Y-140449109D02*
X195357719Y-140544347D01*
X196357719Y-140877680D02*
X196405338Y-140925300D01*
X196405338Y-140925300D02*
X196357719Y-140972919D01*
X196357719Y-140972919D02*
X196310100Y-140925300D01*
X196310100Y-140925300D02*
X196357719Y-140877680D01*
X196357719Y-140877680D02*
X196357719Y-140972919D01*
X197262480Y-140306252D02*
X197262480Y-140972919D01*
X197024385Y-139925300D02*
X196786290Y-140639585D01*
X196786290Y-140639585D02*
X197405337Y-140639585D01*
X198262480Y-139972919D02*
X197786290Y-139972919D01*
X197786290Y-139972919D02*
X197738671Y-140449109D01*
X197738671Y-140449109D02*
X197786290Y-140401490D01*
X197786290Y-140401490D02*
X197881528Y-140353871D01*
X197881528Y-140353871D02*
X198119623Y-140353871D01*
X198119623Y-140353871D02*
X198214861Y-140401490D01*
X198214861Y-140401490D02*
X198262480Y-140449109D01*
X198262480Y-140449109D02*
X198310099Y-140544347D01*
X198310099Y-140544347D02*
X198310099Y-140782442D01*
X198310099Y-140782442D02*
X198262480Y-140877680D01*
X198262480Y-140877680D02*
X198214861Y-140925300D01*
X198214861Y-140925300D02*
X198119623Y-140972919D01*
X198119623Y-140972919D02*
X197881528Y-140972919D01*
X197881528Y-140972919D02*
X197786290Y-140925300D01*
X197786290Y-140925300D02*
X197738671Y-140877680D01*
X199167242Y-139972919D02*
X198976766Y-139972919D01*
X198976766Y-139972919D02*
X198881528Y-140020538D01*
X198881528Y-140020538D02*
X198833909Y-140068157D01*
X198833909Y-140068157D02*
X198738671Y-140211014D01*
X198738671Y-140211014D02*
X198691052Y-140401490D01*
X198691052Y-140401490D02*
X198691052Y-140782442D01*
X198691052Y-140782442D02*
X198738671Y-140877680D01*
X198738671Y-140877680D02*
X198786290Y-140925300D01*
X198786290Y-140925300D02*
X198881528Y-140972919D01*
X198881528Y-140972919D02*
X199072004Y-140972919D01*
X199072004Y-140972919D02*
X199167242Y-140925300D01*
X199167242Y-140925300D02*
X199214861Y-140877680D01*
X199214861Y-140877680D02*
X199262480Y-140782442D01*
X199262480Y-140782442D02*
X199262480Y-140544347D01*
X199262480Y-140544347D02*
X199214861Y-140449109D01*
X199214861Y-140449109D02*
X199167242Y-140401490D01*
X199167242Y-140401490D02*
X199072004Y-140353871D01*
X199072004Y-140353871D02*
X198881528Y-140353871D01*
X198881528Y-140353871D02*
X198786290Y-140401490D01*
X198786290Y-140401490D02*
X198738671Y-140449109D01*
X198738671Y-140449109D02*
X198691052Y-140544347D01*
X199595814Y-139972919D02*
X200262480Y-139972919D01*
X200262480Y-139972919D02*
X199833909Y-140972919D01*
X201405338Y-140972919D02*
X201405338Y-140306252D01*
X201405338Y-140401490D02*
X201452957Y-140353871D01*
X201452957Y-140353871D02*
X201548195Y-140306252D01*
X201548195Y-140306252D02*
X201691052Y-140306252D01*
X201691052Y-140306252D02*
X201786290Y-140353871D01*
X201786290Y-140353871D02*
X201833909Y-140449109D01*
X201833909Y-140449109D02*
X201833909Y-140972919D01*
X201833909Y-140449109D02*
X201881528Y-140353871D01*
X201881528Y-140353871D02*
X201976766Y-140306252D01*
X201976766Y-140306252D02*
X202119623Y-140306252D01*
X202119623Y-140306252D02*
X202214862Y-140353871D01*
X202214862Y-140353871D02*
X202262481Y-140449109D01*
X202262481Y-140449109D02*
X202262481Y-140972919D01*
X202738671Y-140972919D02*
X202738671Y-140306252D01*
X202738671Y-139972919D02*
X202691052Y-140020538D01*
X202691052Y-140020538D02*
X202738671Y-140068157D01*
X202738671Y-140068157D02*
X202786290Y-140020538D01*
X202786290Y-140020538D02*
X202738671Y-139972919D01*
X202738671Y-139972919D02*
X202738671Y-140068157D01*
X203357718Y-140972919D02*
X203262480Y-140925300D01*
X203262480Y-140925300D02*
X203214861Y-140830061D01*
X203214861Y-140830061D02*
X203214861Y-139972919D01*
X203691052Y-140925300D02*
X203786290Y-140972919D01*
X203786290Y-140972919D02*
X203976766Y-140972919D01*
X203976766Y-140972919D02*
X204072004Y-140925300D01*
X204072004Y-140925300D02*
X204119623Y-140830061D01*
X204119623Y-140830061D02*
X204119623Y-140782442D01*
X204119623Y-140782442D02*
X204072004Y-140687204D01*
X204072004Y-140687204D02*
X203976766Y-140639585D01*
X203976766Y-140639585D02*
X203833909Y-140639585D01*
X203833909Y-140639585D02*
X203738671Y-140591966D01*
X203738671Y-140591966D02*
X203691052Y-140496728D01*
X203691052Y-140496728D02*
X203691052Y-140449109D01*
X203691052Y-140449109D02*
X203738671Y-140353871D01*
X203738671Y-140353871D02*
X203833909Y-140306252D01*
X203833909Y-140306252D02*
X203976766Y-140306252D01*
X203976766Y-140306252D02*
X204072004Y-140353871D01*
D10*
X155810100Y-133643100D02*
X155810100Y-142254520D01*
X240810100Y-133643100D02*
X240810100Y-142254520D01*
X155810100Y-141668100D02*
X240810100Y-141668100D01*
X155810100Y-141668100D02*
X240810100Y-141668100D01*
X155810100Y-141668100D02*
X156936604Y-141081679D01*
X155810100Y-141668100D02*
X156936604Y-142254521D01*
X240810100Y-141668100D02*
X239683596Y-142254521D01*
X240810100Y-141668100D02*
X239683596Y-141081679D01*
M02*
