%TF.GenerationSoftware,KiCad,Pcbnew,8.0.1*%
%TF.CreationDate,2024-12-13T12:15:52+05:30*%
%TF.ProjectId,GPIO HAT 1,4750494f-2048-4415-9420-312e6b696361,rev?*%
%TF.SameCoordinates,Original*%
%TF.FileFunction,Soldermask,Top*%
%TF.FilePolarity,Negative*%
%FSLAX46Y46*%
G04 Gerber Fmt 4.6, Leading zero omitted, Abs format (unit mm)*
G04 Created by KiCad (PCBNEW 8.0.1) date 2024-12-13 12:15:52*
%MOMM*%
%LPD*%
G01*
G04 APERTURE LIST*
G04 Aperture macros list*
%AMRoundRect*
0 Rectangle with rounded corners*
0 $1 Rounding radius*
0 $2 $3 $4 $5 $6 $7 $8 $9 X,Y pos of 4 corners*
0 Add a 4 corners polygon primitive as box body*
4,1,4,$2,$3,$4,$5,$6,$7,$8,$9,$2,$3,0*
0 Add four circle primitives for the rounded corners*
1,1,$1+$1,$2,$3*
1,1,$1+$1,$4,$5*
1,1,$1+$1,$6,$7*
1,1,$1+$1,$8,$9*
0 Add four rect primitives between the rounded corners*
20,1,$1+$1,$2,$3,$4,$5,0*
20,1,$1+$1,$4,$5,$6,$7,0*
20,1,$1+$1,$6,$7,$8,$9,0*
20,1,$1+$1,$8,$9,$2,$3,0*%
G04 Aperture macros list end*
%ADD10C,1.524000*%
%ADD11RoundRect,0.102000X0.250000X-0.237500X0.250000X0.237500X-0.250000X0.237500X-0.250000X-0.237500X0*%
%ADD12R,0.200000X1.000000*%
%ADD13R,1.500000X1.500000*%
%ADD14O,1.500000X1.500000*%
%ADD15C,3.810000*%
%ADD16RoundRect,0.102000X-0.250000X0.237500X-0.250000X-0.237500X0.250000X-0.237500X0.250000X0.237500X0*%
G04 APERTURE END LIST*
D10*
%TO.C,J2*%
X87265933Y-102819200D03*
X87265933Y-105359200D03*
X87265933Y-107899200D03*
X87265933Y-110439200D03*
X87265933Y-112979200D03*
%TD*%
%TO.C,J14*%
X126229531Y-80619600D03*
X126229531Y-83159600D03*
X126229531Y-85699600D03*
X126229531Y-88239600D03*
X126229531Y-90779600D03*
%TD*%
%TO.C,J1*%
X80772000Y-102819200D03*
X80772000Y-105359200D03*
X80772000Y-107899200D03*
X80772000Y-110439200D03*
X80772000Y-112979200D03*
%TD*%
D11*
%TO.C,R6*%
X114342000Y-98150400D03*
X114342000Y-97126400D03*
%TD*%
D10*
%TO.C,J9*%
X106747732Y-102819200D03*
X106747732Y-105359200D03*
X106747732Y-107899200D03*
X106747732Y-110439200D03*
X106747732Y-112979200D03*
%TD*%
%TO.C,J17*%
X132723464Y-80619600D03*
X132723464Y-83159600D03*
X132723464Y-85699600D03*
X132723464Y-88239600D03*
X132723464Y-90779600D03*
%TD*%
D12*
%TO.C,U10*%
X132099400Y-120849800D03*
X132499400Y-120849800D03*
X132899400Y-120849800D03*
X133299400Y-120849800D03*
X133699400Y-120849800D03*
X134099400Y-120849800D03*
X134499400Y-120849800D03*
X134899400Y-120849800D03*
X135299400Y-120849800D03*
X135699400Y-120849800D03*
X135699400Y-119049800D03*
X135299400Y-119049800D03*
X134899400Y-119049800D03*
X134499400Y-119049800D03*
X134099400Y-119049800D03*
X133699400Y-119049800D03*
X133299400Y-119049800D03*
X132899400Y-119049800D03*
X132499400Y-119049800D03*
X132099400Y-119049800D03*
%TD*%
D10*
%TO.C,J13*%
X119735598Y-80619600D03*
X119735598Y-83159600D03*
X119735598Y-85699600D03*
X119735598Y-88239600D03*
X119735598Y-90779600D03*
%TD*%
D11*
%TO.C,R3*%
X100431600Y-121035000D03*
X100431600Y-120011000D03*
%TD*%
D12*
%TO.C,U6*%
X108185200Y-98145600D03*
X108585200Y-98145600D03*
X108985200Y-98145600D03*
X109385200Y-98145600D03*
X109785200Y-98145600D03*
X110185200Y-98145600D03*
X110585200Y-98145600D03*
X110985200Y-98145600D03*
X111385200Y-98145600D03*
X111785200Y-98145600D03*
X111785200Y-96345600D03*
X111385200Y-96345600D03*
X110985200Y-96345600D03*
X110585200Y-96345600D03*
X110185200Y-96345600D03*
X109785200Y-96345600D03*
X109385200Y-96345600D03*
X108985200Y-96345600D03*
X108585200Y-96345600D03*
X108185200Y-96345600D03*
%TD*%
D13*
%TO.C,J23*%
X81885400Y-69969700D03*
D14*
X81885400Y-67429700D03*
X84425400Y-69969700D03*
X84425400Y-67429700D03*
X86965400Y-69969700D03*
X86965400Y-67429700D03*
X89505400Y-69969700D03*
X89505400Y-67429700D03*
X92045400Y-69969700D03*
X92045400Y-67429700D03*
X94585400Y-69969700D03*
X94585400Y-67429700D03*
X97125400Y-69969700D03*
X97125400Y-67429700D03*
X99665400Y-69969700D03*
X99665400Y-67429700D03*
X102205400Y-69969700D03*
X102205400Y-67429700D03*
X104745400Y-69969700D03*
X104745400Y-67429700D03*
X107285400Y-69969700D03*
X107285400Y-67429700D03*
X109825400Y-69969700D03*
X109825400Y-67429700D03*
X112365400Y-69969700D03*
X112365400Y-67429700D03*
X114905400Y-69969700D03*
X114905400Y-67429700D03*
X117445400Y-69969700D03*
X117445400Y-67429700D03*
X119985400Y-69969700D03*
X119985400Y-67429700D03*
X122525400Y-69969700D03*
X122525400Y-67429700D03*
X125065400Y-69969700D03*
X125065400Y-67429700D03*
X127605400Y-69969700D03*
X127605400Y-67429700D03*
X130145400Y-69969700D03*
X130145400Y-67429700D03*
%TD*%
D15*
%TO.C,*%
X138640000Y-74009900D03*
%TD*%
D10*
%TO.C,J10*%
X113241665Y-102819200D03*
X113241665Y-105359200D03*
X113241665Y-107899200D03*
X113241665Y-110439200D03*
X113241665Y-112979200D03*
%TD*%
%TO.C,J7*%
X93759866Y-80619600D03*
X93759866Y-83159600D03*
X93759866Y-85699600D03*
X93759866Y-88239600D03*
X93759866Y-90779600D03*
%TD*%
%TO.C,J12*%
X113241665Y-80619600D03*
X113241665Y-83159600D03*
X113241665Y-85699600D03*
X113241665Y-88239600D03*
X113241665Y-90779600D03*
%TD*%
%TO.C,J15*%
X119735598Y-102819200D03*
X119735598Y-105359200D03*
X119735598Y-107899200D03*
X119735598Y-110439200D03*
X119735598Y-112979200D03*
%TD*%
%TO.C,J8*%
X100253799Y-80619600D03*
X100253799Y-83159600D03*
X100253799Y-85699600D03*
X100253799Y-88239600D03*
X100253799Y-90779600D03*
%TD*%
%TO.C,J16*%
X126229531Y-102819200D03*
X126229531Y-105359200D03*
X126229531Y-107899200D03*
X126229531Y-110439200D03*
X126229531Y-112979200D03*
%TD*%
D16*
%TO.C,R10*%
X137668000Y-118893400D03*
X137668000Y-119917400D03*
%TD*%
D12*
%TO.C,U7*%
X121212200Y-98145600D03*
X121612200Y-98145600D03*
X122012200Y-98145600D03*
X122412200Y-98145600D03*
X122812200Y-98145600D03*
X123212200Y-98145600D03*
X123612200Y-98145600D03*
X124012200Y-98145600D03*
X124412200Y-98145600D03*
X124812200Y-98145600D03*
X124812200Y-96345600D03*
X124412200Y-96345600D03*
X124012200Y-96345600D03*
X123612200Y-96345600D03*
X123212200Y-96345600D03*
X122812200Y-96345600D03*
X122412200Y-96345600D03*
X122012200Y-96345600D03*
X121612200Y-96345600D03*
X121212200Y-96345600D03*
%TD*%
D10*
%TO.C,J5*%
X93759866Y-102819200D03*
X93759866Y-105359200D03*
X93759866Y-107899200D03*
X93759866Y-110439200D03*
X93759866Y-112979200D03*
%TD*%
D11*
%TO.C,R8*%
X126034800Y-121035000D03*
X126034800Y-120011000D03*
%TD*%
D12*
%TO.C,U1*%
X83267800Y-120849800D03*
X83667800Y-120849800D03*
X84067800Y-120849800D03*
X84467800Y-120849800D03*
X84867800Y-120849800D03*
X85267800Y-120849800D03*
X85667800Y-120849800D03*
X86067800Y-120849800D03*
X86467800Y-120849800D03*
X86867800Y-120849800D03*
X86867800Y-119049800D03*
X86467800Y-119049800D03*
X86067800Y-119049800D03*
X85667800Y-119049800D03*
X85267800Y-119049800D03*
X84867800Y-119049800D03*
X84467800Y-119049800D03*
X84067800Y-119049800D03*
X83667800Y-119049800D03*
X83267800Y-119049800D03*
%TD*%
D11*
%TO.C,R5*%
X113538000Y-121035000D03*
X113538000Y-120011000D03*
%TD*%
D12*
%TO.C,U2*%
X82223200Y-98145600D03*
X82623200Y-98145600D03*
X83023200Y-98145600D03*
X83423200Y-98145600D03*
X83823200Y-98145600D03*
X84223200Y-98145600D03*
X84623200Y-98145600D03*
X85023200Y-98145600D03*
X85423200Y-98145600D03*
X85823200Y-98145600D03*
X85823200Y-96345600D03*
X85423200Y-96345600D03*
X85023200Y-96345600D03*
X84623200Y-96345600D03*
X84223200Y-96345600D03*
X83823200Y-96345600D03*
X83423200Y-96345600D03*
X83023200Y-96345600D03*
X82623200Y-96345600D03*
X82223200Y-96345600D03*
%TD*%
D11*
%TO.C,R1*%
X88569800Y-121035000D03*
X88569800Y-120011000D03*
%TD*%
D12*
%TO.C,U9*%
X134309000Y-98145600D03*
X134709000Y-98145600D03*
X135109000Y-98145600D03*
X135509000Y-98145600D03*
X135909000Y-98145600D03*
X136309000Y-98145600D03*
X136709000Y-98145600D03*
X137109000Y-98145600D03*
X137509000Y-98145600D03*
X137909000Y-98145600D03*
X137909000Y-96345600D03*
X137509000Y-96345600D03*
X137109000Y-96345600D03*
X136709000Y-96345600D03*
X136309000Y-96345600D03*
X135909000Y-96345600D03*
X135509000Y-96345600D03*
X135109000Y-96345600D03*
X134709000Y-96345600D03*
X134309000Y-96345600D03*
%TD*%
D10*
%TO.C,J19*%
X132723464Y-102819200D03*
X132723464Y-105359200D03*
X132723464Y-107899200D03*
X132723464Y-110439200D03*
X132723464Y-112979200D03*
%TD*%
%TO.C,J3*%
X80772000Y-80619600D03*
X80772000Y-83159600D03*
X80772000Y-85699600D03*
X80772000Y-88239600D03*
X80772000Y-90779600D03*
%TD*%
D11*
%TO.C,R7*%
X127028200Y-98150400D03*
X127028200Y-97126400D03*
%TD*%
%TO.C,R4*%
X100923000Y-98150400D03*
X100923000Y-97126400D03*
%TD*%
D12*
%TO.C,U8*%
X120675600Y-120849800D03*
X121075600Y-120849800D03*
X121475600Y-120849800D03*
X121875600Y-120849800D03*
X122275600Y-120849800D03*
X122675600Y-120849800D03*
X123075600Y-120849800D03*
X123475600Y-120849800D03*
X123875600Y-120849800D03*
X124275600Y-120849800D03*
X124275600Y-119049800D03*
X123875600Y-119049800D03*
X123475600Y-119049800D03*
X123075600Y-119049800D03*
X122675600Y-119049800D03*
X122275600Y-119049800D03*
X121875600Y-119049800D03*
X121475600Y-119049800D03*
X121075600Y-119049800D03*
X120675600Y-119049800D03*
%TD*%
D10*
%TO.C,J11*%
X106747732Y-80619600D03*
X106747732Y-83159600D03*
X106747732Y-85699600D03*
X106747732Y-88239600D03*
X106747732Y-90779600D03*
%TD*%
D12*
%TO.C,U5*%
X108185200Y-120849800D03*
X108585200Y-120849800D03*
X108985200Y-120849800D03*
X109385200Y-120849800D03*
X109785200Y-120849800D03*
X110185200Y-120849800D03*
X110585200Y-120849800D03*
X110985200Y-120849800D03*
X111385200Y-120849800D03*
X111785200Y-120849800D03*
X111785200Y-119049800D03*
X111385200Y-119049800D03*
X110985200Y-119049800D03*
X110585200Y-119049800D03*
X110185200Y-119049800D03*
X109785200Y-119049800D03*
X109385200Y-119049800D03*
X108985200Y-119049800D03*
X108585200Y-119049800D03*
X108185200Y-119049800D03*
%TD*%
D15*
%TO.C,*%
X80665400Y-74060700D03*
%TD*%
%TO.C,*%
X138640000Y-123031900D03*
%TD*%
D10*
%TO.C,J4*%
X87265933Y-80619600D03*
X87265933Y-83159600D03*
X87265933Y-85699600D03*
X87265933Y-88239600D03*
X87265933Y-90779600D03*
%TD*%
D11*
%TO.C,R9*%
X140062400Y-98150400D03*
X140062400Y-97126400D03*
%TD*%
D13*
%TO.C,J24*%
X81885400Y-64889700D03*
D14*
X81885400Y-62349700D03*
X84425400Y-64889700D03*
X84425400Y-62349700D03*
X86965400Y-64889700D03*
X86965400Y-62349700D03*
X89505400Y-64889700D03*
X89505400Y-62349700D03*
X92045400Y-64889700D03*
X92045400Y-62349700D03*
X94585400Y-64889700D03*
X94585400Y-62349700D03*
X97125400Y-64889700D03*
X97125400Y-62349700D03*
X99665400Y-64889700D03*
X99665400Y-62349700D03*
X102205400Y-64889700D03*
X102205400Y-62349700D03*
X104745400Y-64889700D03*
X104745400Y-62349700D03*
X107285400Y-64889700D03*
X107285400Y-62349700D03*
X109825400Y-64889700D03*
X109825400Y-62349700D03*
X112365400Y-64889700D03*
X112365400Y-62349700D03*
X114905400Y-64889700D03*
X114905400Y-62349700D03*
X117445400Y-64889700D03*
X117445400Y-62349700D03*
X119985400Y-64889700D03*
X119985400Y-62349700D03*
X122525400Y-64889700D03*
X122525400Y-62349700D03*
X125065400Y-64889700D03*
X125065400Y-62349700D03*
X127605400Y-64889700D03*
X127605400Y-62349700D03*
X130145400Y-64889700D03*
X130145400Y-62349700D03*
%TD*%
D12*
%TO.C,U4*%
X95123200Y-98145600D03*
X95523200Y-98145600D03*
X95923200Y-98145600D03*
X96323200Y-98145600D03*
X96723200Y-98145600D03*
X97123200Y-98145600D03*
X97523200Y-98145600D03*
X97923200Y-98145600D03*
X98323200Y-98145600D03*
X98723200Y-98145600D03*
X98723200Y-96345600D03*
X98323200Y-96345600D03*
X97923200Y-96345600D03*
X97523200Y-96345600D03*
X97123200Y-96345600D03*
X96723200Y-96345600D03*
X96323200Y-96345600D03*
X95923200Y-96345600D03*
X95523200Y-96345600D03*
X95123200Y-96345600D03*
%TD*%
D11*
%TO.C,R2*%
X87914800Y-98150400D03*
X87914800Y-97126400D03*
%TD*%
D12*
%TO.C,U3*%
X95123200Y-120849800D03*
X95523200Y-120849800D03*
X95923200Y-120849800D03*
X96323200Y-120849800D03*
X96723200Y-120849800D03*
X97123200Y-120849800D03*
X97523200Y-120849800D03*
X97923200Y-120849800D03*
X98323200Y-120849800D03*
X98723200Y-120849800D03*
X98723200Y-119049800D03*
X98323200Y-119049800D03*
X97923200Y-119049800D03*
X97523200Y-119049800D03*
X97123200Y-119049800D03*
X96723200Y-119049800D03*
X96323200Y-119049800D03*
X95923200Y-119049800D03*
X95523200Y-119049800D03*
X95123200Y-119049800D03*
%TD*%
D10*
%TO.C,J20*%
X139217400Y-102819200D03*
X139217400Y-105359200D03*
X139217400Y-107899200D03*
X139217400Y-110439200D03*
X139217400Y-112979200D03*
%TD*%
D15*
%TO.C,*%
X80640000Y-123031900D03*
%TD*%
D10*
%TO.C,J18*%
X139217400Y-80619600D03*
X139217400Y-83159600D03*
X139217400Y-85699600D03*
X139217400Y-88239600D03*
X139217400Y-90779600D03*
%TD*%
%TO.C,J6*%
X100253799Y-102819200D03*
X100253799Y-105359200D03*
X100253799Y-107899200D03*
X100253799Y-110439200D03*
X100253799Y-112979200D03*
%TD*%
M02*
