%TF.GenerationSoftware,KiCad,Pcbnew,8.0.1*%
%TF.CreationDate,2024-12-13T12:15:52+05:30*%
%TF.ProjectId,GPIO HAT 1,4750494f-2048-4415-9420-312e6b696361,rev?*%
%TF.SameCoordinates,Original*%
%TF.FileFunction,Profile,NP*%
%FSLAX46Y46*%
G04 Gerber Fmt 4.6, Leading zero omitted, Abs format (unit mm)*
G04 Created by KiCad (PCBNEW 8.0.1) date 2024-12-13 12:15:52*
%MOMM*%
%LPD*%
G01*
G04 APERTURE LIST*
%ADD10C,0.150000*%
%TA.AperFunction,Profile*%
%ADD11C,0.050000*%
%TD*%
G04 APERTURE END LIST*
D10*
X69898790Y-107467490D02*
X69851171Y-107562728D01*
X69851171Y-107562728D02*
X69803552Y-107610347D01*
X69803552Y-107610347D02*
X69708314Y-107657966D01*
X69708314Y-107657966D02*
X69660695Y-107657966D01*
X69660695Y-107657966D02*
X69565457Y-107610347D01*
X69565457Y-107610347D02*
X69517838Y-107562728D01*
X69517838Y-107562728D02*
X69470219Y-107467490D01*
X69470219Y-107467490D02*
X69470219Y-107277014D01*
X69470219Y-107277014D02*
X69517838Y-107181776D01*
X69517838Y-107181776D02*
X69565457Y-107134157D01*
X69565457Y-107134157D02*
X69660695Y-107086538D01*
X69660695Y-107086538D02*
X69708314Y-107086538D01*
X69708314Y-107086538D02*
X69803552Y-107134157D01*
X69803552Y-107134157D02*
X69851171Y-107181776D01*
X69851171Y-107181776D02*
X69898790Y-107277014D01*
X69898790Y-107277014D02*
X69898790Y-107467490D01*
X69898790Y-107467490D02*
X69946409Y-107562728D01*
X69946409Y-107562728D02*
X69994028Y-107610347D01*
X69994028Y-107610347D02*
X70089266Y-107657966D01*
X70089266Y-107657966D02*
X70279742Y-107657966D01*
X70279742Y-107657966D02*
X70374980Y-107610347D01*
X70374980Y-107610347D02*
X70422600Y-107562728D01*
X70422600Y-107562728D02*
X70470219Y-107467490D01*
X70470219Y-107467490D02*
X70470219Y-107277014D01*
X70470219Y-107277014D02*
X70422600Y-107181776D01*
X70422600Y-107181776D02*
X70374980Y-107134157D01*
X70374980Y-107134157D02*
X70279742Y-107086538D01*
X70279742Y-107086538D02*
X70089266Y-107086538D01*
X70089266Y-107086538D02*
X69994028Y-107134157D01*
X69994028Y-107134157D02*
X69946409Y-107181776D01*
X69946409Y-107181776D02*
X69898790Y-107277014D01*
X69470219Y-106181776D02*
X69470219Y-106657966D01*
X69470219Y-106657966D02*
X69946409Y-106705585D01*
X69946409Y-106705585D02*
X69898790Y-106657966D01*
X69898790Y-106657966D02*
X69851171Y-106562728D01*
X69851171Y-106562728D02*
X69851171Y-106324633D01*
X69851171Y-106324633D02*
X69898790Y-106229395D01*
X69898790Y-106229395D02*
X69946409Y-106181776D01*
X69946409Y-106181776D02*
X70041647Y-106134157D01*
X70041647Y-106134157D02*
X70279742Y-106134157D01*
X70279742Y-106134157D02*
X70374980Y-106181776D01*
X70374980Y-106181776D02*
X70422600Y-106229395D01*
X70422600Y-106229395D02*
X70470219Y-106324633D01*
X70470219Y-106324633D02*
X70470219Y-106562728D01*
X70470219Y-106562728D02*
X70422600Y-106657966D01*
X70422600Y-106657966D02*
X70374980Y-106705585D01*
X70374980Y-105705585D02*
X70422600Y-105657966D01*
X70422600Y-105657966D02*
X70470219Y-105705585D01*
X70470219Y-105705585D02*
X70422600Y-105753204D01*
X70422600Y-105753204D02*
X70374980Y-105705585D01*
X70374980Y-105705585D02*
X70470219Y-105705585D01*
X69470219Y-105038919D02*
X69470219Y-104943681D01*
X69470219Y-104943681D02*
X69517838Y-104848443D01*
X69517838Y-104848443D02*
X69565457Y-104800824D01*
X69565457Y-104800824D02*
X69660695Y-104753205D01*
X69660695Y-104753205D02*
X69851171Y-104705586D01*
X69851171Y-104705586D02*
X70089266Y-104705586D01*
X70089266Y-104705586D02*
X70279742Y-104753205D01*
X70279742Y-104753205D02*
X70374980Y-104800824D01*
X70374980Y-104800824D02*
X70422600Y-104848443D01*
X70422600Y-104848443D02*
X70470219Y-104943681D01*
X70470219Y-104943681D02*
X70470219Y-105038919D01*
X70470219Y-105038919D02*
X70422600Y-105134157D01*
X70422600Y-105134157D02*
X70374980Y-105181776D01*
X70374980Y-105181776D02*
X70279742Y-105229395D01*
X70279742Y-105229395D02*
X70089266Y-105277014D01*
X70089266Y-105277014D02*
X69851171Y-105277014D01*
X69851171Y-105277014D02*
X69660695Y-105229395D01*
X69660695Y-105229395D02*
X69565457Y-105181776D01*
X69565457Y-105181776D02*
X69517838Y-105134157D01*
X69517838Y-105134157D02*
X69470219Y-105038919D01*
X69470219Y-104086538D02*
X69470219Y-103991300D01*
X69470219Y-103991300D02*
X69517838Y-103896062D01*
X69517838Y-103896062D02*
X69565457Y-103848443D01*
X69565457Y-103848443D02*
X69660695Y-103800824D01*
X69660695Y-103800824D02*
X69851171Y-103753205D01*
X69851171Y-103753205D02*
X70089266Y-103753205D01*
X70089266Y-103753205D02*
X70279742Y-103800824D01*
X70279742Y-103800824D02*
X70374980Y-103848443D01*
X70374980Y-103848443D02*
X70422600Y-103896062D01*
X70422600Y-103896062D02*
X70470219Y-103991300D01*
X70470219Y-103991300D02*
X70470219Y-104086538D01*
X70470219Y-104086538D02*
X70422600Y-104181776D01*
X70422600Y-104181776D02*
X70374980Y-104229395D01*
X70374980Y-104229395D02*
X70279742Y-104277014D01*
X70279742Y-104277014D02*
X70089266Y-104324633D01*
X70089266Y-104324633D02*
X69851171Y-104324633D01*
X69851171Y-104324633D02*
X69660695Y-104277014D01*
X69660695Y-104277014D02*
X69565457Y-104229395D01*
X69565457Y-104229395D02*
X69517838Y-104181776D01*
X69517838Y-104181776D02*
X69470219Y-104086538D01*
X69803552Y-102896062D02*
X70470219Y-102896062D01*
X69422600Y-103134157D02*
X70136885Y-103372252D01*
X70136885Y-103372252D02*
X70136885Y-102753205D01*
X70470219Y-101848443D02*
X70470219Y-102419871D01*
X70470219Y-102134157D02*
X69470219Y-102134157D01*
X69470219Y-102134157D02*
X69613076Y-102229395D01*
X69613076Y-102229395D02*
X69708314Y-102324633D01*
X69708314Y-102324633D02*
X69755933Y-102419871D01*
X70470219Y-100657966D02*
X69803552Y-100657966D01*
X69898790Y-100657966D02*
X69851171Y-100610347D01*
X69851171Y-100610347D02*
X69803552Y-100515109D01*
X69803552Y-100515109D02*
X69803552Y-100372252D01*
X69803552Y-100372252D02*
X69851171Y-100277014D01*
X69851171Y-100277014D02*
X69946409Y-100229395D01*
X69946409Y-100229395D02*
X70470219Y-100229395D01*
X69946409Y-100229395D02*
X69851171Y-100181776D01*
X69851171Y-100181776D02*
X69803552Y-100086538D01*
X69803552Y-100086538D02*
X69803552Y-99943681D01*
X69803552Y-99943681D02*
X69851171Y-99848442D01*
X69851171Y-99848442D02*
X69946409Y-99800823D01*
X69946409Y-99800823D02*
X70470219Y-99800823D01*
X70470219Y-99324633D02*
X69803552Y-99324633D01*
X69898790Y-99324633D02*
X69851171Y-99277014D01*
X69851171Y-99277014D02*
X69803552Y-99181776D01*
X69803552Y-99181776D02*
X69803552Y-99038919D01*
X69803552Y-99038919D02*
X69851171Y-98943681D01*
X69851171Y-98943681D02*
X69946409Y-98896062D01*
X69946409Y-98896062D02*
X70470219Y-98896062D01*
X69946409Y-98896062D02*
X69851171Y-98848443D01*
X69851171Y-98848443D02*
X69803552Y-98753205D01*
X69803552Y-98753205D02*
X69803552Y-98610348D01*
X69803552Y-98610348D02*
X69851171Y-98515109D01*
X69851171Y-98515109D02*
X69946409Y-98467490D01*
X69946409Y-98467490D02*
X70470219Y-98467490D01*
D11*
X80095050Y-145540990D02*
X70578980Y-145540990D01*
X70578980Y-60536850D02*
X80088890Y-60536850D01*
X71165400Y-145540990D02*
X71165400Y-60536850D01*
X71165400Y-145540990D02*
X71165400Y-60536850D01*
X71165400Y-145540990D02*
X70578979Y-144414486D01*
X71165400Y-145540990D02*
X71751821Y-144414486D01*
X71165400Y-60536850D02*
X71751821Y-61663354D01*
X71165400Y-60536850D02*
X70578979Y-61663354D01*
D10*
X106946996Y-149365519D02*
X106756520Y-149365519D01*
X106756520Y-149365519D02*
X106661282Y-149413138D01*
X106661282Y-149413138D02*
X106613663Y-149460757D01*
X106613663Y-149460757D02*
X106518425Y-149603614D01*
X106518425Y-149603614D02*
X106470806Y-149794090D01*
X106470806Y-149794090D02*
X106470806Y-150175042D01*
X106470806Y-150175042D02*
X106518425Y-150270280D01*
X106518425Y-150270280D02*
X106566044Y-150317900D01*
X106566044Y-150317900D02*
X106661282Y-150365519D01*
X106661282Y-150365519D02*
X106851758Y-150365519D01*
X106851758Y-150365519D02*
X106946996Y-150317900D01*
X106946996Y-150317900D02*
X106994615Y-150270280D01*
X106994615Y-150270280D02*
X107042234Y-150175042D01*
X107042234Y-150175042D02*
X107042234Y-149936947D01*
X107042234Y-149936947D02*
X106994615Y-149841709D01*
X106994615Y-149841709D02*
X106946996Y-149794090D01*
X106946996Y-149794090D02*
X106851758Y-149746471D01*
X106851758Y-149746471D02*
X106661282Y-149746471D01*
X106661282Y-149746471D02*
X106566044Y-149794090D01*
X106566044Y-149794090D02*
X106518425Y-149841709D01*
X106518425Y-149841709D02*
X106470806Y-149936947D01*
X107375568Y-149365519D02*
X108042234Y-149365519D01*
X108042234Y-149365519D02*
X107613663Y-150365519D01*
X108423187Y-150270280D02*
X108470806Y-150317900D01*
X108470806Y-150317900D02*
X108423187Y-150365519D01*
X108423187Y-150365519D02*
X108375568Y-150317900D01*
X108375568Y-150317900D02*
X108423187Y-150270280D01*
X108423187Y-150270280D02*
X108423187Y-150365519D01*
X108946996Y-150365519D02*
X109137472Y-150365519D01*
X109137472Y-150365519D02*
X109232710Y-150317900D01*
X109232710Y-150317900D02*
X109280329Y-150270280D01*
X109280329Y-150270280D02*
X109375567Y-150127423D01*
X109375567Y-150127423D02*
X109423186Y-149936947D01*
X109423186Y-149936947D02*
X109423186Y-149555995D01*
X109423186Y-149555995D02*
X109375567Y-149460757D01*
X109375567Y-149460757D02*
X109327948Y-149413138D01*
X109327948Y-149413138D02*
X109232710Y-149365519D01*
X109232710Y-149365519D02*
X109042234Y-149365519D01*
X109042234Y-149365519D02*
X108946996Y-149413138D01*
X108946996Y-149413138D02*
X108899377Y-149460757D01*
X108899377Y-149460757D02*
X108851758Y-149555995D01*
X108851758Y-149555995D02*
X108851758Y-149794090D01*
X108851758Y-149794090D02*
X108899377Y-149889328D01*
X108899377Y-149889328D02*
X108946996Y-149936947D01*
X108946996Y-149936947D02*
X109042234Y-149984566D01*
X109042234Y-149984566D02*
X109232710Y-149984566D01*
X109232710Y-149984566D02*
X109327948Y-149936947D01*
X109327948Y-149936947D02*
X109375567Y-149889328D01*
X109375567Y-149889328D02*
X109423186Y-149794090D01*
X109994615Y-149794090D02*
X109899377Y-149746471D01*
X109899377Y-149746471D02*
X109851758Y-149698852D01*
X109851758Y-149698852D02*
X109804139Y-149603614D01*
X109804139Y-149603614D02*
X109804139Y-149555995D01*
X109804139Y-149555995D02*
X109851758Y-149460757D01*
X109851758Y-149460757D02*
X109899377Y-149413138D01*
X109899377Y-149413138D02*
X109994615Y-149365519D01*
X109994615Y-149365519D02*
X110185091Y-149365519D01*
X110185091Y-149365519D02*
X110280329Y-149413138D01*
X110280329Y-149413138D02*
X110327948Y-149460757D01*
X110327948Y-149460757D02*
X110375567Y-149555995D01*
X110375567Y-149555995D02*
X110375567Y-149603614D01*
X110375567Y-149603614D02*
X110327948Y-149698852D01*
X110327948Y-149698852D02*
X110280329Y-149746471D01*
X110280329Y-149746471D02*
X110185091Y-149794090D01*
X110185091Y-149794090D02*
X109994615Y-149794090D01*
X109994615Y-149794090D02*
X109899377Y-149841709D01*
X109899377Y-149841709D02*
X109851758Y-149889328D01*
X109851758Y-149889328D02*
X109804139Y-149984566D01*
X109804139Y-149984566D02*
X109804139Y-150175042D01*
X109804139Y-150175042D02*
X109851758Y-150270280D01*
X109851758Y-150270280D02*
X109899377Y-150317900D01*
X109899377Y-150317900D02*
X109994615Y-150365519D01*
X109994615Y-150365519D02*
X110185091Y-150365519D01*
X110185091Y-150365519D02*
X110280329Y-150317900D01*
X110280329Y-150317900D02*
X110327948Y-150270280D01*
X110327948Y-150270280D02*
X110375567Y-150175042D01*
X110375567Y-150175042D02*
X110375567Y-149984566D01*
X110375567Y-149984566D02*
X110327948Y-149889328D01*
X110327948Y-149889328D02*
X110280329Y-149841709D01*
X110280329Y-149841709D02*
X110185091Y-149794090D01*
X110851758Y-150365519D02*
X111042234Y-150365519D01*
X111042234Y-150365519D02*
X111137472Y-150317900D01*
X111137472Y-150317900D02*
X111185091Y-150270280D01*
X111185091Y-150270280D02*
X111280329Y-150127423D01*
X111280329Y-150127423D02*
X111327948Y-149936947D01*
X111327948Y-149936947D02*
X111327948Y-149555995D01*
X111327948Y-149555995D02*
X111280329Y-149460757D01*
X111280329Y-149460757D02*
X111232710Y-149413138D01*
X111232710Y-149413138D02*
X111137472Y-149365519D01*
X111137472Y-149365519D02*
X110946996Y-149365519D01*
X110946996Y-149365519D02*
X110851758Y-149413138D01*
X110851758Y-149413138D02*
X110804139Y-149460757D01*
X110804139Y-149460757D02*
X110756520Y-149555995D01*
X110756520Y-149555995D02*
X110756520Y-149794090D01*
X110756520Y-149794090D02*
X110804139Y-149889328D01*
X110804139Y-149889328D02*
X110851758Y-149936947D01*
X110851758Y-149936947D02*
X110946996Y-149984566D01*
X110946996Y-149984566D02*
X111137472Y-149984566D01*
X111137472Y-149984566D02*
X111232710Y-149936947D01*
X111232710Y-149936947D02*
X111280329Y-149889328D01*
X111280329Y-149889328D02*
X111327948Y-149794090D01*
X112185091Y-149365519D02*
X111994615Y-149365519D01*
X111994615Y-149365519D02*
X111899377Y-149413138D01*
X111899377Y-149413138D02*
X111851758Y-149460757D01*
X111851758Y-149460757D02*
X111756520Y-149603614D01*
X111756520Y-149603614D02*
X111708901Y-149794090D01*
X111708901Y-149794090D02*
X111708901Y-150175042D01*
X111708901Y-150175042D02*
X111756520Y-150270280D01*
X111756520Y-150270280D02*
X111804139Y-150317900D01*
X111804139Y-150317900D02*
X111899377Y-150365519D01*
X111899377Y-150365519D02*
X112089853Y-150365519D01*
X112089853Y-150365519D02*
X112185091Y-150317900D01*
X112185091Y-150317900D02*
X112232710Y-150270280D01*
X112232710Y-150270280D02*
X112280329Y-150175042D01*
X112280329Y-150175042D02*
X112280329Y-149936947D01*
X112280329Y-149936947D02*
X112232710Y-149841709D01*
X112232710Y-149841709D02*
X112185091Y-149794090D01*
X112185091Y-149794090D02*
X112089853Y-149746471D01*
X112089853Y-149746471D02*
X111899377Y-149746471D01*
X111899377Y-149746471D02*
X111804139Y-149794090D01*
X111804139Y-149794090D02*
X111756520Y-149841709D01*
X111756520Y-149841709D02*
X111708901Y-149936947D01*
X113470806Y-150365519D02*
X113470806Y-149698852D01*
X113470806Y-149794090D02*
X113518425Y-149746471D01*
X113518425Y-149746471D02*
X113613663Y-149698852D01*
X113613663Y-149698852D02*
X113756520Y-149698852D01*
X113756520Y-149698852D02*
X113851758Y-149746471D01*
X113851758Y-149746471D02*
X113899377Y-149841709D01*
X113899377Y-149841709D02*
X113899377Y-150365519D01*
X113899377Y-149841709D02*
X113946996Y-149746471D01*
X113946996Y-149746471D02*
X114042234Y-149698852D01*
X114042234Y-149698852D02*
X114185091Y-149698852D01*
X114185091Y-149698852D02*
X114280330Y-149746471D01*
X114280330Y-149746471D02*
X114327949Y-149841709D01*
X114327949Y-149841709D02*
X114327949Y-150365519D01*
X114804139Y-150365519D02*
X114804139Y-149698852D01*
X114804139Y-149794090D02*
X114851758Y-149746471D01*
X114851758Y-149746471D02*
X114946996Y-149698852D01*
X114946996Y-149698852D02*
X115089853Y-149698852D01*
X115089853Y-149698852D02*
X115185091Y-149746471D01*
X115185091Y-149746471D02*
X115232710Y-149841709D01*
X115232710Y-149841709D02*
X115232710Y-150365519D01*
X115232710Y-149841709D02*
X115280329Y-149746471D01*
X115280329Y-149746471D02*
X115375567Y-149698852D01*
X115375567Y-149698852D02*
X115518424Y-149698852D01*
X115518424Y-149698852D02*
X115613663Y-149746471D01*
X115613663Y-149746471D02*
X115661282Y-149841709D01*
X115661282Y-149841709D02*
X115661282Y-150365519D01*
D11*
X77095050Y-142540990D02*
X77095050Y-151647120D01*
X145084655Y-151647120D02*
X145084655Y-142555128D01*
X77095050Y-151060700D02*
X145084655Y-151060700D01*
X77095050Y-151060700D02*
X145084655Y-151060700D01*
X77095050Y-151060700D02*
X78221554Y-150474279D01*
X77095050Y-151060700D02*
X78221554Y-151647121D01*
X145084655Y-151060700D02*
X143958151Y-151647121D01*
X145084655Y-151060700D02*
X143958151Y-150474279D01*
X86431200Y-76803900D02*
G75*
G02*
X86431200Y-74660500I0J1071700D01*
G01*
X141371400Y-125122800D02*
X141371400Y-132184000D01*
X80595050Y-145540990D02*
G75*
G02*
X77095010Y-142040990I-50J3499990D01*
G01*
X145079800Y-132742800D02*
X145084655Y-142055128D01*
X131897539Y-71452572D02*
G75*
G02*
X131420959Y-71090779I-27039J459172D01*
G01*
X80588890Y-60536850D02*
X131414600Y-60530600D01*
X132431200Y-74660400D02*
G75*
G02*
X132431200Y-76814000I0J-1076800D01*
G01*
X145084655Y-142055128D02*
G75*
G02*
X141603325Y-145554855I-3490555J-9172D01*
G01*
X141603325Y-145554886D02*
X80595050Y-145540990D01*
X141371400Y-125122800D02*
X144825800Y-124564000D01*
X144825800Y-124564000D02*
X144825800Y-74955400D01*
X141371400Y-132184000D02*
X145079800Y-132742800D01*
X141549200Y-71450201D02*
G75*
G02*
X144825799Y-74955400I-114300J-3390899D01*
G01*
X132431200Y-74660400D02*
X86431200Y-74660400D01*
X131420964Y-71090778D02*
X131414600Y-60530600D01*
X141549200Y-71450200D02*
X131897539Y-71452572D01*
X86431200Y-76803900D02*
X132431200Y-76813900D01*
X77088890Y-64036850D02*
G75*
G02*
X80588890Y-60536850I3500000J0D01*
G01*
X77095050Y-142040990D02*
X77088890Y-64036850D01*
M02*
